<svg xmlns="http://www.w3.org/2000/svg" viewBox="0 0 436.68 433.86"><defs><style>.cls-1{fill:#c09d5d;opacity:0.1;}</style></defs><title>footer asset</title><g id="Layer_2" data-name="Layer 2"><g id="Layer_1-2" data-name="Layer 1"><path class="cls-1" d="M423,271.54c-3.29,6.38-8.65,12.72-16.82,18.93A105.25,105.25,0,0,1,392,299.32a151.93,151.93,0,0,0-14.68-32.66c-.95-2.61-1.91-5.37-2.85-8.16,2.28-2,4.46-3.82,6.67-5.65,4.1-2.31,8.11-4.71,11.91-7.29a146,146,0,0,0,17.18-13.63.88.88,0,0,1,.12.17c9.08,14.54,12.77,26.91,12.76,37.09,0,.82-.12,1.56-.16,2.35m-54.78,94.22c-8.38,5.45-20.2,8.87-36.74,8.88-1.28,0-2.8-.19-4.12-.22a152.06,152.06,0,0,0,3.8-34.09c0-.46,0-.93,0-1.41.49-2.75,1-5.5,1.56-8.41,2.92-.59,5.68-1.07,8.43-1.56.5,0,1,.05,1.47.05a157.1,157.1,0,0,0,34.32-3.71c0,1.3.22,2.78.22,4,0,16.38-3.45,28.14-8.9,36.44M309,372.67a267.16,267.16,0,0,1-37.9-8.79c-2.37-1.46-4.7-3-7-4.62a163.27,163.27,0,0,0,11.72-43.49,165.89,165.89,0,0,0,43.82,11.72c.23,3,.36,5.94.43,8.9a263.38,263.38,0,0,1-11,36.28m-16.63,30.86c-6.26,8.12-12.63,13.43-19.07,16.71-.78,0-1.54.16-2.35.16-10.26,0-22.7-3.66-37.34-12.66a1,1,0,0,0-.19-.15,154.3,154.3,0,0,0,21.14-28.94c1.84-2.18,3.63-4.33,5.64-6.57,2.81.93,5.57,1.87,8.2,2.83a155.19,155.19,0,0,0,32.87,14.58,107.28,107.28,0,0,1-8.9,14m-74-6.74a263.91,263.91,0,0,1-28.25-26.35c-1-1.76-1.94-3.53-2.84-5.36-.36-.7-.62-1.48-1-2.23,2.59-2,5.18-3.91,7.66-6A161.67,161.67,0,0,0,218.34,331a162.77,162.77,0,0,0,24.4,25.86c2.48,2.1,5.07,4.07,7.67,6-1.27,2.63-2.62,5.21-4,7.76a264.87,264.87,0,0,1-28,26.13m-15.28,10.95c-14.63,9-27.08,12.68-37.33,12.66-.81,0-1.54-.11-2.32-.15-6.44-3.26-12.82-8.6-19.09-16.74a103.81,103.81,0,0,1-8.91-14,155.28,155.28,0,0,0,32.8-14.54c2.65-1,5.44-1.93,8.28-2.87,2,2.25,3.85,4.44,5.68,6.62,2.33,4.07,4.76,8.06,7.36,11.83a145.73,145.73,0,0,0,13.72,17.09c-.06,0-.12.09-.19.13M127.7,372.67a263.39,263.39,0,0,1-11.06-36.37c.07-2.93.2-5.86.44-8.82a166.67,166.67,0,0,0,43.86-11.73,163.92,163.92,0,0,0,11.64,43.54c-2.34,1.59-4.68,3.16-7.05,4.61a268.9,268.9,0,0,1-37.83,8.77m-22.48,2c-16.5,0-28.34-3.43-36.7-8.84-5.47-8.31-8.92-20.08-8.94-36.51,0-1.28.19-2.78.24-4.1A155.12,155.12,0,0,0,94.14,329c.45,0,.92,0,1.39,0,2.78.49,5.57,1,8.52,1.56.57,2.87,1,5.59,1.55,8.31,0,.5-.06,1-.06,1.52a152.74,152.74,0,0,0,3.72,34.09c-1.3.05-2.78.22-4,.22M44.66,299.33a106.42,106.42,0,0,1-14.14-8.86C22.35,284.27,17,278,13.72,271.58c-.05-.81-.17-1.56-.17-2.39,0-10.19,3.67-22.57,12.75-37.1,0-.06.09-.13.12-.18A156.29,156.29,0,0,0,55.64,253c2.16,1.8,4.31,3.57,6.54,5.53-1,2.83-1.93,5.62-2.89,8.27a152.45,152.45,0,0,0-14.63,32.56M13.55,164.67c0-.8.1-1.54.15-2.29,3.28-6.42,8.64-12.76,16.84-19a107.54,107.54,0,0,1,14.12-8.86,153,153,0,0,0,14.63,32.6c1,2.64,1.94,5.4,2.89,8.22-2.28,2-4.47,3.81-6.68,5.66-4.08,2.31-8.08,4.71-11.89,7.29a147.68,147.68,0,0,0-17.2,13.63.64.64,0,0,0-.11-.16c-9.08-14.54-12.77-26.92-12.75-37.11M68.49,68.08c8.37-5.43,20.21-8.86,36.73-8.87,1.28,0,2.8.19,4.12.24a151.84,151.84,0,0,0-3.8,34.08c0,.5,0,1,.06,1.51-.5,2.72-1,5.45-1.58,8.32-2.89.58-5.65,1.06-8.41,1.55-.49,0-1,0-1.47,0a156.81,156.81,0,0,0-34.34,3.71c0-1.3-.22-2.76-.22-4,0-16.4,3.46-28.16,8.91-36.47m59.2-6.88A267.74,267.74,0,0,1,165.6,70c2.37,1.44,4.69,3,7,4.59a164,164,0,0,0-11.72,43.49,166.77,166.77,0,0,0-43.81-11.71c-.24-3-.37-5.88-.44-8.82a265.37,265.37,0,0,1,11-36.35m16.64-30.87c6.25-8.12,12.62-13.43,19-16.7.8,0,1.55-.16,2.37-.16,10.25,0,22.7,3.66,37.33,12.67.07,0,.13.09.19.11a156,156,0,0,0-21.21,29.06c-1.81,2.14-3.59,4.27-5.56,6.48-2.81-.93-5.57-1.87-8.19-2.81a153.91,153.91,0,0,0-32.88-14.6,103.47,103.47,0,0,1,8.91-14.05m74,6.74A268.49,268.49,0,0,1,246.57,63.4c1,1.77,1.93,3.54,2.85,5.37.36.72.63,1.5,1,2.23-2.59,2-5.18,3.93-7.66,6a161.73,161.73,0,0,0-24.38,25.85A162.8,162.8,0,0,0,194,77c-2.49-2.12-5.08-4.08-7.69-6.06,1.27-2.62,2.61-5.17,4-7.71a265.75,265.75,0,0,1,28.11-26.18m15.26-10.93c14.64-9,27.08-12.69,37.34-12.68.81,0,1.55.11,2.33.15,6.43,3.26,12.82,8.59,19.09,16.73a107.28,107.28,0,0,1,8.9,14,154,154,0,0,0-32.79,14.54c-2.66,1-5.45,1.92-8.29,2.86-2-2.28-3.86-4.46-5.73-6.66-2.32-4-4.73-8-7.31-11.78a148,148,0,0,0-13.72-17.09c.06,0,.13-.09.18-.11M309,61.19a263.38,263.38,0,0,1,11,36.28c-.07,3-.2,5.94-.43,8.92a165.63,165.63,0,0,0-43.86,11.73,164.65,164.65,0,0,0-11.63-43.55c2.34-1.59,4.68-3.17,7.06-4.61A266.87,266.87,0,0,1,309,61.19m22.45-2c16.52,0,28.36,3.45,36.73,8.87,5.46,8.31,8.9,20.08,8.91,36.48,0,1.28-.19,2.79-.22,4.11a155.19,155.19,0,0,0-34.32-3.77c-.47,0-.94,0-1.42,0-2.77-.49-5.54-1-8.48-1.56-.58-2.9-1.08-5.67-1.56-8.42,0-.47,0-.94,0-1.41a153.82,153.82,0,0,0-3.72-34.1c1.3,0,2.79-.23,4-.23m36,188.61c-.71.36-1.49.62-2.23.95-2-2.55-4-5.13-6.06-7.61a163.73,163.73,0,0,0-26-24.23,162.29,162.29,0,0,0,26-24.22c2.11-2.48,4.11-5.06,6.08-7.64,2.65,1.26,5.22,2.58,7.77,4a266.3,266.3,0,0,1,26.34,27.9A264.3,264.3,0,0,1,372.86,245c-1.78,1-3.56,1.93-5.4,2.82M317.81,274a166.44,166.44,0,0,0,43.82-11.55c1.59,2.3,3.17,4.61,4.63,7A262.46,262.46,0,0,1,375.1,307a268.92,268.92,0,0,1-36.57,11c-3-.07-5.94-.21-8.91-.43A163.48,163.48,0,0,0,317.81,274m-59.49-30.49a5.43,5.43,0,0,0,2.53-2.16,5.18,5.18,0,0,0,.59-3.25,75.86,75.86,0,0,0,12,1c1.51,0,3-.27,4.45-.35a85.76,85.76,0,0,1,21.54,23.49c.36.58.68,1.23,1,1.82a86.84,86.84,0,0,1-33.09-6.62,76.77,76.77,0,0,0-9-14m5.6,54a85.56,85.56,0,0,1-23.65-21.39c.11-1.48.36-2.94.36-4.42a72.22,72.22,0,0,0-1-11.88,5,5,0,0,0,5.46-3.14,74.7,74.7,0,0,0,14.05,9,85.49,85.49,0,0,1,6.65,32.88c-.6-.35-1.26-.65-1.83-1m-25.79-7a99.77,99.77,0,0,0,20,16.24c2.34,1.45,4.78,2.76,7.23,4.07a151.12,151.12,0,0,1-10.39,41.81c-1.7-1.33-3.44-2.6-5.09-4a147.59,147.59,0,0,1-25-27.11,104.68,104.68,0,0,0,13.28-31M207.6,279.22a74,74,0,0,0,7.49-14.71,5.37,5.37,0,0,0,3.24,1.17,5.49,5.49,0,0,0,3.25-1.17,75.14,75.14,0,0,0,7.5,14.74,85.51,85.51,0,0,1-10.74,31.84,85.77,85.77,0,0,1-10.74-31.87m-29,27.48a100.34,100.34,0,0,0,20-16.24,104.24,104.24,0,0,0,13.27,31,147.13,147.13,0,0,1-25,27.09c-1.64,1.39-3.36,2.66-5.05,4a148.83,148.83,0,0,1-10.18-41.89c2.36-1.28,4.72-2.55,7-3.94m-1-41.07a76.36,76.36,0,0,0,14-9,5.39,5.39,0,0,0,2.16,2.5,5.58,5.58,0,0,0,3.31.62,72.37,72.37,0,0,0-1,11.9c0,1.47.25,2.93.35,4.4a86,86,0,0,1-23.64,21.4c-.59.36-1.23.67-1.83,1a85.48,85.48,0,0,1,6.65-32.85M136.25,264c.35-.59.68-1.22,1-1.81a85.69,85.69,0,0,1,21.52-23.49c1.49.08,3,.34,4.45.35a74.12,74.12,0,0,0,12-1,5.41,5.41,0,0,0,.62,3.25,5.29,5.29,0,0,0,2.54,2.15,75.12,75.12,0,0,0-9,14A87,87,0,0,1,136.25,264m-65.86,5.4c1.49-2.39,3.07-4.73,4.69-7.07A166.62,166.62,0,0,0,118.84,274a164.16,164.16,0,0,0-11.78,43.52c-3,.23-6,.37-8.93.43a266.3,266.3,0,0,1-36.57-11,264.72,264.72,0,0,1,8.83-37.57m-1.18-83.38c.73-.36,1.5-.6,2.24-1,2,2.58,4,5.16,6.08,7.62a161.16,161.16,0,0,0,26,24.22,162.65,162.65,0,0,0-26,24.24c-2.13,2.47-4.12,5.05-6.11,7.63-2.65-1.26-5.23-2.58-7.78-4a265.08,265.08,0,0,1-26.33-27.91,265.44,265.44,0,0,1,26.51-28.05c1.79-1,3.56-1.93,5.39-2.83m49.66-26.13A166,166,0,0,0,75,171.46c-1.58-2.32-3.16-4.61-4.64-7a266.68,266.68,0,0,1-8.84-37.61,271,271,0,0,1,36.61-11q4.44.1,8.89.43a163.65,163.65,0,0,0,11.81,43.6m4.71,57a86.79,86.79,0,0,1,32.05-10.66,77.26,77.26,0,0,0,14.82,7.44,5,5,0,0,0,0,6.45,76,76,0,0,0-14.83,7.45,86.84,86.84,0,0,1-32-10.68M85.86,185.62c-1.41-1.61-2.68-3.33-4-5A151.88,151.88,0,0,1,124,170.48c1.29,2.35,2.55,4.72,4,7a99.4,99.4,0,0,0,16.36,19.84,106.14,106.14,0,0,0-31.22,13.18,147.18,147.18,0,0,1-27.26-24.84m58.47,51A99,99,0,0,0,128,256.43c-1.45,2.32-2.77,4.74-4.08,7.17a152.3,152.3,0,0,1-42.1-10.29c1.35-1.69,2.64-3.43,4.06-5.06a147.12,147.12,0,0,1,27.26-24.83,106.49,106.49,0,0,0,31.21,13.19m34.06-46.21a5,5,0,0,0-3.16,5.43,74.12,74.12,0,0,0-12-1c-1.49,0-3,.26-4.44.34a85.28,85.28,0,0,1-21.53-23.49c-.36-.58-.69-1.22-1-1.82,11.88.21,23.1,2.31,33.11,6.63a73.8,73.8,0,0,0,9,13.94m-5.62-54a86,86,0,0,1,23.64,21.41c-.1,1.48-.35,2.93-.35,4.42a72.53,72.53,0,0,0,1,11.89,5,5,0,0,0-5.48,3.11,76.05,76.05,0,0,0-14-9,85.51,85.51,0,0,1-6.66-32.89c.6.35,1.24.66,1.83,1m25.78,7a99.47,99.47,0,0,0-20-16.25c-2.34-1.44-4.78-2.75-7.24-4.05a150.13,150.13,0,0,1,10.39-41.82c1.69,1.33,3.44,2.61,5.09,4a147.7,147.7,0,0,1,25,27.12,104.1,104.1,0,0,0-13.28,31m30.53,11.23a76.91,76.91,0,0,0-7.49,14.72,5.4,5.4,0,0,0-3.24-1.17,5.5,5.5,0,0,0-3.26,1.17,74.66,74.66,0,0,0-7.49-14.72,85.76,85.76,0,0,1,10.75-31.85,85.36,85.36,0,0,1,10.73,31.85m29-27.46a99.07,99.07,0,0,0-20,16.25,104,104,0,0,0-13.28-31,148.4,148.4,0,0,1,25-27.12c1.64-1.38,3.37-2.64,5-4a149,149,0,0,1,10.2,41.9c-2.36,1.26-4.72,2.53-7,3.93m-4.89,89.76a34.87,34.87,0,1,1-34.87-34.64,34.77,34.77,0,0,1,34.87,34.64m5.89-48.69a75.79,75.79,0,0,0-14.06,9,5.45,5.45,0,0,0-2.17-2.5,5.39,5.39,0,0,0-3.28-.61,72.53,72.53,0,0,0,1-11.89c0-1.49-.25-2.94-.36-4.42a86.06,86.06,0,0,1,23.65-21.4c.57-.36,1.23-.66,1.83-1a85.91,85.91,0,0,1-6.65,32.86m41.34,1.59c-.36.6-.68,1.24-1,1.82a85.82,85.82,0,0,1-21.52,23.48c-1.5-.08-3-.34-4.47-.34a73.56,73.56,0,0,0-12,1,4.23,4.23,0,0,0,.08-1.23,5.25,5.25,0,0,0-2.09-3.61,5.21,5.21,0,0,0-1.13-.57,75.56,75.56,0,0,0,9.05-14,87.22,87.22,0,0,1,33.09-6.61m17.39-10a163.54,163.54,0,0,0,11.78-43.51c3-.24,6-.38,8.95-.46a269.75,269.75,0,0,1,36.54,11,263.35,263.35,0,0,1-8.83,37.6c-1.47,2.38-3.06,4.71-4.67,7a166.39,166.39,0,0,0-43.77-11.64m-25.48,37.41a99.63,99.63,0,0,0,16.35-19.84c1.46-2.31,2.78-4.75,4.08-7.18a152.78,152.78,0,0,1,42.1,10.31c-1.36,1.69-2.63,3.41-4.05,5.06a147.57,147.57,0,0,1-27.28,24.83,105.65,105.65,0,0,0-31.2-13.18m31.2,26.13a147.63,147.63,0,0,1,27.28,24.84c1.39,1.63,2.67,3.34,4,5a151.88,151.88,0,0,1-42.17,10.13c-1.27-2.34-2.54-4.7-4-6.95a99.41,99.41,0,0,0-16.35-19.85,105.65,105.65,0,0,0,31.2-13.18m-56.17-7.07a5.43,5.43,0,0,0-1.14-2.63,75.48,75.48,0,0,0,14.81-7.44,86.66,86.66,0,0,1,32.06,10.66,86.56,86.56,0,0,1-32.06,10.67,77.46,77.46,0,0,0-14.75-7.42,5.34,5.34,0,0,0,1.08-3.84m9.22-86.63a152.7,152.7,0,0,1,41.71-12.09A149.82,149.82,0,0,1,306.17,159c-1.32,0-2.64-.14-4-.14a104.49,104.49,0,0,0-29.6,4.14,102.21,102.21,0,0,0,4.17-29.42c0-1.28-.14-2.59-.18-3.89M164.08,163a104.4,104.4,0,0,0-29.63-4.15c-1.29,0-2.61.14-3.92.18a149.77,149.77,0,0,1-12.18-41.45A152.44,152.44,0,0,1,160,129.68c0,1.3-.13,2.61-.13,3.91A102,102,0,0,0,164.08,163m-4,141.14a152.15,152.15,0,0,1-41.73,12.1,151.13,151.13,0,0,1,12.14-41.39c1.34,0,2.66.12,4,.12a104.37,104.37,0,0,0,29.59-4.13,102.85,102.85,0,0,0-4.14,29.4c0,1.29.13,2.6.18,3.9m112.52-33.3A104.67,104.67,0,0,0,302.23,275c1.3,0,2.62-.15,3.92-.17a150.12,150.12,0,0,1,12.16,41.44,152,152,0,0,1-41.67-12.07c0-1.3.14-2.63.14-3.94a102.06,102.06,0,0,0-4.17-29.39M392,134.54a106.27,106.27,0,0,1,14.13,8.86c8.17,6.19,13.52,12.52,16.82,18.9,0,.8.16,1.55.16,2.37,0,10.19-3.68,22.57-12.76,37.11a.88.88,0,0,1-.12.17A154.45,154.45,0,0,0,381,180.88c-2.14-1.8-4.27-3.56-6.5-5.51.95-2.82,1.91-5.59,2.88-8.23A152.12,152.12,0,0,0,392,134.54m30,92.12L415.62,216l-.55.51-.09-.11,6.52-8.52a12.17,12.17,0,0,0,.84-1.23c9.52-15.33,14.34-29.73,14.34-42.82,0-1-.09-1.86-.14-2.48a3.17,3.17,0,0,1-.05-.53l-.13-2.15-1-1.91c-4.29-8.3-10.82-15.72-20-22.69a116.19,116.19,0,0,0-15.76-9.88l-10.24-5.4.34-11.55c0-.46,0-.93.08-1.41.08-1.06.15-2.1.15-3.07,0-17.49-3.64-31.83-10.74-42.64L378,58.32l-1.82-1.18c-10.92-7.07-25.36-10.66-42.94-10.66-1.13,0-2.2.08-3.14.15l-1.34.09-11.57.42-5.51-10.29a117,117,0,0,0-9.94-15.66c-6.94-9-14.64-15.72-22.89-19.91l-2-1-2.2-.12-.5,0A23.58,23.58,0,0,0,271.74,0c-13.16,0-27.66,4.81-43.12,14.29a9.78,9.78,0,0,0-1.37,1l-8.19,6.46-.27-.21.87-.93-11.3-6.09-.09-.06C192.73,4.86,178.17,0,164.91,0c-.85,0-1.65.06-2.45.13l-.55.05-2.17.13-1.93,1C149.58,5.49,141.9,12.18,135,21.19A116.07,116.07,0,0,0,125,36.84L119.5,47.13,108,46.72c-.44,0-.92,0-1.39-.09-1-.07-2-.15-3.19-.15-17.61,0-32.05,3.61-42.94,10.68l-1.82,1.18-1.19,1.8C50.39,71,46.79,85.3,46.77,102.78c0,.93.07,1.94.14,3,0,.47.08.93.08,1.38l.27,11.68-10.2,5.42a120,120,0,0,0-15.74,9.88c-9.21,7-15.76,14.45-20,22.77l-1,1.89-.18,2.64C.08,162,0,162.86,0,163.83c0,13,4.78,27.43,14.28,42.75L19.8,219l1.8-1.66h0L15.18,226l-.68,1C4.88,242.35,0,256.85,0,270c0,1,.08,1.86.14,2.49A4.34,4.34,0,0,1,.2,273l.13,2.15,1,1.92c4.27,8.28,10.81,15.7,20,22.68a119.13,119.13,0,0,0,15.75,9.87l10.36,5.52L47,326.54c0,.44-.06.9-.08,1.37-.08.95-.16,2-.16,3.17,0,17.5,3.63,31.85,10.76,42.69l1.19,1.8,1.81,1.17c10.89,7.06,25.33,10.64,42.91,10.64,1.12,0,2.2-.07,3.13-.14l1.36-.1,11.56-.42L125,397a114.42,114.42,0,0,0,10,15.64c7,9.17,14.53,15.68,22.89,19.92l2,1,2.21.11.49,0c.77.07,1.55.13,2.37.13h0c13.21,0,27.78-4.84,43.29-14.39h0l11.42-6.11-.91-1,.26-.19,8.14,6.39a14.5,14.5,0,0,0,1.25.88c15.52,9.55,30.11,14.41,43.36,14.41a23.48,23.48,0,0,0,2.43-.14l.5,0,2.21-.12,2-1c8.35-4.25,15.83-10.75,22.87-19.9A116.74,116.74,0,0,0,311.67,397l5.47-10.2,11.61.32c.45,0,.92.05,1.4.1,1.06.07,2.12.14,3.08.14h0c17.61,0,32.07-3.62,43-10.7l1.8-1.17,1.18-1.8c7.09-10.79,10.71-25.13,10.73-42.62,0-.94-.07-2-.15-3,0-.47-.07-.92-.08-1.36l-.34-11.62,10.24-5.42a115,115,0,0,0,15.78-9.89c9.07-6.88,15.81-14.53,20-22.71l1-1.9.13-2.14c0-.18,0-.35,0-.51a21.73,21.73,0,0,0,.16-2.48c0-13.11-4.84-27.54-14.39-42.88-.11-.17-.2-.33-.31-.49"/></g></g></svg>