<svg xmlns="http://www.w3.org/2000/svg" width="20.704" height="20.704" viewBox="0 0 20.704 20.704">
  <path id="Path_57" data-name="Path 57" d="M22.352-150.134c2.764,0,3.092.01,4.184.06,2.805.128,4.116,1.458,4.244,4.243.05,1.092.059,1.419.059,4.183s-.01,3.092-.059,4.183c-.129,2.782-1.435,4.116-4.244,4.244-1.092.05-1.418.06-4.184.06s-3.092-.01-4.183-.06c-2.812-.129-4.116-1.466-4.244-4.244-.05-1.092-.06-1.418-.06-4.183s.011-3.091.06-4.183c.128-2.784,1.435-4.116,4.244-4.244C19.261-150.123,19.588-150.134,22.352-150.134Zm0-1.866c-2.811,0-3.163.012-4.268.062-3.759.173-5.849,2.258-6.021,6.021-.051,1.105-.063,1.457-.063,4.268s.012,3.164.062,4.268c.173,3.76,2.258,5.849,6.021,6.021,1.105.05,1.457.062,4.268.062s3.164-.012,4.268-.062c3.756-.173,5.851-2.258,6.021-6.021.051-1.1.063-1.457.063-4.268s-.012-3.163-.062-4.268c-.169-3.756-2.258-5.849-6.021-6.021C25.516-151.988,25.163-152,22.352-152Zm0,5.036a5.316,5.316,0,0,0-5.316,5.316,5.317,5.317,0,0,0,5.316,5.317,5.317,5.317,0,0,0,5.316-5.317A5.316,5.316,0,0,0,22.352-146.964Zm0,8.766a3.45,3.45,0,0,1-3.451-3.451,3.451,3.451,0,0,1,3.451-3.451,3.451,3.451,0,0,1,3.451,3.451A3.45,3.45,0,0,1,22.352-138.2Zm5.526-10.219a1.243,1.243,0,0,0-1.243,1.242,1.242,1.242,0,0,0,1.243,1.242,1.241,1.241,0,0,0,1.241-1.242A1.242,1.242,0,0,0,27.878-148.416Z" transform="translate(-12 152)" fill="#b78b49"/>
</svg>
