<svg id="Layer_1" data-name="Layer 1" xmlns="http://www.w3.org/2000/svg" viewBox="0 0 470.41 283.46">
    <defs>
        <style>
        .cls-1 {
            fill: rgba(183, 139, 73, 0.3);
        }
        </style>
    </defs>
    <title>shutterstock_791386720 [Converted]</title>
    <path class="cls-1" d="M351.75,283.46H470.41V279.1c-7.22-3.52-12.2-8.32-17-13-6.85-6.62-13.33-12.87-24.66-13.37a31.41,31.41,0,0,1,3.9-.25c12.3,0,18.86,6.34,27.18,14.37a132,132,0,0,0,10.62,9.5v-6.22c-2.56-2.2-4.93-4.49-7.27-6.75-8.38-8.09-16.29-15.73-30.53-15.73-1,0-2.05.06-3.06.14a36.54,36.54,0,0,1,8.42-1c14.55,0,22.65,7.82,32,16.87l.41.41v-5.82c-8.74-8.35-17.61-15.66-32.44-15.66a40.82,40.82,0,0,0-8.76,1,42.08,42.08,0,0,1,14.11-2.43c11.64,0,19.68,4.31,27.09,10.41V247c-7.29-5.52-15.6-9.44-27.09-9.44a45.68,45.68,0,0,0-15.66,2.75,47.64,47.64,0,0,1,21-4.85A43.06,43.06,0,0,1,470.41,241v-3.31a46.07,46.07,0,0,0-21.73-5.16,50.51,50.51,0,0,0-17.15,3q1-.83,2-1.62a53.2,53.2,0,0,1,20.53-4.1,49.73,49.73,0,0,1,16.37,2.62V230A52.44,52.44,0,0,0,454,227.5a55.9,55.9,0,0,0-14.84,2c1.53-1.12,3.11-2.23,4.72-3.31a59,59,0,0,1,15.47-2.06,57.75,57.75,0,0,1,11,1v-1.73a60.5,60.5,0,0,0-11-1,61.19,61.19,0,0,0-11.32,1.06c2.49-1.53,5.08-3,7.79-4.43a65.17,65.17,0,0,1,8.89-.62c2,0,3.84.09,5.66.24v-1.06c-1.82-.15-3.7-.23-5.66-.23s-4.14.1-6.17.29A121.91,121.91,0,0,1,470,212.82h.42v-.44H470a121.91,121.91,0,0,1-11.41-4.89q3,.28,6.17.29c2,0,3.84-.08,5.66-.23v-1.07c-1.82.16-3.7.24-5.66.24a65.17,65.17,0,0,1-8.89-.61q-4.07-2.13-7.79-4.43a61.19,61.19,0,0,0,11.32,1.06,60.5,60.5,0,0,0,11-1V200a58.59,58.59,0,0,1-11,1A59.4,59.4,0,0,1,443.92,199c-1.61-1.09-3.19-2.19-4.72-3.32a55.49,55.49,0,0,0,14.84,2,52.44,52.44,0,0,0,16.37-2.46v-2.47A49.47,49.47,0,0,1,454,195.38a53.37,53.37,0,0,1-20.53-4.09l-2-1.62a50.51,50.51,0,0,0,17.15,3,46,46,0,0,0,21.73-5.17v-3.31a43,43,0,0,1-21.73,5.54,47.72,47.72,0,0,1-21-4.86,45.5,45.5,0,0,0,15.67,2.76c11.49,0,19.8-3.92,27.09-9.44v-4.53C463,179.74,455,184,443.32,184a42.08,42.08,0,0,1-14.11-2.42,40.82,40.82,0,0,0,8.76.95c14.83,0,23.7-7.32,32.44-15.66v-5.82l-.41.41c-9.38,9.05-17.48,16.87-32,16.87a37.1,37.1,0,0,1-8.42-1c1,.08,2,.13,3.06.13,14.24,0,22.15-7.63,30.53-15.72,2.34-2.26,4.71-4.55,7.27-6.75v-6.22a130.12,130.12,0,0,0-10.62,9.5c-8.32,8-14.88,14.37-27.18,14.37a31.41,31.41,0,0,1-3.9-.25c11.33-.5,17.81-6.76,24.66-13.37,4.84-4.66,9.82-9.46,17-13v-8.74c-7.22-3.51-12.2-8.31-17-13-6.85-6.61-13.33-12.87-24.66-13.36a31.41,31.41,0,0,1,3.9-.26c12.3,0,18.86,6.35,27.18,14.38a130.07,130.07,0,0,0,10.62,9.49v-6.21c-2.56-2.21-4.93-4.49-7.27-6.75-8.38-8.09-16.29-15.73-30.53-15.73-1,0-2.05,0-3.06.14a36.54,36.54,0,0,1,8.42-1c14.55,0,22.65,7.82,32,16.88l.41.4v-5.82c-8.74-8.34-17.61-15.65-32.44-15.65a41.46,41.46,0,0,0-8.76.94,42.33,42.33,0,0,1,14.11-2.42c11.64,0,19.68,4.31,27.09,10.41v-4.54c-7.29-5.51-15.6-9.44-27.09-9.44a45.68,45.68,0,0,0-15.66,2.76,47.65,47.65,0,0,1,21-4.86,43,43,0,0,1,21.73,5.54V96a46,46,0,0,0-21.73-5.17,50.75,50.75,0,0,0-17.15,3l2-1.62A53.37,53.37,0,0,1,454,88.08a49.47,49.47,0,0,1,16.37,2.62V88.23A52.44,52.44,0,0,0,454,85.77a55.9,55.9,0,0,0-14.84,2c1.53-1.12,3.11-2.23,4.72-3.32a59.4,59.4,0,0,1,15.47-2,58.59,58.59,0,0,1,11,1V81.7a60.5,60.5,0,0,0-11-1,61.19,61.19,0,0,0-11.32,1.06q3.74-2.31,7.79-4.43a65.17,65.17,0,0,1,8.89-.62c2,0,3.84.09,5.66.24V75.92c-1.82-.15-3.7-.24-5.66-.24s-4.14.11-6.17.29A121.89,121.89,0,0,1,470,71.09h.42v-.44H470a119.3,119.3,0,0,1-11.41-4.88q3,.28,6.17.29c2,0,3.84-.09,5.66-.24V64.75c-1.82.15-3.7.24-5.66.24a65.17,65.17,0,0,1-8.89-.62q-4.07-2.12-7.79-4.43A60.34,60.34,0,0,0,459.39,61a61.41,61.41,0,0,0,11-1V58.31a58.59,58.59,0,0,1-11,1,59.4,59.4,0,0,1-15.47-2c-1.61-1.09-3.19-2.19-4.72-3.32A55.9,55.9,0,0,0,454,56a52.44,52.44,0,0,0,16.37-2.46V51A49.47,49.47,0,0,1,454,53.65a53.37,53.37,0,0,1-20.53-4.09l-2-1.62a50.75,50.75,0,0,0,17.15,3,46,46,0,0,0,21.73-5.17V42.44A43,43,0,0,1,448.68,48a47.72,47.72,0,0,1-21-4.86,45.74,45.74,0,0,0,15.67,2.76c11.49,0,19.8-3.92,27.09-9.44V31.9C463,38,455,42.31,443.32,42.31a42.33,42.33,0,0,1-14.11-2.42,40.82,40.82,0,0,0,8.76.94c14.83,0,23.7-7.31,32.44-15.65V19.36l-.41.4c-9.38,9.06-17.48,16.88-32,16.88a36.54,36.54,0,0,1-8.42-1c1,.09,2,.14,3.06.14,14.24,0,22.15-7.64,30.53-15.73,2.34-2.26,4.71-4.54,7.27-6.74V7.1a128.28,128.28,0,0,0-10.62,9.5c-8.32,8-14.88,14.37-27.18,14.37a29.59,29.59,0,0,1-3.9-.26C440,30.22,446.52,24,453.37,17.35c4.84-4.67,9.82-9.46,17-13V0H351.75C326.32,9.51,310.23,25.05,296,38.77c-17.6,17-32.82,31.67-60.52,31.88h-.72a120.4,120.4,0,0,1-11.41-4.88c2,.19,4.09.29,6.17.29s3.84-.09,5.67-.24C257.93,64,271.28,51.1,286.55,36.36,299.72,23.64,314.66,9.22,338.32.5l1.34-.5h-3c-23.11,8.84-37.81,23-50.82,35.6-15.09,14.58-28.29,27.31-50.6,29.15-1.83.15-3.71.24-5.67.24a65.17,65.17,0,0,1-8.89-.62q-4.07-2.12-7.79-4.43A60.42,60.42,0,0,0,224.18,61a61.52,61.52,0,0,0,11-1c17.56-3.22,28.84-14.11,41.57-26.4C288.85,22,302.54,8.78,324.19.79L326.33,0h-4.8c-20.79,8.17-34.12,21-45.92,32.43-12.44,12-23.47,22.65-40.4,25.88a58.78,58.78,0,0,1-11,1,59.4,59.4,0,0,1-15.47-2c-1.61-1.09-3.19-2.19-4.72-3.32a55.9,55.9,0,0,0,14.84,2,52.55,52.55,0,0,0,16.38-2.46C247.88,49.4,257,40.64,267,30.93c11-10.59,23.4-22.6,43.05-29.85L313,0h-6.55C288,7.48,276,19,265.4,29.26,255.78,38.56,247.08,47,235.21,51a49.58,49.58,0,0,1-16.38,2.62,53.37,53.37,0,0,1-20.53-4.09l-2-1.62a50.79,50.79,0,0,0,17.15,3,46,46,0,0,0,21.74-5.17c8.33-4.31,15.07-10.82,22-17.54,9.87-9.52,21.05-20.32,38.7-26.83L299.68,0h-8.27c-16.21,6.79-26.8,17-36.21,26.1-6.61,6.38-12.73,12.28-20,16.34A43,43,0,0,1,213.47,48a47.65,47.65,0,0,1-21-4.86,45.68,45.68,0,0,0,15.66,2.76c11.49,0,19.8-3.92,27.1-9.44A138.6,138.6,0,0,0,247.47,25.5c9.2-8.88,18.7-18.06,34.34-23.83L286.35,0h-9.94c-14,6.08-23.19,15-31.42,22.93-3.31,3.2-6.49,6.26-9.78,9-7.42,6.1-15.46,10.41-27.1,10.41A42.22,42.22,0,0,1,194,39.89a40.66,40.66,0,0,0,8.75.94c14.84,0,23.7-7.31,32.45-15.65q1.24-1.18,2.49-2.4C245.74,15,254.05,7,267.69,2L273,0H261.45c-11.51,5.25-19.3,12.66-26.24,19.36l-.42.4c-9.38,9.06-17.48,16.88-32,16.88a36.39,36.39,0,0,1-8.41-1c1,.09,2,.14,3.05.14,14.25,0,22.16-7.64,30.53-15.73,2.34-2.26,4.71-4.54,7.28-6.74A58.57,58.57,0,0,1,253.56,2.26L259.7,0H246.56a62.78,62.78,0,0,0-11.35,7.1,126.88,126.88,0,0,0-10.63,9.5C216.27,24.63,209.7,31,197.4,31a29.59,29.59,0,0,1-3.9-.26c11.33-.49,17.82-6.75,24.66-13.36,4.84-4.67,9.82-9.46,17.05-13a45.37,45.37,0,0,1,4.22-1.81L246.37,0H116.54C91.11,9.51,75,25.05,60.81,38.77,43.21,55.76,28,70.44.29,70.65H0v.44H.29C28,71.29,43.21,86,60.81,103c14.21,13.72,30.3,29.26,55.73,38.77C91.11,151.25,75,166.78,60.81,180.5,43.21,197.49,28,212.17.29,212.38H0v.44H.29c27.7.22,42.92,14.9,60.52,31.89C75,258.42,91.11,274,116.54,283.46H246.37l-6.94-2.55a45.37,45.37,0,0,1-4.22-1.81c-7.23-3.52-12.21-8.32-17.05-13-6.84-6.62-13.33-12.87-24.66-13.37a31.41,31.41,0,0,1,3.9-.25c12.3,0,18.87,6.34,27.18,14.37a130.51,130.51,0,0,0,10.63,9.5,63.32,63.32,0,0,0,11.35,7.09H259.7l-6.14-2.26a58.55,58.55,0,0,1-18.35-11.05c-2.57-2.2-4.94-4.49-7.28-6.75-8.37-8.09-16.29-15.73-30.53-15.73-1,0-2.05.06-3.06.14a36.54,36.54,0,0,1,8.42-1c14.55,0,22.65,7.82,32,16.87l.42.41c6.94,6.69,14.73,14.1,26.24,19.35H273l-5.33-2c-13.64-5-21.95-13.06-30-20.82l-2.49-2.39c-8.75-8.35-17.61-15.66-32.45-15.66a40.66,40.66,0,0,0-8.75,1,42,42,0,0,1,14.1-2.43c11.64,0,19.68,4.31,27.1,10.41,3.29,2.71,6.47,5.77,9.78,9,8.23,8,17.46,16.86,31.42,22.93h9.94l-4.54-1.67c-15.64-5.77-25.14-15-34.34-23.82A137,137,0,0,0,235.21,247c-7.3-5.52-15.61-9.44-27.1-9.44a45.72,45.72,0,0,0-15.66,2.75,47.64,47.64,0,0,1,21-4.85A43.12,43.12,0,0,1,235.21,241c7.26,4.07,13.38,10,20,16.35,9.41,9.09,20,19.31,36.21,26.09h8.27l-3.74-1.38c-17.65-6.5-28.83-17.3-38.7-26.83-7-6.72-13.7-13.22-22-17.54a46.11,46.11,0,0,0-21.74-5.16,50.55,50.55,0,0,0-17.15,3c.66-.55,1.31-1.09,2-1.62a53.2,53.2,0,0,1,20.53-4.1,49.84,49.84,0,0,1,16.38,2.62c11.87,4.08,20.57,12.47,30.19,21.77C276,264.44,288,276,306.46,283.46H313l-2.95-1.08C290.41,275.13,278,263.13,267,252.54c-10.06-9.72-19.13-18.47-31.8-22.58a52.55,52.55,0,0,0-16.38-2.46,55.9,55.9,0,0,0-14.84,2c1.53-1.12,3.11-2.23,4.72-3.31a59,59,0,0,1,15.47-2.06,57.93,57.93,0,0,1,11,1c16.93,3.23,28,13.87,40.4,25.87,11.8,11.4,25.13,24.27,45.92,32.43h4.8l-2.14-.79c-21.66-8-35.34-21.19-47.41-32.85-12.73-12.29-24-23.17-41.57-26.39a60.62,60.62,0,0,0-11-1,61.27,61.27,0,0,0-11.32,1.06c2.49-1.53,5.08-3,7.79-4.43a65.17,65.17,0,0,1,8.89-.62c2,0,3.84.09,5.67.24,22.31,1.85,35.51,14.58,50.6,29.15,13,12.56,27.71,26.76,50.82,35.6h3l-1.34-.49c-23.66-8.73-38.6-23.14-51.77-35.87-15.27-14.74-28.62-27.61-51.34-29.45-1.83-.15-3.71-.23-5.67-.23s-4.13.1-6.17.29a121.91,121.91,0,0,1,11.41-4.89h.72c27.7.22,42.92,14.9,60.52,31.89C310.23,258.42,326.32,274,351.75,283.46ZM312,248.25c1,.09,2,.14,3.05.14,14.25,0,22.16-7.64,30.54-15.73,6.88-6.64,14-13.51,25.62-17.8l6.14-2.26-6.14-2.26c-11.63-4.29-18.74-11.16-25.62-17.81-8.38-8.09-16.29-15.72-30.54-15.72-1,0-2,.05-3.05.14a36.46,36.46,0,0,1,8.41-1c14.55,0,22.65,7.82,32,16.87,7.05,6.81,14.92,14.41,26.67,19.77-11.75,5.36-19.62,13-26.67,19.76-9.38,9.06-17.48,16.88-32,16.88A36.46,36.46,0,0,1,312,248.25Zm-.34,4.24a41.37,41.37,0,0,0,8.75.94c16.25,0,25.33-8.77,34.95-18.05,8-7.76,16.34-15.78,30-20.81l5.34-2-5.34-2c-13.64-5-22-13-30-20.81-9.62-9.29-18.7-18.06-34.95-18.06a40.73,40.73,0,0,0-8.75,1,42,42,0,0,1,14.11-2.42c16.81,0,26.11,9,36.88,19.38,8.22,7.94,17.45,16.85,31.41,22.93-14,6.08-23.19,15-31.41,22.93-10.77,10.4-20.07,19.38-36.88,19.38A42.28,42.28,0,0,1,311.61,252.49Zm53.47-14.39c9.19-8.88,18.7-18.06,34.34-23.83L404,212.6l-4.54-1.68c-15.64-5.76-25.15-14.94-34.34-23.82-10.86-10.48-21.11-20.38-39.36-20.38a45.74,45.74,0,0,0-15.67,2.76,47.72,47.72,0,0,1,21-4.86c19.06,0,29.56,10.14,41.72,21.88,9.42,9.09,20,19.31,36.22,26.1-16.22,6.78-26.8,17-36.22,26.1-12.16,11.74-22.66,21.88-41.72,21.88a47.69,47.69,0,0,1-21-4.86,45.74,45.74,0,0,0,15.67,2.76C344,258.48,354.22,248.58,365.08,238.1ZM315.9,262.16l-2-1.62a50.75,50.75,0,0,0,17.15,3c20.25,0,31.67-11,43.76-22.71,9.87-9.53,21.06-20.32,38.7-26.83l3.74-1.38-3.74-1.38c-17.64-6.51-28.83-17.31-38.7-26.84-12.09-11.67-23.51-22.7-43.76-22.7a50.75,50.75,0,0,0-17.15,3l2-1.62A53.29,53.29,0,0,1,336.43,159c21.32,0,33,11.3,46.58,24.38,10.6,10.24,22.56,21.79,41.05,29.27-18.49,7.48-30.45,19-41.05,29.26-13.55,13.09-25.26,24.39-46.58,24.39A53.37,53.37,0,0,1,315.9,262.16Zm10.42,7.71q-2.43-1.64-4.72-3.32a55.88,55.88,0,0,0,14.83,2c22.26,0,34.27-11.6,48.18-25,11-10.59,23.41-22.6,43.06-29.85l2.94-1.08-2.94-1.09c-19.65-7.24-32.09-19.25-43.06-29.84-13.91-13.43-25.92-25-48.18-25a55.47,55.47,0,0,0-14.83,2c1.53-1.13,3.1-2.23,4.72-3.32a59.34,59.34,0,0,1,15.47-2.05c23.58,0,36.48,12.46,51.42,26.89,11.81,11.39,25.14,24.26,45.93,32.43-20.79,8.16-34.12,21-45.93,32.43-14.94,14.43-27.84,26.89-51.42,26.89A59.34,59.34,0,0,1,326.32,269.87Zm11.93,7.1q-4.06-2.12-7.78-4.43a61.19,61.19,0,0,0,11.32,1.06c24.26,0,37.39-12.68,52.59-27.36,12.08-11.65,25.76-24.86,47.41-32.85l2.15-.79-2.15-.79c-21.65-8-35.33-21.2-47.41-32.86-15.2-14.68-28.34-27.36-52.59-27.36a61.19,61.19,0,0,0-11.32,1.06q3.72-2.29,7.78-4.43a65.28,65.28,0,0,1,8.89-.61c25.84,0,39.94,13.62,56.28,29.39,13,12.55,27.71,26.75,50.82,35.6-23.11,8.84-37.82,23-50.82,35.6C387.08,264,373,277.59,347.14,277.59A65.28,65.28,0,0,1,338.25,277ZM449.59,270c4.14,4,8.68,8.38,14.79,12l-3.86-1.43c-7.62-2.81-12.35-7.37-16.92-11.78-4.91-4.75-9.61-9.27-17-10.65h.62C437.29,258.17,442.72,263.4,449.59,270Zm-17.33,10c-3.61-1.33-5.84-3.48-8.2-5.76a27.16,27.16,0,0,0-5.82-4.65c4.48.54,7.25,3.21,10.94,6.76,1.42,1.37,2.91,2.81,4.6,4.21Zm-12.45.33-1.67-.62A10.72,10.72,0,0,1,414.3,277c-.56-.54-1.19-1.14-1.91-1.72,2.4.36,4,1.81,6.58,4.28Zm26.58,0c-5.62-2.07-9.14-5.48-12.56-8.77-3.12-3-6.31-6.1-10.78-7.67,7.06.39,11.19,4.36,16.33,9.32a76.68,76.68,0,0,0,9.15,7.91Zm3.2-125.16c-6.87,6.63-12.3,11.87-22.34,11.87l-.62,0c7.36-1.37,12.06-5.89,17-10.64,4.57-4.41,9.3-9,16.92-11.79l3.86-1.42C458.27,146.78,453.73,151.16,449.59,155.16Zm-17.33-10,1.52-.56c-1.69,1.4-3.18,2.84-4.61,4.22-3.68,3.55-6.45,6.22-10.93,6.76a27.2,27.2,0,0,0,5.82-4.66C426.42,148.66,428.65,146.5,432.26,145.17Zm-19.87,4.76c.72-.57,1.35-1.17,1.91-1.71a10.72,10.72,0,0,1,3.84-2.75l1.67-.62-.84.81C416.41,148.13,414.79,149.58,412.39,149.93Zm21.44,3.72c3.42-3.29,6.94-6.7,12.56-8.77l2.14-.79a77.56,77.56,0,0,0-9.15,7.9c-5.14,5-9.27,8.94-16.32,9.33C427.52,159.74,430.71,156.66,433.83,153.65Zm-20.21,20.18c14.21,13.72,30.3,29.25,55.74,38.77-25.44,9.51-41.53,25.05-55.74,38.77-17.59,17-32.81,31.67-60.51,31.88h-.72A119.3,119.3,0,0,1,341,278.36c2,.19,4.09.29,6.16.29,26.27,0,40.51-13.76,57-29.69,13.18-12.72,28.11-27.14,51.77-35.87l1.35-.49-1.35-.5c-23.66-8.72-38.59-23.14-51.77-35.86-16.5-15.93-30.74-29.69-57-29.69-2.07,0-4.13.1-6.16.29a120.19,120.19,0,0,1,11.4-4.88h.73C380.81,142.16,396,156.84,413.62,173.83Zm36-45.53c4.14,4,8.68,8.39,14.79,12l-3.86-1.42c-7.62-2.81-12.35-7.37-16.92-11.78-4.91-4.75-9.61-9.28-17-10.65l.62,0C437.29,116.43,442.72,121.67,449.59,128.3Zm-17.33,10c-3.61-1.33-5.84-3.48-8.2-5.76a27.16,27.16,0,0,0-5.82-4.65c4.48.53,7.25,3.2,10.94,6.76,1.42,1.37,2.91,2.81,4.6,4.21Zm-12.45.32-1.67-.61a11,11,0,0,1-3.84-2.75c-.56-.54-1.19-1.15-1.91-1.72,2.4.35,4,1.8,6.58,4.28Zm26.58,0c-5.62-2.08-9.14-5.48-12.56-8.78-3.12-3-6.31-6.09-10.78-7.67,7.06.4,11.19,4.36,16.33,9.33a77.6,77.6,0,0,0,9.15,7.91Zm3.2-125.16c-6.87,6.63-12.3,11.87-22.34,11.87l-.62,0c7.36-1.37,12.06-5.9,17-10.65,4.57-4.41,9.3-9,16.92-11.78l3.86-1.42C458.27,5,453.73,9.43,449.59,13.43Zm-17.33-10,1.52-.56c-1.69,1.4-3.18,2.84-4.61,4.21-3.68,3.56-6.45,6.23-10.93,6.76a27.16,27.16,0,0,0,5.82-4.65C426.42,6.92,428.65,4.77,432.26,3.44ZM412.39,8.2c.72-.57,1.35-1.17,1.91-1.71a10.87,10.87,0,0,1,3.84-2.76l1.67-.61-.84.81C416.41,6.4,414.79,7.85,412.39,8.2Zm21.44,3.72c3.42-3.3,6.94-6.7,12.56-8.77l2.14-.79a77.56,77.56,0,0,0-9.15,7.9c-5.14,5-9.27,8.93-16.32,9.33C427.52,18,430.71,14.93,433.83,11.92ZM352.38.22h.73c27.7.22,42.92,14.9,60.51,31.89,14.21,13.72,30.3,29.25,55.74,38.77-25.44,9.51-41.53,25-55.74,38.76-17.59,17-32.81,31.67-60.51,31.89h-.72A121.91,121.91,0,0,1,341,136.62c2,.19,4.09.29,6.16.29,26.27,0,40.51-13.75,57-29.68,13.18-12.72,28.11-27.14,51.77-35.87l1.35-.49-1.35-.5c-23.66-8.73-38.59-23.14-51.77-35.87-16.5-15.92-30.74-29.68-57-29.68-2.07,0-4.13.1-6.16.29A122.85,122.85,0,0,1,352.38.22ZM338.25,6.49a65.28,65.28,0,0,1,8.89-.62c25.84,0,39.94,13.63,56.28,29.4,13,12.55,27.71,26.75,50.82,35.6-23.11,8.84-37.82,23-50.82,35.6-16.34,15.77-30.44,29.39-56.28,29.39a65.28,65.28,0,0,1-8.89-.62q-4.06-2.12-7.78-4.43a61.19,61.19,0,0,0,11.32,1.06c24.26,0,37.39-12.68,52.59-27.36,12.08-11.66,25.76-24.87,47.41-32.85l2.15-.79-2.15-.79c-21.65-8-35.33-21.2-47.41-32.86C379.18,22.54,366,9.86,341.79,9.86a61.19,61.19,0,0,0-11.32,1.06Q334.19,8.63,338.25,6.49ZM326.32,13.6a58.92,58.92,0,0,1,15.47-2c23.58,0,36.48,12.45,51.42,26.88C405,49.83,418.35,62.7,439.14,70.87,418.35,79,405,91.9,393.21,103.3c-14.94,14.43-27.84,26.89-51.42,26.89a58.93,58.93,0,0,1-15.47-2.06c-1.62-1.08-3.19-2.19-4.72-3.31a55.88,55.88,0,0,0,14.83,2c22.26,0,34.27-11.6,48.18-25C395.58,91.2,408,79.2,427.67,72l2.94-1.08-2.94-1.09C408,62.53,395.58,50.53,384.61,39.94c-13.91-13.44-25.92-25-48.18-25a55.88,55.88,0,0,0-14.83,2C323.13,15.79,324.7,14.68,326.32,13.6Zm-10.41,7.71a53.29,53.29,0,0,1,20.52-4.09c21.32,0,33,11.3,46.58,24.38,10.6,10.24,22.56,21.78,41.05,29.27-18.49,7.48-30.45,19-41.05,29.26-13.55,13.08-25.26,24.39-46.58,24.39a53.2,53.2,0,0,1-20.53-4.1c-.66-.53-1.32-1.07-2-1.62a50.51,50.51,0,0,0,17.15,3c20.25,0,31.67-11,43.76-22.71,9.87-9.53,21.06-20.33,38.7-26.84l3.74-1.37-3.74-1.38C395.9,63,384.71,52.18,374.84,42.65,362.75,31,351.33,20,331.08,20a50.51,50.51,0,0,0-17.15,3Zm15.17,1.58c19.06,0,29.56,10.14,41.72,21.88,9.42,9.09,20,19.31,36.22,26.1-16.22,6.78-26.8,17-36.22,26.09-12.16,11.75-22.66,21.89-41.72,21.89a47.69,47.69,0,0,1-21-4.86,45.73,45.73,0,0,0,15.67,2.75c18.25,0,28.5-9.9,39.36-20.38,9.19-8.87,18.7-18,34.34-23.82L404,70.87l-4.54-1.68c-15.64-5.77-25.15-14.95-34.34-23.82C354.22,34.89,344,25,325.72,25a45.73,45.73,0,0,0-15.67,2.75A47.72,47.72,0,0,1,331.08,22.89Zm-5.36,5.67c16.81,0,26.11,9,36.88,19.38,8.22,7.94,17.45,16.85,31.41,22.93-14,6.07-23.19,15-31.41,22.93-10.77,10.39-20.07,19.37-36.88,19.37a42,42,0,0,1-14.11-2.42,40.73,40.73,0,0,0,8.75,1c16.25,0,25.33-8.77,34.95-18,8-7.76,16.34-15.79,30-20.82l5.34-2-5.34-2c-13.64-5-22-13.06-30-20.82-9.62-9.28-18.7-18-34.95-18a40.73,40.73,0,0,0-8.75.95A42,42,0,0,1,325.72,28.56ZM312,35.21a36.45,36.45,0,0,1,8.41-1c14.55,0,22.65,7.82,32,16.87,7.05,6.8,14.92,14.41,26.67,19.77-11.75,5.35-19.62,13-26.67,19.76-9.38,9.05-17.48,16.87-32,16.87a36.45,36.45,0,0,1-8.41-1c1,.08,2,.14,3.05.14,14.25,0,22.16-7.64,30.54-15.73,6.88-6.64,14-13.51,25.62-17.8l6.14-2.26-6.14-2.27c-11.63-4.29-18.74-11.16-25.62-17.8-8.38-8.09-16.29-15.73-30.54-15.73C314,35.07,313,35.13,312,35.21ZM300.54,67.13a10.76,10.76,0,0,1-3.85-2.75c-.56-.54-1.18-1.14-1.9-1.71,2.4.35,4,1.8,6.58,4.27l.84.81Zm14.12.29c-3.61-1.33-5.84-3.48-8.2-5.76A27.79,27.79,0,0,0,300.63,57c4.48.54,7.26,3.21,10.94,6.76,1.42,1.37,2.92,2.81,4.61,4.21Zm14.13.3c-5.62-2.07-9.15-5.48-12.56-8.77-3.12-3-6.32-6.1-10.78-7.67,7.06.39,11.18,4.36,16.33,9.32a75.13,75.13,0,0,0,9.15,7.91Zm14.12.29c-7.62-2.81-12.34-7.37-16.91-11.78-4.92-4.75-9.61-9.27-17-10.65h.62c10,0,15.46,5.24,22.33,11.87,4.15,4,8.69,8.38,14.79,12Zm14.13.3c-9.63-3.55-15.55-9.27-21.27-14.79-6.85-6.62-13.34-12.87-24.66-13.37A31.12,31.12,0,0,1,315,39.9c12.3,0,18.87,6.34,27.19,14.37,5.87,5.67,12.4,12,22,16.6-9.57,4.61-16.1,10.92-22,16.59-8.32,8-14.89,14.37-27.19,14.37a31.41,31.41,0,0,1-3.9-.25c11.33-.5,17.82-6.75,24.67-13.36C341.49,82.69,347.41,77,357,73.42L364,70.87Zm-42.38,6,1.52-.56c-1.69,1.4-3.19,2.84-4.61,4.21-3.68,3.56-6.46,6.22-10.94,6.76a27.47,27.47,0,0,0,5.83-4.65C308.82,77.79,311.05,75.64,314.66,74.31Zm-19.87,4.75c.72-.57,1.34-1.17,1.9-1.71a10.76,10.76,0,0,1,3.85-2.75l1.67-.62-.84.81C298.81,77.26,297.19,78.71,294.79,79.06Zm21.44,3.72c3.41-3.29,6.94-6.7,12.56-8.77l2.14-.79a75.13,75.13,0,0,0-9.15,7.91c-5.15,5-9.27,8.93-16.33,9.32C309.91,88.88,313.11,85.8,316.23,82.78ZM326,85.5c4.57-4.41,9.29-9,16.91-11.78l3.86-1.43c-6.1,3.62-10.64,8-14.79,12-6.87,6.64-12.29,11.87-22.33,11.87H309C316.39,94.77,321.08,90.25,326,85.5ZM214.38,13.43c-6.87,6.63-12.3,11.87-22.33,11.87l-.63,0c7.36-1.37,12.06-5.9,17-10.65,4.57-4.41,9.3-9,16.92-11.78l3.86-1.42C223.06,5,218.52,9.43,214.38,13.43Zm-17.32-10,1.51-.56c-1.68,1.4-3.18,2.84-4.6,4.21-3.69,3.56-6.46,6.23-10.94,6.76a27.47,27.47,0,0,0,5.83-4.65C191.22,6.92,193.44,4.77,197.06,3.44ZM177.18,8.2a24,24,0,0,0,1.91-1.71,10.87,10.87,0,0,1,3.84-2.76l1.67-.61-.84.81C181.2,6.4,179.59,7.85,177.18,8.2Zm21.45,3.72c3.41-3.3,6.94-6.7,12.55-8.77l2.14-.79a77.56,77.56,0,0,0-9.15,7.9c-5.14,5-9.26,8.93-16.32,9.33C192.31,18,195.51,14.93,198.63,11.92ZM65.33,67.13a10.76,10.76,0,0,1-3.85-2.75c-.56-.54-1.18-1.14-1.9-1.71,2.4.35,4,1.8,6.58,4.27l.84.81Zm14.12.29c-3.61-1.33-5.84-3.48-8.2-5.76A27.54,27.54,0,0,0,65.42,57c4.48.54,7.26,3.21,10.94,6.76C77.78,65.14,79.28,66.58,81,68Zm14.13.3C88,65.65,84.43,62.24,81,59c-3.12-3-6.31-6.1-10.78-7.67,7.06.39,11.18,4.36,16.33,9.32a75.13,75.13,0,0,0,9.15,7.91ZM107.7,68c-7.62-2.81-12.34-7.37-16.91-11.78-4.92-4.75-9.61-9.27-17-10.65h.62c10,0,15.46,5.24,22.33,11.87,4.15,4,8.69,8.38,14.79,12ZM61.48,77.35a10.76,10.76,0,0,1,3.85-2.75L67,74l-.84.81c-2.56,2.47-4.18,3.92-6.58,4.27C60.3,78.49,60.92,77.89,61.48,77.35Zm9.77,2.72c2.36-2.28,4.59-4.43,8.2-5.76L81,73.75c-1.69,1.4-3.19,2.84-4.61,4.21-3.68,3.56-6.46,6.22-10.94,6.76A27.23,27.23,0,0,0,71.25,80.07ZM81,82.78C84.43,79.49,88,76.08,93.58,74l2.14-.79a75.9,75.9,0,0,0-9.15,7.91c-5.15,5-9.27,8.93-16.33,9.32C74.71,88.88,77.9,85.8,81,82.78Zm-7.2,13.37c7.36-1.38,12.05-5.9,17-10.65,4.57-4.41,9.29-9,16.91-11.78l3.86-1.43c-6.1,3.62-10.64,8-14.79,12C89.9,90.93,84.48,96.16,74.44,96.16Zm2.08,5.43c11.33-.5,17.81-6.75,24.66-13.36,5.72-5.53,11.64-11.25,21.27-14.8l6.94-2.55-6.94-2.56c-9.63-3.55-15.55-9.27-21.27-14.79C93.71,46.9,87.23,40.65,75.9,40.15a31.41,31.41,0,0,1,3.9-.25c12.29,0,18.86,6.34,27.18,14.37,5.87,5.67,12.41,12,22,16.6-9.56,4.61-16.1,10.92-22,16.59-8.32,8-14.89,14.37-27.18,14.37A31.29,31.29,0,0,1,75.9,101.58Zm.84,4.94c1,.08,2,.14,3.06.14C94,106.66,102,99,110.33,90.93c6.88-6.64,14-13.51,25.63-17.8l6.13-2.26L136,68.6c-11.63-4.29-18.75-11.16-25.63-17.8C102,42.71,94,35.07,79.8,35.07c-1,0-2,.06-3.06.14a36.45,36.45,0,0,1,8.41-1c14.56,0,22.66,7.82,32,16.87,7,6.8,14.92,14.41,26.67,19.77-11.75,5.35-19.62,13-26.67,19.76-9.37,9.05-17.47,16.87-32,16.87A36.45,36.45,0,0,1,76.74,106.52Zm-.34,4.23a40.73,40.73,0,0,0,8.75,1c16.25,0,25.33-8.77,34.95-18,8-7.76,16.35-15.79,30-20.82l5.34-2-5.34-2c-13.63-5-22-13.06-30-20.82-9.62-9.28-18.7-18-34.95-18A40.73,40.73,0,0,0,76.4,31a42.08,42.08,0,0,1,14.11-2.42c16.81,0,26.11,9,36.88,19.38,8.22,7.94,17.45,16.85,31.42,22.93-14,6.07-23.2,15-31.42,22.93-10.77,10.39-20.07,19.37-36.88,19.37A42.08,42.08,0,0,1,76.4,110.75Zm53.47-14.39c9.19-8.87,18.7-18,34.34-23.82l4.54-1.67-4.54-1.68c-15.64-5.77-25.15-14.95-34.34-23.82C119,34.89,108.76,25,90.51,25a45.73,45.73,0,0,0-15.67,2.75,47.72,47.72,0,0,1,21-4.85c19.06,0,29.56,10.14,41.72,21.88,9.42,9.09,20,19.31,36.22,26.1C157.6,77.65,147,87.87,137.59,97c-12.16,11.75-22.66,21.89-41.72,21.89a47.69,47.69,0,0,1-21-4.86,45.73,45.73,0,0,0,15.67,2.75C108.76,116.74,119,106.84,129.87,96.36ZM80.7,120.42q-1-.8-2-1.62a50.51,50.51,0,0,0,17.15,3c20.25,0,31.67-11,43.77-22.71,9.86-9.53,21.05-20.33,38.69-26.84l3.75-1.37-3.75-1.38C160.69,63,149.5,52.18,139.64,42.65,127.54,31,116.12,20,95.87,20a50.51,50.51,0,0,0-17.15,3l2-1.62a53.32,53.32,0,0,1,20.52-4.09c21.32,0,33,11.3,46.58,24.38,10.61,10.24,22.56,21.78,41,29.27-18.49,7.48-30.44,19-41,29.26-13.55,13.08-25.26,24.39-46.58,24.39A53.11,53.11,0,0,1,80.7,120.42Zm10.41,7.71c-1.62-1.08-3.19-2.19-4.72-3.31a55.88,55.88,0,0,0,14.83,2c22.26,0,34.27-11.6,48.19-25,11-10.59,23.4-22.59,43.05-29.84l2.94-1.08-2.94-1.09c-19.65-7.25-32.08-19.25-43.05-29.84-13.92-13.44-25.93-25-48.19-25a55.88,55.88,0,0,0-14.83,2c1.53-1.12,3.1-2.23,4.72-3.31a58.92,58.92,0,0,1,15.47-2c23.58,0,36.48,12.45,51.42,26.88,11.81,11.4,25.14,24.27,45.93,32.44C183.14,79,169.81,91.9,158,103.3c-14.94,14.43-27.84,26.89-51.42,26.89A58.93,58.93,0,0,1,91.11,128.13Zm11.94,7.11q-4.06-2.12-7.79-4.43a61.19,61.19,0,0,0,11.32,1.06c24.26,0,37.39-12.68,52.59-27.36,12.08-11.66,25.76-24.87,47.42-32.85l2.14-.79-2.14-.79c-21.66-8-35.34-21.2-47.42-32.86C144,22.54,130.84,9.86,106.58,9.86a61.19,61.19,0,0,0-11.32,1.06Q99,8.63,103.05,6.49a65.05,65.05,0,0,1,8.89-.62c25.83,0,39.94,13.63,56.27,29.4,13,12.55,27.71,26.75,50.82,35.6-23.11,8.84-37.82,23-50.82,35.6-16.33,15.77-30.44,29.39-56.27,29.39A65.05,65.05,0,0,1,103.05,135.24Zm14.13,6.27a121.91,121.91,0,0,1-11.41-4.89q3,.28,6.17.29c26.26,0,40.51-13.75,57-29.68,13.18-12.72,28.11-27.14,51.77-35.87l1.35-.49-1.35-.5c-23.66-8.73-38.59-23.14-51.77-35.87-16.49-15.92-30.74-29.68-57-29.68q-3.12,0-6.17.29A121.91,121.91,0,0,1,117.18.22h.72c27.7.22,42.92,14.9,60.51,31.89,14.21,13.72,30.3,29.25,55.74,38.77-25.44,9.51-41.53,25-55.74,38.76-17.59,17-32.81,31.67-60.51,31.89h-.72ZM235.21,77c22.31,1.85,35.51,14.58,50.6,29.15,13,12.56,27.71,26.76,50.82,35.6-23.11,8.85-37.81,23.05-50.82,35.6-15.09,14.58-28.29,27.31-50.6,29.15-1.83.16-3.71.24-5.67.24a65.17,65.17,0,0,1-8.89-.61q-4.07-2.13-7.79-4.43a61.27,61.27,0,0,0,11.32,1.06,60.62,60.62,0,0,0,11-1c17.56-3.22,28.84-14.1,41.57-26.39,12.07-11.66,25.76-24.87,47.41-32.86l2.14-.79-2.14-.79c-21.66-8-35.34-21.2-47.41-32.85-12.73-12.29-24-23.17-41.57-26.39a60.62,60.62,0,0,0-11-1,61.27,61.27,0,0,0-11.32,1.06q3.73-2.31,7.79-4.43a65.17,65.17,0,0,1,8.89-.62C231.5,76.74,233.38,76.83,235.21,77Zm-11,124.07A59.4,59.4,0,0,1,208.71,199c-1.61-1.09-3.19-2.19-4.72-3.32a55.49,55.49,0,0,0,14.84,2,52.55,52.55,0,0,0,16.38-2.46c12.67-4.1,21.74-12.85,31.8-22.57,11-10.59,23.4-22.6,43.05-29.84l2.95-1.09-2.95-1.08C290.41,133.4,278,121.4,267,110.8c-10.06-9.71-19.13-18.47-31.8-22.57a52.55,52.55,0,0,0-16.38-2.46,55.9,55.9,0,0,0-14.84,2c1.53-1.12,3.11-2.23,4.72-3.32a59.4,59.4,0,0,1,15.47-2,58.78,58.78,0,0,1,11,1c16.93,3.24,28,13.87,40.4,25.88,11.8,11.4,25.13,24.27,45.92,32.43-20.79,8.17-34.12,21-45.92,32.44-12.44,12-23.47,22.64-40.4,25.87A58.78,58.78,0,0,1,224.18,201.05Zm11-22.88a137,137,0,0,0,12.26-10.94c9.2-8.88,18.7-18.06,34.34-23.82l4.54-1.68-4.54-1.67c-15.64-5.77-25.14-15-34.34-23.83a138.6,138.6,0,0,0-12.26-10.94c-7.3-5.51-15.61-9.44-27.1-9.44a45.72,45.72,0,0,0-15.66,2.76,47.65,47.65,0,0,1,21-4.86,43,43,0,0,1,21.74,5.54c7.26,4.06,13.38,10,20,16.34,9.41,9.09,20,19.32,36.21,26.1-16.21,6.79-26.8,17-36.21,26.1-6.61,6.38-12.73,12.28-20,16.34a43,43,0,0,1-21.74,5.54,47.65,47.65,0,0,1-21-4.86,45.45,45.45,0,0,0,15.66,2.76C219.6,187.61,227.91,183.69,235.21,178.17Zm0-11.26q1.24-1.18,2.49-2.4c8-7.76,16.35-15.78,30-20.81l5.33-2-5.33-2c-13.64-5-21.95-13-30-20.81l-2.49-2.4c-8.75-8.34-17.61-15.65-32.45-15.65a41.3,41.3,0,0,0-8.75.94,42.22,42.22,0,0,1,14.1-2.42c11.64,0,19.68,4.31,27.1,10.41,3.29,2.71,6.47,5.77,9.78,9,8.23,7.94,17.46,16.85,31.42,22.93-14,6.08-23.19,15-31.42,22.93-3.31,3.2-6.49,6.27-9.78,9-7.42,6.1-15.46,10.4-27.1,10.4a42,42,0,0,1-14.1-2.42,40.66,40.66,0,0,0,8.75.95C217.6,182.57,226.46,175.25,235.21,166.91Zm-7.28-5.11c2.34-2.26,4.71-4.55,7.28-6.75A58.55,58.55,0,0,1,253.56,144l6.14-2.27-6.14-2.26a58.55,58.55,0,0,1-18.35-11.05c-2.57-2.21-4.94-4.49-7.28-6.75-8.37-8.09-16.29-15.73-30.53-15.73-1,0-2.05,0-3.06.14a36.54,36.54,0,0,1,8.42-1c14.55,0,22.65,7.82,32,16.88l.42.4c6.94,6.7,14.73,14.11,26.24,19.36-11.51,5.25-19.3,12.66-26.24,19.36l-.42.41c-9.38,9.05-17.48,16.87-32,16.87a36.94,36.94,0,0,1-8.41-1c1,.08,2,.13,3.05.13C211.65,177.52,219.56,169.89,227.93,161.8Zm-30.87-16.63,1.51-.56c-1.68,1.4-3.18,2.84-4.6,4.22-3.69,3.55-6.46,6.22-10.94,6.76a27.51,27.51,0,0,0,5.83-4.66C191.22,148.66,193.44,146.5,197.06,145.17Zm-19.88,4.76a24,24,0,0,0,1.91-1.71,10.72,10.72,0,0,1,3.84-2.75l1.67-.62-.84.81C181.2,148.13,179.59,149.58,177.18,149.93Zm21.45,3.72c3.41-3.29,6.94-6.7,12.55-8.77l2.14-.79a77.56,77.56,0,0,0-9.15,7.9c-5.14,5-9.26,8.94-16.32,9.33C192.31,159.74,195.51,156.66,198.63,153.65Zm9.76,2.72c4.57-4.41,9.3-9,16.92-11.79l3.86-1.42c-6.11,3.62-10.65,8-14.79,12-6.87,6.63-12.3,11.87-22.33,11.87l-.63,0C198.78,165.64,203.48,161.12,208.39,156.37Zm-11.33-18.08c-3.62-1.33-5.84-3.48-8.2-5.76a27.47,27.47,0,0,0-5.83-4.65c4.48.53,7.25,3.2,10.94,6.76,1.42,1.37,2.92,2.81,4.6,4.21Zm-12.46.32-1.67-.61a11,11,0,0,1-3.84-2.75,24,24,0,0,0-1.91-1.72c2.41.35,4,1.8,6.58,4.28Zm26.58,0c-5.61-2.08-9.14-5.48-12.55-8.78-3.12-3-6.32-6.09-10.78-7.67,7.06.4,11.18,4.36,16.32,9.33a77.6,77.6,0,0,0,9.15,7.91Zm14.13.29c-7.62-2.81-12.35-7.37-16.92-11.78-4.91-4.75-9.61-9.28-17-10.65l.63,0c10,0,15.46,5.24,22.33,11.87,4.14,4,8.68,8.39,14.79,12Zm-7.15,20.2c4.84-4.66,9.82-9.46,17.05-13a45.37,45.37,0,0,1,4.22-1.81l6.94-2.56-6.94-2.56a45.37,45.37,0,0,1-4.22-1.81c-7.23-3.51-12.21-8.31-17.05-13-6.84-6.61-13.33-12.87-24.66-13.36a31.41,31.41,0,0,1,3.9-.26c12.3,0,18.87,6.35,27.18,14.38a128.63,128.63,0,0,0,10.63,9.49,62.78,62.78,0,0,0,11.35,7.1,62.78,62.78,0,0,0-11.35,7.1,128.67,128.67,0,0,0-10.63,9.5c-8.31,8-14.88,14.37-27.18,14.37a31.41,31.41,0,0,1-3.9-.25C204.83,172,211.32,165.69,218.16,159.08Zm-4.69,33.57a46,46,0,0,0,21.74-5.17c8.33-4.31,15.07-10.81,22-17.53,9.87-9.53,21.05-20.33,38.7-26.84l3.74-1.38-3.74-1.38c-17.65-6.5-28.83-17.3-38.7-26.83-7-6.72-13.7-13.23-22-17.54a46,46,0,0,0-21.74-5.17,50.79,50.79,0,0,0-17.15,3l2-1.62a53.37,53.37,0,0,1,20.53-4.09,49.58,49.58,0,0,1,16.38,2.62c11.87,4.08,20.57,12.47,30.19,21.77C276,122.71,288,134.25,306.46,141.73,288,149.21,276,160.76,265.4,171c-9.62,9.29-18.32,17.68-30.19,21.76a49.58,49.58,0,0,1-16.38,2.62,53.37,53.37,0,0,1-20.53-4.09l-2-1.62A50.55,50.55,0,0,0,213.47,192.65ZM65.33,208.86a10.76,10.76,0,0,1-3.85-2.75c-.56-.54-1.18-1.14-1.9-1.71,2.4.35,4,1.8,6.58,4.27l.84.81Zm14.12.3c-3.61-1.33-5.84-3.49-8.2-5.76a27.23,27.23,0,0,0-5.83-4.65c4.48.53,7.26,3.2,10.94,6.75,1.42,1.38,2.92,2.82,4.61,4.22Zm14.13.29C88,207.38,84.43,204,81,200.68c-3.12-3-6.31-6.09-10.78-7.67,7.06.39,11.18,4.36,16.33,9.33a76,76,0,0,0,9.15,7.9Zm14.12.3c-7.62-2.81-12.34-7.37-16.91-11.79-4.92-4.75-9.61-9.27-17-10.64l.62,0c10,0,15.46,5.24,22.33,11.87,4.15,4,8.69,8.38,14.79,12Zm-46.22,9.33a11,11,0,0,1,3.85-2.75l1.67-.61-.84.81C63.6,219,62,220.45,59.58,220.8,60.3,220.23,60.92,219.62,61.48,219.08Zm9.77,2.72c2.36-2.28,4.59-4.43,8.2-5.76l1.52-.56c-1.69,1.4-3.19,2.84-4.61,4.21-3.68,3.56-6.46,6.23-10.94,6.76A27.23,27.23,0,0,0,71.25,221.8ZM81,224.52c3.41-3.3,6.94-6.7,12.56-8.78l2.14-.79a77.72,77.72,0,0,0-9.15,7.91c-5.15,5-9.27,8.93-16.33,9.33C74.71,230.61,77.9,227.53,81,224.52Zm-7.2,13.36c7.36-1.37,12.05-5.9,17-10.65,4.57-4.41,9.29-9,16.91-11.78l3.86-1.42c-6.1,3.61-10.64,8-14.79,12-6.87,6.63-12.29,11.87-22.33,11.87Zm2.08,5.43c11.33-.49,17.81-6.75,24.66-13.36,5.72-5.53,11.64-11.24,21.27-14.79l6.94-2.56L121.83,210c-9.63-3.55-15.55-9.26-21.27-14.79-6.85-6.61-13.33-12.87-24.66-13.37a31.41,31.41,0,0,1,3.9-.25C92.09,181.63,98.66,188,107,196c5.87,5.67,12.41,12,22,16.6-9.56,4.61-16.1,10.92-22,16.59-8.32,8-14.89,14.38-27.18,14.38A31.28,31.28,0,0,1,75.9,243.31Zm.84,4.94c1,.09,2,.14,3.06.14,14.24,0,22.15-7.64,30.53-15.73,6.88-6.64,14-13.51,25.63-17.8l6.13-2.26L136,210.34c-11.63-4.29-18.75-11.16-25.63-17.81C102,184.44,94,176.81,79.8,176.81c-1,0-2,.05-3.06.14a36.46,36.46,0,0,1,8.41-1c14.56,0,22.66,7.82,32,16.87,7,6.81,14.92,14.41,26.67,19.77-11.75,5.36-19.62,13-26.67,19.76-9.37,9.06-17.47,16.88-32,16.88A36.46,36.46,0,0,1,76.74,248.25Zm-.34,4.24a41.37,41.37,0,0,0,8.75.94c16.25,0,25.33-8.77,34.95-18.05,8-7.76,16.35-15.78,30-20.81l5.34-2-5.34-2c-13.63-5-22-13-30-20.81-9.62-9.29-18.7-18.06-34.95-18.06a40.73,40.73,0,0,0-8.75,1,42.08,42.08,0,0,1,14.11-2.42c16.81,0,26.11,9,36.88,19.38,8.22,7.94,17.45,16.85,31.42,22.93-14,6.08-23.2,15-31.42,22.93-10.77,10.4-20.07,19.38-36.88,19.38A42.33,42.33,0,0,1,76.4,252.49Zm53.47-14.39c9.19-8.88,18.7-18.06,34.34-23.83l4.54-1.67-4.54-1.68c-15.64-5.76-25.15-14.94-34.34-23.82-10.86-10.48-21.11-20.38-39.36-20.38a45.74,45.74,0,0,0-15.67,2.76,47.72,47.72,0,0,1,21-4.86c19.06,0,29.56,10.14,41.72,21.88,9.42,9.09,20,19.31,36.22,26.1-16.21,6.78-26.8,17-36.22,26.1-12.16,11.74-22.66,21.88-41.72,21.88a47.69,47.69,0,0,1-21-4.86,45.74,45.74,0,0,0,15.67,2.76C108.76,258.48,119,248.58,129.87,238.1ZM80.7,262.16l-2-1.62a50.75,50.75,0,0,0,17.15,3c20.25,0,31.67-11,43.77-22.71,9.86-9.53,21.05-20.32,38.69-26.83l3.75-1.38-3.75-1.38c-17.64-6.51-28.83-17.31-38.69-26.84-12.1-11.67-23.52-22.7-43.77-22.7a50.75,50.75,0,0,0-17.15,3l2-1.62A53.32,53.32,0,0,1,101.22,159c21.32,0,33,11.3,46.58,24.38,10.61,10.24,22.56,21.79,41,29.27-18.49,7.48-30.44,19-41,29.26-13.55,13.09-25.26,24.39-46.58,24.39A53.29,53.29,0,0,1,80.7,262.16Zm10.41,7.71q-2.43-1.64-4.72-3.32a55.88,55.88,0,0,0,14.83,2c22.26,0,34.27-11.6,48.19-25,11-10.59,23.4-22.6,43.05-29.85l2.94-1.08-2.94-1.09c-19.65-7.24-32.08-19.25-43.05-29.84-13.92-13.43-25.93-25-48.19-25a55.47,55.47,0,0,0-14.83,2c1.53-1.13,3.1-2.23,4.72-3.32a59.34,59.34,0,0,1,15.47-2.05c23.58,0,36.48,12.46,51.42,26.89,11.81,11.39,25.14,24.26,45.93,32.43-20.79,8.16-34.12,21-45.93,32.43-14.94,14.43-27.84,26.89-51.42,26.89A59.34,59.34,0,0,1,91.11,269.87Zm11.94,7.1q-4.06-2.12-7.79-4.43a61.19,61.19,0,0,0,11.32,1.06c24.26,0,37.39-12.68,52.59-27.36,12.08-11.65,25.76-24.86,47.42-32.85l2.14-.79-2.14-.79c-21.66-8-35.34-21.2-47.42-32.86-15.2-14.68-28.33-27.36-52.59-27.36a61.19,61.19,0,0,0-11.32,1.06q3.72-2.29,7.79-4.43a65.06,65.06,0,0,1,8.89-.61c25.83,0,39.94,13.62,56.27,29.39,13,12.55,27.71,26.75,50.82,35.6-23.11,8.84-37.82,23-50.82,35.6-16.33,15.77-30.44,29.39-56.27,29.39A65.05,65.05,0,0,1,103.05,277ZM214.38,270c4.14,4,8.68,8.38,14.79,12l-3.86-1.43c-7.62-2.81-12.35-7.37-16.92-11.78-4.91-4.75-9.61-9.27-17-10.65h.63C202.08,258.17,207.51,263.4,214.38,270Zm-17.32,10c-3.62-1.33-5.84-3.48-8.2-5.76a27.47,27.47,0,0,0-5.83-4.65c4.48.54,7.25,3.21,10.94,6.76,1.42,1.37,2.92,2.81,4.6,4.21Zm-12.46.33-1.67-.62a10.72,10.72,0,0,1-3.84-2.75c-.56-.54-1.18-1.14-1.91-1.72,2.41.36,4,1.81,6.58,4.28Zm26.58,0c-5.61-2.07-9.14-5.48-12.55-8.77-3.12-3-6.32-6.1-10.78-7.67,7.06.39,11.18,4.36,16.32,9.32a76.68,76.68,0,0,0,9.15,7.91Zm-32.77-28.95c-17.59,17-32.81,31.67-60.51,31.88h-.72a119.3,119.3,0,0,1-11.41-4.88q3,.28,6.17.29c26.26,0,40.51-13.76,57-29.69,13.18-12.72,28.11-27.14,51.77-35.87l1.35-.49-1.35-.5c-23.66-8.72-38.59-23.14-51.77-35.86-16.49-15.93-30.74-29.69-57-29.69q-3.12,0-6.17.29A119.3,119.3,0,0,1,117.18,142h.72c27.7.21,42.92,14.89,60.51,31.88,14.21,13.72,30.3,29.25,55.74,38.77C208.71,222.11,192.62,237.65,178.41,251.37Zm56.37-39a123.06,123.06,0,0,1-11.41-4.89c2,.19,4.09.29,6.17.29s3.84-.08,5.67-.23c22.72-1.84,36.07-14.71,51.34-29.46,13.17-12.72,28.11-27.14,51.77-35.86l1.34-.5-1.34-.49c-23.66-8.73-38.6-23.15-51.77-35.87-15.27-14.74-28.62-27.62-51.34-29.45-1.83-.15-3.71-.24-5.67-.24s-4.13.11-6.17.29a121.89,121.89,0,0,1,11.41-4.88h.72C263.2,71.29,278.42,86,296,103c14.21,13.72,30.3,29.26,55.73,38.77-25.43,9.52-41.52,25.05-55.73,38.77-17.6,17-32.82,31.67-60.52,31.88h-.72Zm79.88-3.22c-3.61-1.33-5.84-3.49-8.2-5.76a27.47,27.47,0,0,0-5.83-4.65c4.48.53,7.26,3.2,10.94,6.75,1.42,1.38,2.92,2.82,4.61,4.22Zm-12.45.32-1.67-.62a10.76,10.76,0,0,1-3.85-2.75c-.56-.54-1.18-1.14-1.9-1.71,2.4.35,4,1.8,6.58,4.27Zm26.58,0c-5.62-2.07-9.15-5.48-12.56-8.77-3.12-3-6.32-6.09-10.78-7.67,7.06.39,11.18,4.36,16.33,9.33a76,76,0,0,0,9.15,7.9Zm14.12.3c-7.62-2.81-12.34-7.37-16.91-11.79-4.92-4.75-9.61-9.27-17-10.64l.62,0c10,0,15.46,5.24,22.33,11.87,4.15,4,8.69,8.38,14.79,12Zm-46.22,9.33a11,11,0,0,1,3.85-2.75l1.67-.61-.84.81c-2.56,2.47-4.18,3.92-6.58,4.27C295.51,220.23,296.13,219.62,296.69,219.08Zm9.77,2.72c2.36-2.28,4.59-4.43,8.2-5.76l1.52-.56c-1.69,1.4-3.19,2.84-4.61,4.21-3.68,3.56-6.46,6.23-10.94,6.76A27.47,27.47,0,0,0,306.46,221.8Zm9.77,2.72c3.41-3.3,6.94-6.7,12.56-8.78l2.14-.79a76.91,76.91,0,0,0-9.15,7.91c-5.15,5-9.27,8.93-16.33,9.33C309.91,230.61,313.11,227.53,316.23,224.52ZM309,237.88c7.36-1.37,12.05-5.9,17-10.65,4.57-4.41,9.29-9,16.91-11.78l3.86-1.42c-6.1,3.61-10.64,8-14.79,12-6.87,6.63-12.29,11.87-22.33,11.87Zm2.07,5.43c11.33-.49,17.82-6.75,24.67-13.36,5.72-5.53,11.64-11.24,21.27-14.79L364,212.6,357,210c-9.63-3.55-15.55-9.26-21.27-14.79-6.85-6.61-13.34-12.87-24.66-13.37a31.12,31.12,0,0,1,3.89-.25c12.3,0,18.87,6.34,27.19,14.37,5.87,5.67,12.4,12,22,16.6-9.57,4.61-16.1,10.92-22,16.59-8.32,8-14.89,14.38-27.19,14.38A31.41,31.41,0,0,1,311.1,243.31Z" transform="translate(0 0)" />
    <path class="cls-1" d="M89,.79,91.13,0H86.32C65.53,8.17,52.2,21,40.4,32.43,28,44.44,16.94,55.08,0,58.31V60c17.56-3.22,28.84-14.11,41.57-26.4C53.64,22,67.33,8.78,89,.79Z" transform="translate(0 0)" />
    <path class="cls-1" d="M103.11.5l1.34-.5h-3C78.32,8.84,63.61,23,50.61,35.6,35.51,50.18,22.31,62.91,0,64.75v1.06C22.72,64,36.07,51.1,51.34,36.36,64.52,23.64,79.45,9.22,103.11.5Z" transform="translate(0 0)" />
    <path class="cls-1" d="M60.73,1.38,64.47,0H56.21C40,6.79,29.4,17,20,26.1,13.38,32.48,7.26,38.38,0,42.44v3.31c8.33-4.31,15.07-10.82,22-17.54C31.9,18.69,43.08,7.89,60.73,1.38Z" transform="translate(0 0)" />
    <path class="cls-1" d="M46.6,1.67,51.14,0H41.2C27.24,6.08,18,15,9.78,22.93c-3.31,3.2-6.48,6.26-9.78,9v4.54A137.2,137.2,0,0,0,12.26,25.5C21.46,16.62,31,7.44,46.6,1.67Z" transform="translate(0 0)" />
    <path class="cls-1" d="M74.86,1.08,77.8,0H71.25C52.76,7.48,40.8,19,30.2,29.26,20.57,38.56,11.87,47,0,51V53.5c12.67-4.1,21.74-12.86,31.8-22.57C42.77,20.34,55.21,8.33,74.86,1.08Z" transform="translate(0 0)" />
    <path class="cls-1" d="M24.49,141.73l-6.14-2.26A58.55,58.55,0,0,1,0,128.42v6.21a63.13,63.13,0,0,0,11.35,7.1A63.13,63.13,0,0,0,0,148.83v6.22A58.55,58.55,0,0,1,18.35,144Z" transform="translate(0 0)" />
    <path class="cls-1" d="M11.16,141.73l-6.93-2.56A44.45,44.45,0,0,1,0,137.36v8.74a44.45,44.45,0,0,1,4.23-1.81Z" transform="translate(0 0)" />
    <path class="cls-1" d="M0,279.1v4.36H11.16l-6.93-2.55A44.45,44.45,0,0,1,0,279.1Z" transform="translate(0 0)" />
    <path class="cls-1" d="M11.16,0H0V4.37A44.45,44.45,0,0,1,4.23,2.56Z" transform="translate(0 0)" />
    <path class="cls-1" d="M24.49,0H11.35A63.13,63.13,0,0,0,0,7.1v6.22A58.57,58.57,0,0,1,18.35,2.26Z" transform="translate(0 0)" />
    <path class="cls-1" d="M32.48,2l5.34-2H26.24C14.73,5.25,6.94,12.66,0,19.36v5.82Q1.24,24,2.49,22.78C10.53,15,18.84,7,32.48,2Z" transform="translate(0 0)" />
    <path class="cls-1" d="M0,270.15v6.22a63.67,63.67,0,0,0,11.35,7.09H24.49l-6.14-2.26A58.55,58.55,0,0,1,0,270.15Z" transform="translate(0 0)" />
    <path class="cls-1" d="M2.49,260.68,0,258.29v5.82c6.94,6.69,14.73,14.1,26.24,19.35H37.82l-5.34-2C18.84,276.47,10.53,268.44,2.49,260.68Z" transform="translate(0 0)" />
    <path class="cls-1" d="M12.26,258A135.66,135.66,0,0,0,0,247v4.53c3.3,2.71,6.47,5.77,9.78,9,8.23,8,17.46,16.86,31.42,22.93h9.94l-4.54-1.67C31,276,21.46,266.84,12.26,258Z" transform="translate(0 0)" />
    <path class="cls-1" d="M41.57,249.82c-12.73-12.29-24-23.17-41.57-26.39v1.73C16.94,228.39,28,239,40.4,251c11.8,11.4,25.13,24.27,45.92,32.43h4.81L89,282.67C67.33,274.69,53.64,261.48,41.57,249.82Z" transform="translate(0 0)" />
    <path class="cls-1" d="M31.8,252.54C21.74,242.82,12.67,234.07,0,230v2.47c11.87,4.08,20.57,12.47,30.19,21.77C40.8,264.44,52.76,276,71.25,283.46H77.8l-2.94-1.08C55.21,275.13,42.77,263.13,31.8,252.54Z" transform="translate(0 0)" />
    <path class="cls-1" d="M22,255.25c-7-6.72-13.7-13.22-22-17.54V241c7.26,4.07,13.38,10,20,16.35,9.41,9.09,20,19.31,36.22,26.09h8.26l-3.74-1.38C43.08,275.58,31.9,264.78,22,255.25Z" transform="translate(0 0)" />
    <path class="cls-1" d="M103.11,142.23l1.34-.5-1.34-.49c-23.66-8.73-38.59-23.15-51.77-35.87C36.07,90.63,22.72,77.75,0,75.92V77c22.31,1.85,35.51,14.58,50.6,29.15,13,12.56,27.72,26.76,50.82,35.6-23.1,8.85-37.81,23.05-50.81,35.6C35.51,191.91,22.31,204.64,0,206.48v1.07c22.72-1.84,36.07-14.71,51.34-29.46C64.52,165.37,79.45,151,103.11,142.23Z" transform="translate(0 0)" />
    <path class="cls-1" d="M51.34,247.1C36.07,232.36,22.72,219.49,0,217.65v1.06c22.31,1.85,35.51,14.58,50.6,29.15,13,12.56,27.72,26.76,50.82,35.6h3l-1.34-.49C79.45,274.24,64.52,259.83,51.34,247.1Z" transform="translate(0 0)" />
    <path class="cls-1" d="M74.86,142.82l2.94-1.09-2.94-1.08C55.21,133.4,42.77,121.4,31.8,110.8,21.74,101.09,12.67,92.33,0,88.23V90.7c11.87,4.08,20.57,12.47,30.19,21.77,10.61,10.24,22.57,21.78,41.06,29.26-18.49,7.48-30.45,19-41,29.27-9.63,9.29-18.33,17.68-30.2,21.76v2.47c12.67-4.1,21.74-12.85,31.8-22.57C42.77,162.07,55.21,150.06,74.86,142.82Z" transform="translate(0 0)" />
    <path class="cls-1" d="M32.48,143.7l5.34-2-5.34-2c-13.64-5-21.95-13-30-20.81L0,116.55v5.82c6.94,6.7,14.73,14.11,26.24,19.36C14.73,147,6.94,154.39,0,161.09v5.82q1.24-1.18,2.49-2.4C10.53,156.75,18.84,148.73,32.48,143.7Z" transform="translate(0 0)" />
    <path class="cls-1" d="M89,142.52l2.15-.79L89,140.94c-21.65-8-35.34-21.2-47.41-32.85C28.84,95.8,17.56,84.92,0,81.7v1.72c16.94,3.24,28,13.87,40.4,25.88,11.8,11.4,25.13,24.27,45.92,32.43-20.79,8.17-34.12,21-45.92,32.44C28,186.17,16.94,196.81,0,200v1.73c17.56-3.22,28.84-14.1,41.57-26.39C53.64,163.72,67.33,150.51,89,142.52Z" transform="translate(0 0)" />
    <path class="cls-1" d="M60.73,143.11l3.74-1.38-3.74-1.38c-17.65-6.5-28.83-17.3-38.7-26.83-7-6.72-13.7-13.23-22-17.54v3.31c7.26,4.06,13.38,10,20,16.34,9.41,9.09,20,19.32,36.22,26.1C40,148.52,29.4,158.74,20,167.83c-6.61,6.38-12.73,12.28-20,16.34v3.31c8.33-4.31,15.07-10.81,22-17.53C31.9,160.42,43.08,149.62,60.73,143.11Z" transform="translate(0 0)" />
    <path class="cls-1" d="M46.6,143.41l4.54-1.68-4.54-1.67c-15.64-5.77-25.14-15-34.34-23.83A137.2,137.2,0,0,0,0,105.29v4.54c3.3,2.71,6.47,5.77,9.78,9,8.23,7.94,17.46,16.85,31.42,22.93-14,6.08-23.19,15-31.42,22.93-3.31,3.2-6.48,6.27-9.78,9v4.53a135.66,135.66,0,0,0,12.26-10.94C21.46,158.35,31,149.17,46.6,143.41Z" transform="translate(0 0)" />
</svg>