<?xml version="1.0" encoding="utf-8"?>
<!-- Generator: Adobe Illustrator 24.1.0, SVG Export Plug-In . SVG Version: 6.00 Build 0)  -->
<svg version="1.1" id="Layer_1" xmlns="http://www.w3.org/2000/svg" xmlns:xlink="http://www.w3.org/1999/xlink" x="0px" y="0px"
	 viewBox="0 0 295.3 218.3" style="enable-background:new 0 0 295.3 218.3;" xml:space="preserve">
<style type="text/css">
	.st0{fill:#C09D5D;}
	.st1{fill:#3C3C3B;}
</style>
<path class="st0" d="M90.8,195.1v0.6c0,0.1-0.1,0.2-0.2,0.2h-9.4c-0.1,0-0.2-0.1-0.2-0.2V180c0-0.4,0-0.6-0.1-0.8
	c0-0.1,0-0.2,0.2-0.2h0.6c0.3,0,0.4,0.1,0.4,0.4v15.5h8.4C90.8,194.8,90.8,194.9,90.8,195.1"/>
<path class="st0" d="M114.5,195c4.2,0,7.6-3.3,7.6-7.5c0-4.2-3.4-7.5-7.6-7.5c-4.2,0-7.7,3.3-7.7,7.5
	C106.8,191.6,110.3,195,114.5,195 M114.5,196.1c-4.9,0-8.8-3.8-8.8-8.6c0-4.8,3.9-8.6,8.8-8.6c4.8,0,8.8,3.8,8.8,8.6
	C123.3,192.3,119.3,196.1,114.5,196.1"/>
<path class="st0" d="M149.6,178.9c0.2,0,0.2,0,0.2,0.2v10.5c0,3.3-2.6,6.4-6.8,6.4c-4.2,0-6.6-3.1-6.7-6.4v-10.5
	c0-0.2,0.1-0.2,0.2-0.2h0.7c0.2,0,0.2,0,0.2,0.2v10.2c0,4.1,3.1,5.6,5.5,5.6c2.4,0,5.6-1.5,5.6-5.6v-10.2c0-0.2,0-0.2,0.2-0.2H149.6
	z"/>
<path class="st0" d="M178.9,179.1v16.7c0,0.1-0.1,0.2-0.2,0.2h-0.3c-0.2,0-0.4-0.1-0.7-0.4l-12.2-14.6v14.8c0,0.1-0.1,0.2-0.2,0.2
	h-0.7c-0.2,0-0.2-0.1-0.2-0.2v-16.6c0-0.1,0.1-0.2,0.2-0.2h0.5c0.1,0,0.2,0.1,0.3,0.2l12.4,14.8v-14.8c0-0.1,0-0.2,0.2-0.2h0.8
	C178.9,178.9,178.9,179,178.9,179.1"/>
<path class="st0" d="M207.8,193.2c0,0.1-0.1,0.3-0.2,0.4c-1.6,1.5-3.6,2.4-6.1,2.4c-4.8,0-8.8-3.8-8.8-8.6c0-4.8,3.9-8.7,8.8-8.7
	c2.4,0,4.6,0.9,6.1,2.4c0.2,0.2,0.2,0.3,0.1,0.4l-0.6,0.5c-0.1,0.1-0.2,0.1-0.3,0c-0.9-0.9-2.8-2.2-5.2-2.2c-5.2,0-7.8,4.2-7.8,7.6
	c0,3.5,2.6,7.5,7.8,7.5c2.3,0,4-1.1,5-2v-2.3h-5c-0.2,0-0.2,0-0.2-0.2v-0.6c0-0.2,0.1-0.2,0.2-0.2h5.9c0.2,0,0.2,0,0.2,0.2V193.2z"
	/>
<path class="st0" d="M224.4,180v7h6.3c0.2,0,0.2,0.1,0.2,0.3v0.6c0,0.2-0.1,0.2-0.2,0.2h-6.3v6.8h9.9c0.2,0,0.2,0.1,0.2,0.3v0.6
	c0,0.2-0.1,0.2-0.2,0.2h-10.8c-0.2,0-0.2-0.1-0.2-0.2v-16.6c0-0.1,0.1-0.2,0.2-0.2h10.8c0.2,0,0.2,0.1,0.2,0.2v0.7
	c0,0.1-0.1,0.2-0.2,0.2H224.4z"/>
<path class="st0" d="M185.1,54.6c-0.5,1-1.4,2-2.7,3c-0.6,0.5-1.4,0.9-2.2,1.4c-0.5-1.7-1.3-3.5-2.3-5.2c-0.2-0.4-0.3-0.9-0.5-1.3
	c0.4-0.3,0.7-0.6,1.1-0.9c0.6-0.4,1.3-0.7,1.9-1.2c1-0.7,1.9-1.4,2.7-2.2c0,0,0,0,0,0c1.4,2.3,2,4.3,2,5.9
	C185.2,54.3,185.2,54.4,185.1,54.6 M176.5,69.5c-1.3,0.9-3.2,1.4-5.8,1.4c-0.2,0-0.4,0-0.7,0c0.4-1.7,0.6-3.5,0.6-5.4
	c0-0.1,0-0.1,0-0.2c0.1-0.4,0.2-0.9,0.2-1.3c0.5-0.1,0.9-0.2,1.3-0.2c0.1,0,0.2,0,0.2,0c1.9,0,3.7-0.2,5.4-0.6c0,0.2,0,0.4,0,0.6
	C177.9,66.3,177.3,68.2,176.5,69.5 M167.1,70.6c-1.8-0.3-3.8-0.7-6-1.4c-0.4-0.2-0.7-0.5-1.1-0.7c0.9-2.2,1.6-4.6,1.9-6.9
	c2.2,0.9,4.6,1.5,7,1.9c0,0.5,0.1,0.9,0.1,1.4C168.3,67.1,167.7,69,167.1,70.6 M164.4,75.5c-1,1.3-2,2.1-3,2.7c-0.1,0-0.2,0-0.4,0
	c-1.6,0-3.6-0.6-5.9-2c0,0,0,0,0,0c1.2-1.3,2.4-2.9,3.4-4.6c0.3-0.3,0.6-0.7,0.9-1c0.4,0.1,0.9,0.3,1.3,0.4c1.7,1,3.5,1.8,5.2,2.3
	C165.4,74.1,164.9,74.9,164.4,75.5 M152.7,74.4c-1.4-1.1-2.9-2.5-4.5-4.2c-0.2-0.3-0.3-0.6-0.5-0.9c-0.1-0.1-0.1-0.2-0.2-0.4
	c0.4-0.3,0.8-0.6,1.2-1c1.4-1.2,2.8-2.6,3.9-4.1c1.1,1.5,2.4,2.9,3.9,4.1c0.4,0.3,0.8,0.6,1.2,1c-0.2,0.4-0.4,0.8-0.6,1.2
	C155.6,72,154.1,73.3,152.7,74.4 M150.3,76.2c-2.3,1.4-4.3,2-5.9,2c-0.1,0-0.2,0-0.4,0c-1-0.5-2-1.4-3-2.7c-0.5-0.6-1-1.4-1.4-2.2
	c1.8-0.5,3.5-1.3,5.2-2.3c0.4-0.2,0.9-0.3,1.3-0.5c0.3,0.4,0.6,0.7,0.9,1.1c0.4,0.6,0.8,1.3,1.2,1.9
	C148.8,74.4,149.5,75.3,150.3,76.2C150.3,76.2,150.3,76.2,150.3,76.2 M138.3,70.6c-0.6-1.6-1.2-3.6-1.8-5.8c0-0.5,0-0.9,0.1-1.4
	c2.4-0.3,4.8-0.9,7-1.9c0.3,2.3,0.9,4.7,1.8,6.9c-0.4,0.3-0.7,0.5-1.1,0.7C142.1,69.9,140.1,70.4,138.3,70.6 M134.7,70.9
	c-2.6,0-4.5-0.5-5.8-1.4c-0.9-1.3-1.4-3.2-1.4-5.8c0-0.2,0-0.4,0-0.7c1.7,0.4,3.6,0.6,5.4,0.6c0.1,0,0.1,0,0.2,0
	c0.4,0.1,0.9,0.2,1.4,0.2c0.1,0.5,0.2,0.9,0.2,1.3c0,0.1,0,0.2,0,0.2c0,1.9,0.2,3.7,0.6,5.4C135.2,70.9,134.9,70.9,134.7,70.9
	 M125.1,59c-0.9-0.5-1.6-0.9-2.2-1.4c-1.3-1-2.1-2-2.7-3c0-0.1,0-0.2,0-0.4c0-1.6,0.6-3.6,2-5.9c0,0,0,0,0,0
	c1.3,1.2,2.9,2.4,4.6,3.3c0.3,0.3,0.7,0.6,1,0.9c-0.2,0.4-0.3,0.9-0.5,1.3C126.4,55.5,125.7,57.2,125.1,59 M120.2,37.6
	c0-0.1,0-0.2,0-0.4c0.5-1,1.4-2,2.7-3c0.6-0.5,1.4-0.9,2.2-1.4c0.5,1.7,1.3,3.5,2.3,5.2c0.2,0.4,0.3,0.9,0.5,1.3
	c-0.4,0.3-0.7,0.6-1.1,0.9c-0.6,0.4-1.3,0.7-1.9,1.2c-1,0.7-1.9,1.4-2.7,2.2c0,0,0,0,0,0C120.8,41.2,120.2,39.2,120.2,37.6
	 M128.9,22.3c1.3-0.9,3.2-1.4,5.8-1.4c0.2,0,0.4,0,0.7,0c-0.4,1.7-0.6,3.5-0.6,5.4c0,0.1,0,0.2,0,0.2c-0.1,0.4-0.2,0.9-0.3,1.3
	c-0.5,0.1-0.9,0.2-1.3,0.2c-0.1,0-0.2,0-0.2,0c-1.9,0-3.7,0.2-5.4,0.6c0-0.2,0-0.4,0-0.6C127.5,25.5,128,23.6,128.9,22.3
	 M138.3,21.2c1.8,0.3,3.8,0.7,6,1.4c0.4,0.2,0.7,0.5,1.1,0.7c-0.9,2.2-1.6,4.6-1.9,6.9c-2.2-0.9-4.6-1.5-7-1.9
	c0-0.5-0.1-0.9-0.1-1.4C137.1,24.8,137.6,22.8,138.3,21.2 M140.9,16.3c1-1.3,2-2.1,3-2.7c0.1,0,0.2,0,0.4,0c1.6,0,3.6,0.6,5.9,2
	c0,0,0,0,0,0c-1.3,1.3-2.4,2.9-3.4,4.6c-0.3,0.3-0.6,0.7-0.9,1c-0.4-0.1-0.9-0.3-1.3-0.4c-1.7-1-3.5-1.8-5.2-2.3
	C140,17.7,140.4,16.9,140.9,16.3 M152.7,17.4c1.4,1.1,2.9,2.5,4.5,4.2c0.2,0.3,0.3,0.6,0.5,0.9c0.1,0.1,0.1,0.2,0.2,0.4
	c-0.4,0.3-0.8,0.6-1.2,1c-1.4,1.2-2.8,2.6-3.9,4.1c-1.1-1.5-2.4-2.9-3.9-4.1c-0.4-0.3-0.8-0.6-1.2-1c0.2-0.4,0.4-0.8,0.6-1.2
	C149.8,19.8,151.3,18.5,152.7,17.4 M155.1,15.6c2.3-1.4,4.3-2,5.9-2c0.1,0,0.2,0,0.4,0c1,0.5,2,1.4,3,2.7c0.5,0.6,1,1.4,1.4,2.2
	c-1.7,0.5-3.5,1.3-5.2,2.3c-0.4,0.2-0.9,0.3-1.3,0.5c-0.3-0.4-0.6-0.7-0.9-1.1c-0.4-0.6-0.7-1.3-1.2-1.9
	C156.6,17.4,155.8,16.5,155.1,15.6C155.1,15.6,155.1,15.6,155.1,15.6 M167.1,21.2c0.6,1.6,1.2,3.5,1.8,5.8c0,0.5,0,0.9-0.1,1.4
	c-2.4,0.3-4.8,0.9-7,1.9c-0.3-2.3-0.9-4.7-1.8-6.9c0.4-0.3,0.7-0.5,1.1-0.7C163.3,21.9,165.3,21.5,167.1,21.2 M170.6,20.9
	c2.6,0,4.5,0.5,5.8,1.4c0.9,1.3,1.4,3.2,1.4,5.8c0,0.2,0,0.4,0,0.7c-1.7-0.4-3.6-0.6-5.4-0.6c-0.1,0-0.1,0-0.2,0
	c-0.4-0.1-0.9-0.2-1.3-0.2c-0.1-0.5-0.2-0.9-0.2-1.3c0-0.1,0-0.1,0-0.2c0-1.9-0.2-3.7-0.6-5.4C170.2,20.9,170.4,20.9,170.6,20.9
	 M176.3,50.8c-0.1,0.1-0.2,0.1-0.4,0.2c-0.3-0.4-0.6-0.8-1-1.2c-1.2-1.4-2.6-2.7-4.1-3.8c1.5-1.1,2.9-2.4,4.1-3.8
	c0.3-0.4,0.7-0.8,1-1.2c0.4,0.2,0.8,0.4,1.2,0.6c1.7,1.6,3.1,3,4.2,4.4c-1.1,1.4-2.5,2.9-4.2,4.5C176.9,50.5,176.6,50.7,176.3,50.8
	 M168.5,55c2.4-0.3,4.7-0.9,7-1.8c0.3,0.4,0.5,0.7,0.7,1.1c0.7,2.2,1.1,4.2,1.4,6c-1.6,0.6-3.6,1.2-5.8,1.7c-0.5,0-0.9,0-1.4-0.1
	C170,59.5,169.4,57.1,168.5,55 M159,50.1c0.2-0.1,0.3-0.2,0.4-0.3c0.1-0.2,0.1-0.3,0.1-0.5c0.6,0.1,1.3,0.2,1.9,0.2
	c0.2,0,0.5,0,0.7-0.1c1.3,1,2.5,2.2,3.4,3.7c0.1,0.1,0.1,0.2,0.2,0.3c-1.9,0-3.7-0.4-5.3-1.1C160.1,51.5,159.6,50.8,159,50.1
	 M159.9,58.7c-1.5-0.9-2.8-2.1-3.8-3.4c0-0.2,0.1-0.5,0.1-0.7c0-0.6-0.1-1.3-0.2-1.9c0.2,0,0.4,0,0.5-0.1c0.2-0.1,0.3-0.2,0.3-0.4
	c0.7,0.6,1.4,1,2.2,1.4c0.7,1.6,1,3.3,1.1,5.2C160.1,58.8,160,58.7,159.9,58.7 M155.8,57.6c0.9,1,2,1.8,3.2,2.6
	c0.4,0.2,0.8,0.4,1.1,0.6c-0.2,2.2-0.8,4.5-1.6,6.6c-0.3-0.2-0.5-0.4-0.8-0.6c-1.5-1.3-2.9-2.8-4-4.3
	C154.7,60.9,155.4,59.3,155.8,57.6 M151,55.8c0.5-0.7,0.9-1.5,1.2-2.3c0.2,0.1,0.3,0.2,0.5,0.2s0.4-0.1,0.5-0.2
	c0.3,0.8,0.7,1.6,1.2,2.3c-0.2,1.7-0.8,3.4-1.7,5.1C151.8,59.2,151.2,57.5,151,55.8 M146.4,60.1c1.2-0.7,2.2-1.6,3.2-2.6
	c0.4,1.7,1.1,3.4,2.1,4.9c-1.1,1.6-2.4,3-4,4.3c-0.3,0.2-0.5,0.4-0.8,0.6c-0.9-2.2-1.4-4.4-1.6-6.6C145.6,60.6,146,60.4,146.4,60.1
	 M146.2,53.6c0.8-0.4,1.5-0.9,2.2-1.4c0.1,0.2,0.2,0.3,0.3,0.4c0.2,0.1,0.3,0.1,0.5,0.1c-0.1,0.6-0.2,1.3-0.2,1.9
	c0,0.2,0,0.5,0.1,0.7c-1,1.3-2.2,2.4-3.8,3.4c-0.1,0.1-0.2,0.1-0.3,0.2C145.2,57,145.5,55.2,146.2,53.6 M139.7,53.4
	c0.1-0.1,0.1-0.2,0.2-0.3c1-1.5,2.1-2.8,3.4-3.7c0.2,0,0.5,0.1,0.7,0.1c0.6,0,1.3-0.1,1.9-0.2c0,0.2,0,0.4,0.1,0.5
	c0.1,0.2,0.2,0.3,0.4,0.3c-0.6,0.7-1,1.4-1.4,2.2C143.3,53,141.5,53.3,139.7,53.4 M129.2,54.2c0.2-0.4,0.5-0.8,0.7-1.1
	c2.2,0.9,4.6,1.6,6.9,1.8c-0.9,2.2-1.6,4.5-1.9,6.9c-0.5,0-0.9,0.1-1.4,0.1c-2.2-0.5-4.2-1.1-5.8-1.7
	C128.1,58.4,128.5,56.5,129.2,54.2 M129,41c0.1-0.1,0.2-0.1,0.4-0.2c0.3,0.4,0.6,0.8,1,1.2c1.2,1.4,2.6,2.7,4.1,3.8
	c-1.5,1.1-2.9,2.4-4.1,3.8c-0.3,0.4-0.7,0.8-1,1.2c-0.4-0.2-0.8-0.4-1.2-0.6c-1.7-1.6-3.1-3-4.2-4.4c1.1-1.4,2.5-2.9,4.2-4.5
	C128.4,41.3,128.7,41.1,129,41 M136.9,36.9c-2.4,0.3-4.7,0.9-7,1.8c-0.3-0.4-0.5-0.7-0.7-1.1c-0.7-2.2-1.1-4.2-1.4-6
	c1.6-0.6,3.6-1.2,5.8-1.7c0.5,0,0.9,0,1.4,0.1C135.3,32.3,136,34.7,136.9,36.9 M137.6,45.9c1.6-0.9,3.4-1.5,5.1-1.7
	c0.7,0.5,1.5,0.9,2.4,1.2c-0.1,0.1-0.2,0.3-0.2,0.5c0,0.2,0.1,0.4,0.2,0.5c-0.8,0.3-1.6,0.7-2.4,1.2C141,47.4,139.3,46.8,137.6,45.9
	 M131.7,40.9c-0.2-0.3-0.4-0.5-0.6-0.8c2.2-0.9,4.5-1.4,6.7-1.6c0.2,0.4,0.4,0.7,0.6,1.1c0.7,1.2,1.6,2.2,2.6,3.1
	c-1.7,0.4-3.4,1.1-5,2.1C134.4,43.8,133,42.4,131.7,40.9 M140.9,49c-1,0.9-1.9,2-2.6,3.1c-0.2,0.4-0.4,0.8-0.6,1.1
	c-2.2-0.2-4.5-0.8-6.7-1.6c0.2-0.3,0.4-0.5,0.6-0.8c1.3-1.5,2.8-2.9,4.3-3.9C137.6,47.9,139.2,48.6,140.9,49 M146.3,41.7
	c-0.2,0.1-0.3,0.2-0.4,0.3c-0.1,0.2-0.1,0.3-0.1,0.5c-0.6-0.1-1.3-0.2-1.9-0.2c-0.2,0-0.5,0-0.7,0.1c-1.3-1-2.5-2.2-3.4-3.7
	c-0.1-0.1-0.1-0.2-0.2-0.3c1.9,0,3.7,0.4,5.3,1.1C145.3,40.3,145.8,41,146.3,41.7 M145.4,33.1c1.5,0.9,2.8,2.1,3.8,3.4
	c0,0.2-0.1,0.5-0.1,0.7c0,0.6,0.1,1.3,0.2,1.9c-0.2,0-0.4,0-0.5,0.1c-0.2,0.1-0.3,0.2-0.3,0.4c-0.7-0.6-1.4-1-2.2-1.4
	c-0.7-1.6-1-3.3-1.1-5.2C145.3,33,145.4,33.1,145.4,33.1 M149.5,34.2c-0.9-1-2-1.8-3.2-2.6c-0.4-0.2-0.8-0.4-1.1-0.6
	c0.2-2.2,0.8-4.5,1.6-6.6c0.3,0.2,0.5,0.4,0.8,0.6c1.5,1.3,2.9,2.7,4,4.3C150.7,30.9,149.9,32.5,149.5,34.2 M154.4,36
	c-0.5,0.7-0.9,1.5-1.2,2.3c-0.1-0.1-0.3-0.2-0.5-0.2c-0.2,0-0.4,0.1-0.5,0.2c-0.3-0.8-0.7-1.6-1.2-2.3c0.2-1.7,0.8-3.4,1.7-5.1
	C153.6,32.6,154.2,34.3,154.4,36 M159,31.7c-1.2,0.7-2.2,1.6-3.2,2.6c-0.4-1.7-1.1-3.4-2.1-4.9c1.1-1.6,2.4-3,4-4.3
	c0.3-0.2,0.5-0.4,0.8-0.6c0.9,2.2,1.4,4.4,1.6,6.6C159.7,31.2,159.3,31.4,159,31.7 M158.2,45.9c0,3-2.5,5.5-5.5,5.5
	c-3.1,0-5.5-2.5-5.5-5.5c0-3,2.5-5.5,5.5-5.5C155.7,40.4,158.2,42.9,158.2,45.9 M159.1,38.2c-0.8,0.4-1.5,0.9-2.2,1.4
	c-0.1-0.2-0.2-0.3-0.3-0.4c-0.2-0.1-0.3-0.1-0.5-0.1c0.1-0.6,0.2-1.3,0.2-1.9c0-0.2,0-0.5-0.1-0.7c1-1.3,2.2-2.4,3.8-3.4
	c0.1-0.1,0.2-0.1,0.3-0.2C160.2,34.8,159.8,36.6,159.1,38.2 M165.7,38.4c-0.1,0.1-0.1,0.2-0.2,0.3c-1,1.5-2.1,2.8-3.4,3.7
	c-0.2,0-0.5-0.1-0.7-0.1c-0.6,0-1.3,0.1-1.9,0.2c0-0.1,0-0.1,0-0.2c0-0.1-0.1-0.2-0.1-0.3c-0.1-0.1-0.1-0.2-0.2-0.3
	c-0.1,0-0.1-0.1-0.2-0.1c0.6-0.7,1-1.4,1.4-2.2C162,38.8,163.8,38.5,165.7,38.4 M168.5,36.8c0.9-2.2,1.6-4.5,1.9-6.9
	c0.5,0,0.9-0.1,1.4-0.1c2.2,0.5,4.2,1.1,5.8,1.7c-0.3,1.8-0.7,3.7-1.4,6c-0.2,0.4-0.5,0.7-0.7,1.1C173.2,37.8,170.8,37.1,168.5,36.8
	 M164.4,42.8c1-0.9,1.9-2,2.6-3.1c0.2-0.4,0.4-0.8,0.6-1.1c2.2,0.2,4.5,0.8,6.7,1.6c-0.2,0.3-0.4,0.5-0.6,0.8
	c-1.3,1.5-2.8,2.9-4.3,3.9C167.8,43.9,166.1,43.2,164.4,42.8 M169.4,46.9c1.6,1.1,3,2.4,4.3,3.9c0.2,0.3,0.4,0.5,0.6,0.8
	c-2.2,0.9-4.5,1.4-6.7,1.6c-0.2-0.4-0.4-0.7-0.6-1.1c-0.7-1.2-1.6-2.2-2.6-3.1C166.1,48.6,167.8,47.9,169.4,46.9 M160.5,45.8
	c0-0.2-0.1-0.3-0.2-0.4c0.8-0.3,1.6-0.7,2.3-1.2c1.7,0.2,3.4,0.8,5.1,1.7c-1.6,0.9-3.4,1.5-5.1,1.7c-0.7-0.5-1.5-0.9-2.3-1.2
	C160.4,46.3,160.5,46,160.5,45.8 M161.9,32.1c2-0.9,4.3-1.6,6.6-1.9c-0.3,2.3-1,4.6-1.9,6.6c-0.2,0-0.4,0-0.6,0
	c-1.6,0-3.2,0.2-4.7,0.7c0.4-1.5,0.7-3.1,0.7-4.7C162,32.5,161.9,32.3,161.9,32.1 M144.1,37.4c-1.5-0.4-3.1-0.7-4.7-0.7
	c-0.2,0-0.4,0-0.6,0c-0.9-2-1.6-4.3-1.9-6.6c2.3,0.3,4.6,1,6.6,1.9c0,0.2,0,0.4,0,0.6C143.4,34.3,143.6,35.9,144.1,37.4 M143.4,59.7
	c-2,0.9-4.3,1.6-6.6,1.9c0.3-2.3,1-4.6,1.9-6.6c0.2,0,0.4,0,0.6,0c1.6,0,3.2-0.2,4.7-0.7c-0.4,1.5-0.7,3.1-0.7,4.7
	C143.4,59.3,143.4,59.5,143.4,59.7 M161.3,54.5c1.5,0.4,3.1,0.7,4.7,0.7c0.2,0,0.4,0,0.6,0c0.9,2,1.6,4.3,1.9,6.6
	c-2.3-0.3-4.6-1-6.6-1.9c0-0.2,0-0.4,0-0.6C162,57.5,161.7,56,161.3,54.5 M180.2,32.8c0.9,0.5,1.6,0.9,2.2,1.4c1.3,1,2.1,2,2.7,3
	c0,0.1,0,0.2,0,0.4c0,1.6-0.6,3.6-2,5.9c0,0,0,0,0,0c-1.3-1.2-2.9-2.4-4.6-3.3c-0.3-0.3-0.7-0.6-1-0.9c0.2-0.4,0.3-0.9,0.5-1.3
	C178.9,36.3,179.7,34.6,180.2,32.8 M185,47.4l-1-1.7l-0.1,0.1l0,0l1-1.4c0-0.1,0.1-0.1,0.1-0.2c1.5-2.4,2.3-4.7,2.3-6.8
	c0-0.2,0-0.3,0-0.4c0,0,0-0.1,0-0.1l0-0.3l-0.2-0.3c-0.7-1.3-1.7-2.5-3.2-3.6c-0.7-0.5-1.6-1.1-2.5-1.6l-1.6-0.9l0.1-1.8
	c0-0.1,0-0.1,0-0.2c0-0.2,0-0.3,0-0.5c0-2.8-0.6-5.1-1.7-6.8l-0.2-0.3l-0.3-0.2c-1.7-1.1-4-1.7-6.8-1.7c-0.2,0-0.3,0-0.5,0
	c-0.1,0-0.1,0-0.2,0l-1.8,0.1l-0.9-1.6c-0.5-0.9-1-1.8-1.6-2.5c-1.1-1.4-2.3-2.5-3.6-3.2l-0.3-0.2l-0.3,0c0,0-0.1,0-0.1,0
	c-0.1,0-0.3,0-0.4,0c-2.1,0-4.4,0.8-6.8,2.3c-0.1,0.1-0.2,0.1-0.2,0.1l-1.3,1l0,0l0.1-0.1l-1.8-1l0,0c-2.5-1.5-4.8-2.3-6.9-2.3
	c-0.1,0-0.3,0-0.4,0c0,0-0.1,0-0.1,0l-0.3,0l-0.3,0.2c-1.3,0.7-2.5,1.7-3.6,3.2c-0.5,0.7-1.1,1.5-1.6,2.5L137,19l-1.8-0.1
	c-0.1,0-0.1,0-0.2,0c-0.2,0-0.3,0-0.5,0c-2.8,0-5.1,0.6-6.8,1.7l-0.3,0.2l-0.2,0.3c-1.1,1.7-1.7,4-1.7,6.8c0,0.1,0,0.3,0,0.5
	c0,0.1,0,0.1,0,0.2l0,1.9l-1.6,0.9c-0.9,0.5-1.8,1-2.5,1.6c-1.5,1.1-2.5,2.3-3.2,3.6l-0.2,0.3l0,0.4c0,0.1,0,0.2,0,0.4
	c0,2.1,0.8,4.4,2.3,6.8l0.9,2l0.3-0.3l0,0l-1,1.4l-0.1,0.2c-1.5,2.4-2.3,4.7-2.3,6.8c0,0.2,0,0.3,0,0.4c0,0,0,0.1,0,0.1l0,0.3
	l0.2,0.3c0.7,1.3,1.7,2.5,3.2,3.6c0.7,0.5,1.5,1.1,2.5,1.6l1.6,0.9l-0.1,1.8c0,0.1,0,0.1,0,0.2c0,0.2,0,0.3,0,0.5
	c0,2.8,0.6,5.1,1.7,6.8l0.2,0.3l0.3,0.2c1.7,1.1,4,1.7,6.8,1.7c0.2,0,0.3,0,0.5,0c0.1,0,0.1,0,0.2,0l1.8-0.1l0.9,1.6
	c0.5,0.9,1,1.8,1.6,2.5c1.1,1.5,2.3,2.5,3.6,3.2l0.3,0.2l0.4,0c0,0,0.1,0,0.1,0c0.1,0,0.2,0,0.4,0h0c2.1,0,4.4-0.8,6.9-2.3
	c0,0,0,0,0,0l1.8-1l-0.1-0.2l0,0l1.3,1c0,0,0.1,0.1,0.2,0.1c2.5,1.5,4.8,2.3,6.9,2.3c0.2,0,0.3,0,0.4,0c0,0,0.1,0,0.1,0l0.4,0
	l0.3-0.2c1.3-0.7,2.5-1.7,3.6-3.2c0.5-0.7,1.1-1.6,1.6-2.5l0.9-1.6l1.8,0.1c0.1,0,0.1,0,0.2,0c0.2,0,0.3,0,0.5,0h0
	c2.8,0,5.1-0.6,6.8-1.7l0.3-0.2l0.2-0.3c1.1-1.7,1.7-4,1.7-6.8c0-0.1,0-0.3,0-0.5c0-0.1,0-0.1,0-0.2l-0.1-1.8l1.6-0.9
	c0.9-0.5,1.8-1,2.5-1.6c1.4-1.1,2.5-2.3,3.2-3.6l0.2-0.3l0-0.3c0,0,0-0.1,0-0.1c0-0.1,0-0.2,0-0.4C187.3,52.3,186.6,50,185,47.4
	C185,47.5,185,47.5,185,47.4"/>
<g>
	<path class="st1" d="M26.1,106.1l16.8,40.3l16.8-40.3h3.4l-18.7,44.2h-2.9l-18.8-44.2H26.1z"/>
	<path class="st1" d="M105.6,147.5v2.9H76.1v-44.2h28.9v2.9H79.3v17.4h22.5v2.7H79.3v18.4H105.6z"/>
	<path class="st1" d="M120.5,150.3v-44.2h3.2v41.4h26.4v2.9H120.5z"/>
	<path class="st1" d="M154.6,106.1l16.8,40.3l16.8-40.3h3.4l-18.7,44.2H170l-18.8-44.2H154.6z"/>
	<path class="st1" d="M234.1,147.5v2.9h-29.5v-44.2h28.9v2.9h-25.7v17.4h22.5v2.7h-22.5v18.4H234.1z"/>
	<path class="st1" d="M279.9,108.9h-16.2v41.4h-3.2v-41.4h-16.2v-2.9h35.6V108.9z"/>
</g>
</svg>
