<?xml version="1.0" encoding="utf-8"?>
<!-- Generator: Adobe Illustrator 24.1.0, SVG Export Plug-In . SVG Version: 6.00 Build 0)  -->
<svg version="1.1" id="Layer_1" xmlns="http://www.w3.org/2000/svg" xmlns:xlink="http://www.w3.org/1999/xlink" x="0px" y="0px"
	 viewBox="0 0 697 545.1" style="enable-background:new 0 0 697 545.1;" xml:space="preserve">
<style type="text/css">
	.st0{opacity:0.1;fill:#C09D5D;}
	.st1{fill:#C09D5D;}
	.st2{fill:#3C3C3B;}
	.st3{font-family:'Raleway-Light';}
	.st4{font-size:62.313px;}
	.st5{letter-spacing:6;}
</style>
<path class="st0" d="M553.1,327.2c-3.3,6.4-8.6,12.7-16.8,18.9c-4,3-8.7,6-14.1,8.8c-3.4-11-8.4-22-14.7-32.7
	c-0.9-2.6-1.9-5.4-2.8-8.2c2.3-2,4.5-3.8,6.7-5.6c4.1-2.3,8.1-4.7,11.9-7.3c6.2-4.2,12-8.8,17.2-13.6c0,0,0.1,0.1,0.1,0.2
	c9.1,14.5,12.8,26.9,12.8,37.1C553.3,325.6,553.2,326.4,553.1,327.2 M498.4,421.4c-8.4,5.5-20.2,8.9-36.7,8.9
	c-1.3,0-2.8-0.2-4.1-0.2c2.5-10.7,3.8-22.2,3.8-34.1c0-0.5,0-0.9,0-1.4c0.5-2.8,1-5.5,1.6-8.4c2.9-0.6,5.7-1.1,8.4-1.6
	c0.5,0,1,0,1.5,0c11.9,0,23.5-1.3,34.3-3.7c0,1.3,0.2,2.8,0.2,4C507.3,401.3,503.8,413.1,498.4,421.4 M439.2,428.3
	c-11.2-1.7-23.8-4.5-37.9-8.8c-2.4-1.5-4.7-3-7-4.6c5.8-14,10-28.8,11.7-43.5c13.7,5.9,28.7,9.8,43.8,11.7c0.2,3,0.4,5.9,0.4,8.9
	C446.9,405.9,443.2,418,439.2,428.3 M422.6,459.1c-6.3,8.1-12.6,13.4-19.1,16.7c-0.8,0-1.5,0.2-2.4,0.2c-10.3,0-22.7-3.7-37.3-12.7
	c-0.1,0-0.1-0.1-0.2-0.2c7.9-8.4,15-18.2,21.1-28.9c1.8-2.2,3.6-4.3,5.6-6.6c2.8,0.9,5.6,1.9,8.2,2.8c10.7,6.3,21.8,11.2,32.9,14.6
	C428.6,450.5,425.6,455.2,422.6,459.1 M348.5,452.4c-8.8-7-18.2-15.7-28.2-26.3c-1-1.8-1.9-3.5-2.8-5.4c-0.4-0.7-0.6-1.5-1-2.2
	c2.6-2,5.2-3.9,7.7-6c9.1-7.7,17.3-16.5,24.4-25.8c7.1,9.4,15.3,18.1,24.4,25.9c2.5,2.1,5.1,4.1,7.7,6.1c-1.3,2.6-2.6,5.2-4,7.8
	C366.7,436.8,357.3,445.5,348.5,452.4 M333.3,463.4c-14.6,9-27.1,12.7-37.3,12.7c-0.8,0-1.5-0.1-2.3-0.2
	c-6.4-3.3-12.8-8.6-19.1-16.7c-3.1-4-6-8.7-8.9-14c11-3.3,22.1-8.3,32.8-14.5c2.7-1,5.4-1.9,8.3-2.9c2,2.3,3.8,4.4,5.7,6.6
	c2.3,4.1,4.8,8.1,7.4,11.8c4.2,6.2,8.9,11.9,13.7,17.1C333.4,463.3,333.3,463.3,333.3,463.4 M257.9,428.3
	c-4.1-10.3-7.8-22.4-11.1-36.4c0.1-2.9,0.2-5.9,0.4-8.8c15.1-2,30.1-5.9,43.9-11.7c1.8,14.7,5.8,29.6,11.6,43.5
	c-2.3,1.6-4.7,3.2-7.1,4.6C281.6,423.8,269,426.6,257.9,428.3 M235.4,430.3c-16.5,0-28.3-3.4-36.7-8.8c-5.5-8.3-8.9-20.1-8.9-36.5
	c0-1.3,0.2-2.8,0.2-4.1c10.8,2.5,22.4,3.8,34.3,3.8c0.5,0,0.9,0,1.4,0c2.8,0.5,5.6,1,8.5,1.6c0.6,2.9,1.1,5.6,1.6,8.3
	c0,0.5-0.1,1-0.1,1.5c0,11.8,1.3,23.4,3.7,34.1C238.1,430.1,236.7,430.3,235.4,430.3 M174.8,354.9c-5.4-2.9-10.1-5.8-14.1-8.9
	c-8.2-6.2-13.5-12.5-16.8-18.9c0-0.8-0.2-1.6-0.2-2.4c0-10.2,3.7-22.6,12.7-37.1c0-0.1,0.1-0.1,0.1-0.2c8.5,7.8,18.4,15,29.2,21.1
	c2.2,1.8,4.3,3.6,6.5,5.5c-1,2.8-1.9,5.6-2.9,8.3C183.2,333,178.2,344,174.8,354.9 M143.7,220.3c0-0.8,0.1-1.5,0.2-2.3
	c3.3-6.4,8.6-12.8,16.8-19c4-3,8.7-6,14.1-8.9c3.4,11,8.4,22,14.6,32.6c1,2.6,1.9,5.4,2.9,8.2c-2.3,2-4.5,3.8-6.7,5.7
	c-4.1,2.3-8.1,4.7-11.9,7.3c-6.2,4.2-12,8.8-17.2,13.6c0-0.1-0.1-0.1-0.1-0.2C147.4,242.9,143.7,230.5,143.7,220.3 M198.7,123.7
	c8.4-5.4,20.2-8.9,36.7-8.9c1.3,0,2.8,0.2,4.1,0.2c-2.5,10.7-3.8,22.2-3.8,34.1c0,0.5,0,1,0.1,1.5c-0.5,2.7-1,5.5-1.6,8.3
	c-2.9,0.6-5.6,1.1-8.4,1.5c-0.5,0-1,0-1.5,0c-11.9,0-23.5,1.2-34.3,3.7c0-1.3-0.2-2.8-0.2-4C189.8,143.8,193.2,132,198.7,123.7
	 M257.9,116.8c11.2,1.7,23.8,4.5,37.9,8.8c2.4,1.4,4.7,3,7,4.6c-5.9,14-10,28.8-11.7,43.5c-13.7-5.9-28.7-9.8-43.8-11.7
	c-0.2-3-0.4-5.9-0.4-8.8C250.1,139.2,253.8,127.1,257.9,116.8 M274.5,86c6.2-8.1,12.6-13.4,19-16.7c0.8,0,1.5-0.2,2.4-0.2
	c10.3,0,22.7,3.7,37.3,12.7c0.1,0,0.1,0.1,0.2,0.1c-7.9,8.4-15.1,18.3-21.2,29.1c-1.8,2.1-3.6,4.3-5.6,6.5c-2.8-0.9-5.6-1.9-8.2-2.8
	c-10.7-6.3-21.8-11.3-32.9-14.6C268.5,94.6,271.5,89.9,274.5,86 M348.5,92.7c8.8,6.9,18.2,15.7,28.2,26.3c1,1.8,1.9,3.5,2.8,5.4
	c0.4,0.7,0.6,1.5,1,2.2c-2.6,2-5.2,3.9-7.7,6c-9.1,7.8-17.3,16.5-24.4,25.8c-7.1-9.4-15.3-18.1-24.4-25.9c-2.5-2.1-5.1-4.1-7.7-6.1
	c1.3-2.6,2.6-5.2,4-7.7C330.4,108.3,339.7,99.6,348.5,92.7 M363.8,81.8c14.6-9,27.1-12.7,37.3-12.7c0.8,0,1.5,0.1,2.3,0.2
	c6.4,3.3,12.8,8.6,19.1,16.7c3,4,6,8.7,8.9,14c-11,3.3-22.1,8.3-32.8,14.5c-2.7,1-5.5,1.9-8.3,2.9c-2-2.3-3.9-4.5-5.7-6.7
	c-2.3-4.1-4.7-8-7.3-11.8c-4.2-6.2-8.9-11.9-13.7-17.1C363.7,81.8,363.7,81.8,363.8,81.8 M439.2,116.8c4.1,10.3,7.8,22.4,11,36.3
	c-0.1,3-0.2,5.9-0.4,8.9c-15.1,2-30.1,5.8-43.9,11.7c-1.8-14.7-5.8-29.6-11.6-43.6c2.3-1.6,4.7-3.2,7.1-4.6
	C415.4,121.3,428,118.5,439.2,116.8 M461.6,114.8c16.5,0,28.4,3.5,36.7,8.9c5.5,8.3,8.9,20.1,8.9,36.5c0,1.3-0.2,2.8-0.2,4.1
	c-10.8-2.5-22.4-3.8-34.3-3.8c-0.5,0-0.9,0-1.4,0c-2.8-0.5-5.5-1-8.5-1.6c-0.6-2.9-1.1-5.7-1.6-8.4c0-0.5,0-0.9,0-1.4
	c0-11.8-1.3-23.4-3.7-34.1C458.9,115,460.4,114.8,461.6,114.8 M497.6,303.4c-0.7,0.4-1.5,0.6-2.2,1c-2-2.6-4-5.1-6.1-7.6
	c-7.8-9-16.6-17.2-26-24.2c9.4-7,18.2-15.2,26-24.2c2.1-2.5,4.1-5.1,6.1-7.6c2.6,1.3,5.2,2.6,7.8,4c10.6,9.9,19.4,19.2,26.3,27.9
	c-7,8.8-15.8,18.1-26.5,28.1C501.3,301.6,499.5,302.5,497.6,303.4 M448,329.6c14.8-1.7,29.8-5.7,43.8-11.6c1.6,2.3,3.2,4.6,4.6,7
	c4.3,14,7.2,26.5,8.8,37.6c-10.4,4-22.6,7.7-36.6,11c-3-0.1-5.9-0.2-8.9-0.4C457.8,358.1,453.9,343.2,448,329.6 M388.5,299.1
	c1-0.5,1.9-1.1,2.5-2.2c0.6-1,0.7-2.2,0.6-3.3c4,0.6,8,1,12,1c1.5,0,3-0.3,4.5-0.3c8.3,6.1,15.5,14,21.5,23.5c0.4,0.6,0.7,1.2,1,1.8
	c-11.9-0.2-23.1-2.3-33.1-6.6C395.1,308.1,392.1,303.4,388.5,299.1 M394.1,353.1c-9.5-6-17.5-13.1-23.7-21.4
	c0.1-1.5,0.4-2.9,0.4-4.4c0-4-0.4-7.9-1-11.9c1.1,0.1,2.2,0,3.3-0.6c1-0.6,1.7-1.5,2.2-2.5c4.4,3.6,9.1,6.5,14,9
	c4.3,9.9,6.5,21.1,6.6,32.9C395.3,353.8,394.7,353.5,394.1,353.1 M368.3,346.1c5.8,6.2,12.5,11.6,20,16.2c2.3,1.5,4.8,2.8,7.2,4.1
	c-1.3,13.9-5,28.2-10.4,41.8c-1.7-1.3-3.4-2.6-5.1-4c-9.6-8.1-18.1-17.3-25-27.1C361.2,367.3,365.7,356.9,368.3,346.1 M337.8,334.8
	c3-4.6,5.5-9.5,7.5-14.7c0.9,0.7,2,1.2,3.2,1.2c1.2,0,2.3-0.5,3.3-1.2c2,5.2,4.5,10.1,7.5,14.7c-1.2,10.8-5,21.5-10.7,31.8
	C342.8,356.4,339,345.6,337.8,334.8 M308.8,362.3c7.4-4.6,14.1-10.1,20-16.2c2.6,10.8,7.1,21.2,13.3,31c-6.9,9.8-15.4,19-25,27.1
	c-1.6,1.4-3.4,2.7-5,4c-5.5-13.6-9-27.9-10.2-41.9C304.1,365,306.5,363.7,308.8,362.3 M307.8,321.2c5-2.5,9.7-5.4,14-9
	c0.5,1,1.1,1.9,2.2,2.5c1.1,0.6,2.2,0.7,3.3,0.6c-0.7,4-1,7.9-1,11.9c0,1.5,0.3,2.9,0.4,4.4c-6.1,8.3-14.1,15.4-23.6,21.4
	c-0.6,0.4-1.2,0.7-1.8,1C301.3,342.3,303.4,331.2,307.8,321.2 M266.4,319.7c0.4-0.6,0.7-1.2,1-1.8c6-9.5,13.2-17.4,21.5-23.5
	c1.5,0.1,3,0.3,4.4,0.3c4,0,8-0.4,12-1c-0.1,1.1,0,2.2,0.6,3.3c0.6,1,1.5,1.7,2.5,2.1c-3.6,4.4-6.6,9-9.1,14
	C289.5,317.3,278.3,319.5,266.4,319.7 M200.6,325c1.5-2.4,3.1-4.7,4.7-7.1c14,5.8,28.9,9.9,43.8,11.6c-5.9,13.6-9.8,28.5-11.8,43.5
	c-3,0.2-6,0.4-8.9,0.4c-14-3.2-26.2-6.9-36.6-11C193.4,351.5,196.3,339,200.6,325 M199.4,241.7c0.7-0.4,1.5-0.6,2.2-1
	c2,2.6,4,5.2,6.1,7.6c7.8,9,16.6,17.2,26,24.2c-9.4,7-18.2,15.2-26,24.2c-2.1,2.5-4.1,5-6.1,7.6c-2.7-1.3-5.2-2.6-7.8-4
	c-10.6-9.9-19.4-19.2-26.3-27.9c7-8.7,15.8-18.1,26.5-28.1C195.8,243.5,197.6,242.6,199.4,241.7 M249,215.5
	c-14.8,1.7-29.8,5.7-43.8,11.5c-1.6-2.3-3.2-4.6-4.6-7c-4.3-14-7.2-26.5-8.8-37.6c10.4-4,22.6-7.7,36.6-11c3,0.1,5.9,0.2,8.9,0.4
	C239.2,187,243.1,201.9,249,215.5 M253.8,272.6c10.4-5.7,21.2-9.4,32-10.7c4.6,3,9.6,5.5,14.8,7.4c-0.7,0.9-1.2,2-1.2,3.2
	c0,1.2,0.5,2.3,1.2,3.2c-5.2,2-10.2,4.4-14.8,7.4C275,282,264.1,278.3,253.8,272.6 M216,241.2c-1.4-1.6-2.7-3.3-4-5
	c13.7-5.4,28.1-8.9,42.2-10.1c1.3,2.3,2.6,4.7,4,7c4.6,7.4,10.1,14,16.4,19.8c-10.9,2.6-21.3,7.1-31.2,13.2
	C233.5,259.2,224.2,250.8,216,241.2 M274.5,292.2c-6.2,5.8-11.7,12.4-16.4,19.8c-1.5,2.3-2.8,4.7-4.1,7.2
	c-14-1.2-28.4-4.9-42.1-10.3c1.4-1.7,2.6-3.4,4.1-5.1c8.2-9.5,17.4-18,27.3-24.8C253.2,285.1,263.7,289.7,274.5,292.2 M308.6,246
	c-1,0.5-2,1.2-2.5,2.1c-0.6,1-0.7,2.1-0.6,3.3c-4-0.7-8-1-12-1c-1.5,0-3,0.3-4.4,0.3c-8.3-6.1-15.5-14-21.5-23.5
	c-0.4-0.6-0.7-1.2-1-1.8c11.9,0.2,23.1,2.3,33.1,6.6C302,237,305,241.7,308.6,246 M302.9,192c9.5,6,17.5,13.1,23.6,21.4
	c-0.1,1.5-0.4,2.9-0.4,4.4c0,4,0.4,7.9,1,11.9c-1.1-0.1-2.3,0-3.3,0.6c-1,0.6-1.7,1.5-2.2,2.5c-4.4-3.5-9.1-6.5-14-9
	c-4.3-9.9-6.5-21.1-6.7-32.9C301.7,191.3,302.4,191.7,302.9,192 M328.7,199c-5.8-6.2-12.5-11.7-20-16.2c-2.3-1.4-4.8-2.8-7.2-4.1
	c1.3-13.9,4.9-28.2,10.4-41.8c1.7,1.3,3.4,2.6,5.1,4c9.6,8.1,18.1,17.3,25,27.1C335.9,177.8,331.3,188.2,328.7,199 M359.3,210.2
	c-3,4.6-5.5,9.5-7.5,14.7c-0.9-0.7-2-1.2-3.2-1.2c-1.2,0-2.3,0.5-3.3,1.2c-2-5.2-4.4-10.2-7.5-14.7c1.2-10.8,5-21.5,10.7-31.8
	C354.3,188.7,358,199.5,359.3,210.2 M388.3,182.8c-7.4,4.6-14.1,10.1-20,16.3c-2.6-10.8-7.1-21.2-13.3-31c6.9-9.8,15.4-19,25-27.1
	c1.6-1.4,3.4-2.6,5-4c5.5,13.6,9,27.9,10.2,41.9C392.9,180.1,390.5,181.4,388.3,182.8 M383.4,272.6c0,19.1-15.6,34.6-34.9,34.6
	s-34.9-15.5-34.9-34.6c0-19.1,15.6-34.6,34.9-34.6S383.4,253.4,383.4,272.6 M389.3,223.9c-5,2.5-9.7,5.4-14.1,9
	c-0.5-1-1.2-1.9-2.2-2.5c-1-0.6-2.1-0.7-3.3-0.6c0.7-4,1-7.9,1-11.9c0-1.5-0.3-2.9-0.4-4.4c6.1-8.3,14.1-15.4,23.7-21.4
	c0.6-0.4,1.2-0.7,1.8-1C395.7,202.8,393.6,213.9,389.3,223.9 M430.6,225.4c-0.4,0.6-0.7,1.2-1,1.8c-6,9.5-13.2,17.4-21.5,23.5
	c-1.5-0.1-3-0.3-4.5-0.3c-4,0-8,0.4-12,1c0.1-0.4,0.1-0.8,0.1-1.2c-0.1-0.7-0.3-1.4-0.7-2c-0.4-0.6-0.9-1.2-1.4-1.6
	c-0.4-0.3-0.7-0.4-1.1-0.6c3.6-4.4,6.6-9,9.1-14C407.5,227.8,418.7,225.6,430.6,225.4 M448,215.5c5.9-13.6,9.8-28.5,11.8-43.5
	c3-0.2,6-0.4,8.9-0.5c14,3.3,26.2,6.9,36.5,11c-1.7,11.1-4.6,23.6-8.8,37.6c-1.5,2.4-3.1,4.7-4.7,7
	C477.7,221.3,462.8,217.2,448,215.5 M422.5,252.9c6.2-5.8,11.7-12.5,16.4-19.8c1.5-2.3,2.8-4.8,4.1-7.2c14,1.2,28.4,4.9,42.1,10.3
	c-1.4,1.7-2.6,3.4-4,5.1c-8.2,9.5-17.4,18-27.3,24.8C443.9,260,433.4,255.4,422.5,252.9 M453.7,279c9.8,6.8,19.1,15.3,27.3,24.8
	c1.4,1.6,2.7,3.3,4,5c-13.7,5.4-28.1,8.9-42.2,10.1c-1.3-2.3-2.5-4.7-4-6.9c-4.6-7.4-10.1-14-16.4-19.8
	C433.4,289.6,443.9,285.1,453.7,279 M397.6,271.9c-0.1-1-0.6-1.9-1.1-2.6c5.3-2,10.2-4.4,14.8-7.4c10.8,1.2,21.7,4.9,32.1,10.7
	c-10.4,5.7-21.2,9.5-32.1,10.7c-4.6-3-9.5-5.4-14.8-7.4C397.3,274.7,397.7,273.4,397.6,271.9 M406.8,185.3
	c12.8-5.9,27.1-10,41.7-12.1c-2.1,14.5-6.2,28.7-12.1,41.4c-1.3,0-2.6-0.1-4-0.1c-10.2,0-20.2,1.4-29.6,4.1
	c2.8-9.4,4.2-19.3,4.2-29.4C407,187.9,406.8,186.6,406.8,185.3 M294.3,218.6c-9.5-2.8-19.4-4.2-29.6-4.1c-1.3,0-2.6,0.1-3.9,0.2
	c-6-12.7-10-26.9-12.2-41.5c14.6,2.1,28.9,6.2,41.7,12.1c0,1.3-0.1,2.6-0.1,3.9C290.1,199.3,291.4,209.2,294.3,218.6 M290.3,359.8
	c-12.8,5.9-27.1,10-41.7,12.1c2.2-14.5,6.2-28.7,12.1-41.4c1.3,0,2.7,0.1,4,0.1c10.2,0,20.2-1.3,29.6-4.1
	c-2.8,9.4-4.2,19.3-4.1,29.4C290.1,357.2,290.2,358.5,290.3,359.8 M402.8,326.5c9.5,2.8,19.4,4.1,29.6,4.1c1.3,0,2.6-0.2,3.9-0.2
	c5.9,12.7,10,26.9,12.2,41.4c-14.6-2.1-28.9-6.2-41.7-12.1c0-1.3,0.1-2.6,0.1-3.9C407,345.8,405.6,335.9,402.8,326.5 M522.2,190.2
	c5.4,2.9,10.1,5.8,14.1,8.9c8.2,6.2,13.5,12.5,16.8,18.9c0,0.8,0.2,1.6,0.2,2.4c0,10.2-3.7,22.6-12.8,37.1c0,0.1-0.1,0.1-0.1,0.2
	c-8.5-7.8-18.4-15-29.3-21.1c-2.1-1.8-4.3-3.6-6.5-5.5c0.9-2.8,1.9-5.6,2.9-8.2C513.8,212.1,518.8,201.1,522.2,190.2 M552.2,282.3
	l-6.4-10.6l-0.5,0.5l-0.1-0.1l6.5-8.5c0.3-0.4,0.6-0.8,0.8-1.2c9.5-15.3,14.3-29.7,14.3-42.8c0-1-0.1-1.9-0.1-2.5c0-0.2,0-0.3,0-0.5
	l-0.1-2.2l-1-1.9c-4.3-8.3-10.8-15.7-20-22.7c-4.5-3.4-9.8-6.8-15.8-9.9l-10.2-5.4l0.3-11.6c0-0.5,0-0.9,0.1-1.4
	c0.1-1.1,0.2-2.1,0.2-3.1c0-17.5-3.6-31.8-10.7-42.6l-1.2-1.8l-1.8-1.2c-10.9-7.1-25.4-10.7-42.9-10.7c-1.1,0-2.2,0.1-3.1,0.2
	c-0.5,0-0.9,0.1-1.3,0.1l-11.6,0.4l-5.5-10.3c-3.1-5.9-6.5-11.1-9.9-15.7c-6.9-9-14.6-15.7-22.9-19.9l-2-1l-2.2-0.1
	c-0.2,0-0.3,0-0.5,0c-0.8-0.1-1.6-0.1-2.4-0.1c-13.2,0-27.7,4.8-43.1,14.3c-0.7,0.4-1.2,0.8-1.4,0.9l-8.2,6.5l-0.3-0.2l0.9-0.9
	l-11.3-6.1l-0.1-0.1c-15.5-9.6-30.1-14.4-43.4-14.4c-0.8,0-1.6,0.1-2.4,0.1c-0.2,0-0.4,0-0.5,0l-2.2,0.1l-1.9,1
	c-8.2,4.2-15.9,10.9-22.8,19.9c-3.4,4.5-6.8,9.8-9.9,15.7l-5.5,10.3l-11.5-0.4c-0.4,0-0.9,0-1.4-0.1c-1-0.1-2-0.2-3.2-0.2
	c-17.6,0-32.1,3.6-42.9,10.7l-1.8,1.2l-1.2,1.8c-7.1,10.8-10.7,25.2-10.7,42.6c0,0.9,0.1,1.9,0.1,3c0,0.5,0.1,0.9,0.1,1.4l0.3,11.7
	l-10.2,5.4c-6,3.2-11.3,6.5-15.7,9.9c-9.2,7-15.8,14.4-20,22.8l-1,1.9l-0.2,2.6c-0.1,0.6-0.1,1.5-0.1,2.4c0,13.1,4.8,27.4,14.3,42.7
	l5.5,12.4l1.8-1.7l0,0l-6.4,8.6l-0.7,1c-9.6,15.4-14.5,29.9-14.5,43.1c0,1,0.1,1.9,0.1,2.5c0,0.2,0,0.3,0,0.5l0.1,2.1l1,1.9
	c4.3,8.3,10.8,15.7,20,22.7c4.5,3.4,9.8,6.7,15.7,9.9l10.4,5.5l-0.4,11.4c0,0.4-0.1,0.9-0.1,1.4c-0.1,1-0.2,2-0.2,3.2
	c0,17.5,3.6,31.9,10.8,42.7l1.2,1.8l1.8,1.2c10.9,7.1,25.3,10.6,42.9,10.6c1.1,0,2.2-0.1,3.1-0.1c0.5,0,0.9-0.1,1.4-0.1l11.6-0.4
	l5.5,10.3c3.2,5.9,6.5,11.2,10,15.6c7,9.2,14.5,15.7,22.9,19.9l2,1l2.2,0.1c0.2,0,0.3,0,0.5,0c0.8,0.1,1.5,0.1,2.4,0.1h0
	c13.2,0,27.8-4.8,43.3-14.4c0,0,0,0,0,0l11.4-6.1l-0.9-1l0.3-0.2l8.1,6.4c0.3,0.2,0.7,0.6,1.3,0.9c15.5,9.6,30.1,14.4,43.4,14.4
	c1,0,1.8-0.1,2.4-0.1c0.2,0,0.3,0,0.5,0l2.2-0.1l2-1c8.4-4.3,15.8-10.7,22.9-19.9c3.5-4.5,6.8-9.8,9.9-15.6l5.5-10.2l11.6,0.3
	c0.5,0,0.9,0,1.4,0.1c1.1,0.1,2.1,0.1,3.1,0.1h0c17.6,0,32.1-3.6,43-10.7l1.8-1.2l1.2-1.8c7.1-10.8,10.7-25.1,10.7-42.6
	c0-0.9-0.1-2-0.2-3c0-0.5-0.1-0.9-0.1-1.4l-0.3-11.6l10.2-5.4c5.9-3.1,11.3-6.5,15.8-9.9c9.1-6.9,15.8-14.5,20-22.7l1-1.9l0.1-2.1
	c0-0.2,0-0.3,0-0.5c0.1-0.6,0.2-1.5,0.2-2.5c0-13.1-4.8-27.5-14.4-42.9C552.4,282.6,552.3,282.4,552.2,282.3"/>
<path class="st1" d="M289.4,359v0.6c0,0.1-0.1,0.2-0.2,0.2h-9.4c-0.1,0-0.2-0.1-0.2-0.2V344c0-0.4,0-0.6-0.1-0.8
	c0-0.1,0-0.2,0.2-0.2h0.6c0.3,0,0.4,0.1,0.4,0.4v15.5h8.4C289.3,358.8,289.4,358.9,289.4,359"/>
<path class="st1" d="M313.1,358.9c4.2,0,7.6-3.3,7.6-7.5c0-4.2-3.4-7.5-7.6-7.5c-4.2,0-7.7,3.3-7.7,7.5
	C305.4,355.6,308.9,358.9,313.1,358.9 M313.1,360c-4.9,0-8.8-3.8-8.8-8.6c0-4.8,3.9-8.6,8.8-8.6c4.8,0,8.8,3.8,8.8,8.6
	C321.9,356.2,317.9,360,313.1,360"/>
<path class="st1" d="M348.2,342.9c0.2,0,0.2,0,0.2,0.2v10.5c0,3.3-2.6,6.4-6.8,6.4c-4.2,0-6.6-3.1-6.7-6.4v-10.5
	c0-0.2,0.1-0.2,0.2-0.2h0.7c0.2,0,0.2,0,0.2,0.2v10.2c0,4.1,3.1,5.6,5.5,5.6c2.4,0,5.6-1.5,5.6-5.6v-10.2c0-0.2,0-0.2,0.2-0.2H348.2
	z"/>
<path class="st1" d="M377.5,343v16.7c0,0.1-0.1,0.2-0.2,0.2H377c-0.2,0-0.4-0.1-0.7-0.4l-12.2-14.6v14.8c0,0.1-0.1,0.2-0.2,0.2h-0.7
	c-0.2,0-0.2-0.1-0.2-0.2v-16.6c0-0.1,0.1-0.2,0.2-0.2h0.5c0.1,0,0.2,0.1,0.3,0.2l12.4,14.8V343c0-0.1,0-0.2,0.2-0.2h0.8
	C377.5,342.9,377.5,342.9,377.5,343"/>
<path class="st1" d="M406.4,357.2c0,0.1-0.1,0.3-0.2,0.4c-1.6,1.5-3.6,2.4-6.1,2.4c-4.8,0-8.8-3.8-8.8-8.6c0-4.8,3.9-8.7,8.8-8.7
	c2.4,0,4.6,0.9,6.1,2.4c0.2,0.2,0.2,0.3,0.1,0.4l-0.6,0.5c-0.1,0.1-0.2,0.1-0.3,0c-0.9-0.9-2.8-2.2-5.2-2.2c-5.2,0-7.8,4.2-7.8,7.6
	c0,3.5,2.6,7.5,7.8,7.5c2.3,0,4-1.1,5-2v-2.3h-5c-0.2,0-0.2,0-0.2-0.2v-0.6c0-0.2,0.1-0.2,0.2-0.2h5.9c0.2,0,0.2,0,0.2,0.2V357.2z"
	/>
<path class="st1" d="M422.9,344v7h6.3c0.2,0,0.2,0.1,0.2,0.3v0.6c0,0.2-0.1,0.2-0.2,0.2h-6.3v6.8h9.9c0.2,0,0.2,0.1,0.2,0.3v0.6
	c0,0.2-0.1,0.2-0.2,0.2H422c-0.2,0-0.2-0.1-0.2-0.2v-16.6c0-0.1,0.1-0.2,0.2-0.2h10.8c0.2,0,0.2,0.1,0.2,0.2v0.7
	c0,0.1-0.1,0.2-0.2,0.2H422.9z"/>
<path class="st1" d="M383.7,218.5c-0.5,1-1.4,2-2.7,3c-0.6,0.5-1.4,0.9-2.2,1.4c-0.5-1.7-1.3-3.5-2.3-5.2c-0.2-0.4-0.3-0.9-0.5-1.3
	c0.4-0.3,0.7-0.6,1.1-0.9c0.6-0.4,1.3-0.7,1.9-1.2c1-0.7,1.9-1.4,2.7-2.2c0,0,0,0,0,0c1.4,2.3,2,4.3,2,5.9
	C383.8,218.3,383.7,218.4,383.7,218.5 M375,233.5c-1.3,0.9-3.2,1.4-5.8,1.4c-0.2,0-0.4,0-0.7,0c0.4-1.7,0.6-3.5,0.6-5.4
	c0-0.1,0-0.1,0-0.2c0.1-0.4,0.2-0.9,0.2-1.3c0.5-0.1,0.9-0.2,1.3-0.2c0.1,0,0.2,0,0.2,0c1.9,0,3.7-0.2,5.4-0.6c0,0.2,0,0.4,0,0.6
	C376.4,230.3,375.9,232.2,375,233.5 M365.6,234.6c-1.8-0.3-3.8-0.7-6-1.4c-0.4-0.2-0.7-0.5-1.1-0.7c0.9-2.2,1.6-4.6,1.9-6.9
	c2.2,0.9,4.6,1.5,7,1.9c0,0.5,0.1,0.9,0.1,1.4C366.9,231,366.3,232.9,365.6,234.6 M363,239.5c-1,1.3-2,2.1-3,2.7c-0.1,0-0.2,0-0.4,0
	c-1.6,0-3.6-0.6-5.9-2c0,0,0,0,0,0c1.2-1.3,2.4-2.9,3.4-4.6c0.3-0.3,0.6-0.7,0.9-1c0.4,0.1,0.9,0.3,1.3,0.4c1.7,1,3.5,1.8,5.2,2.3
	C364,238.1,363.5,238.8,363,239.5 M351.3,238.4c-1.4-1.1-2.9-2.5-4.5-4.2c-0.2-0.3-0.3-0.6-0.5-0.9c-0.1-0.1-0.1-0.2-0.2-0.4
	c0.4-0.3,0.8-0.6,1.2-1c1.4-1.2,2.8-2.6,3.9-4.1c1.1,1.5,2.4,2.9,3.9,4.1c0.4,0.3,0.8,0.6,1.2,1c-0.2,0.4-0.4,0.8-0.6,1.2
	C354.1,235.9,352.6,237.3,351.3,238.4 M348.8,240.1c-2.3,1.4-4.3,2-5.9,2c-0.1,0-0.2,0-0.4,0c-1-0.5-2-1.4-3-2.7
	c-0.5-0.6-1-1.4-1.4-2.2c1.8-0.5,3.5-1.3,5.2-2.3c0.4-0.2,0.9-0.3,1.3-0.5c0.3,0.4,0.6,0.7,0.9,1.1c0.4,0.6,0.8,1.3,1.2,1.9
	C347.4,238.4,348.1,239.3,348.8,240.1C348.9,240.1,348.8,240.1,348.8,240.1 M336.9,234.6c-0.6-1.6-1.2-3.6-1.8-5.8
	c0-0.5,0-0.9,0.1-1.4c2.4-0.3,4.8-0.9,7-1.9c0.3,2.3,0.9,4.7,1.8,6.9c-0.4,0.3-0.7,0.5-1.1,0.7C340.6,233.9,338.6,234.3,336.9,234.6
	 M333.3,234.9c-2.6,0-4.5-0.5-5.8-1.4c-0.9-1.3-1.4-3.2-1.4-5.8c0-0.2,0-0.4,0-0.7c1.7,0.4,3.6,0.6,5.4,0.6c0.1,0,0.1,0,0.2,0
	c0.4,0.1,0.9,0.2,1.4,0.2c0.1,0.5,0.2,0.9,0.2,1.3c0,0.1,0,0.2,0,0.2c0,1.9,0.2,3.7,0.6,5.4C333.7,234.9,333.5,234.9,333.3,234.9
	 M323.7,222.9c-0.9-0.5-1.6-0.9-2.2-1.4c-1.3-1-2.1-2-2.7-3c0-0.1,0-0.2,0-0.4c0-1.6,0.6-3.6,2-5.9c0,0,0,0,0,0
	c1.3,1.2,2.9,2.4,4.6,3.3c0.3,0.3,0.7,0.6,1,0.9c-0.2,0.4-0.3,0.9-0.5,1.3C325,219.5,324.2,221.2,323.7,222.9 M318.8,201.6
	c0-0.1,0-0.2,0-0.4c0.5-1,1.4-2,2.7-3c0.6-0.5,1.4-0.9,2.2-1.4c0.5,1.7,1.3,3.5,2.3,5.2c0.2,0.4,0.3,0.9,0.5,1.3
	c-0.4,0.3-0.7,0.6-1.1,0.9c-0.6,0.4-1.3,0.7-1.9,1.2c-1,0.7-1.9,1.4-2.7,2.2c0,0,0,0,0,0C319.3,205.2,318.8,203.2,318.8,201.6
	 M327.5,186.2c1.3-0.9,3.2-1.4,5.8-1.4c0.2,0,0.4,0,0.7,0c-0.4,1.7-0.6,3.5-0.6,5.4c0,0.1,0,0.2,0,0.2c-0.1,0.4-0.2,0.9-0.3,1.3
	c-0.5,0.1-0.9,0.2-1.3,0.2c-0.1,0-0.2,0-0.2,0c-1.9,0-3.7,0.2-5.4,0.6c0-0.2,0-0.4,0-0.6C326.1,189.4,326.6,187.6,327.5,186.2
	 M336.9,185.2c1.8,0.3,3.8,0.7,6,1.4c0.4,0.2,0.7,0.5,1.1,0.7c-0.9,2.2-1.6,4.6-1.9,6.9c-2.2-0.9-4.6-1.5-7-1.9
	c0-0.5-0.1-0.9-0.1-1.4C335.6,188.7,336.2,186.8,336.9,185.2 M339.5,180.3c1-1.3,2-2.1,3-2.7c0.1,0,0.2,0,0.4,0c1.6,0,3.6,0.6,5.9,2
	c0,0,0,0,0,0c-1.3,1.3-2.4,2.9-3.4,4.6c-0.3,0.3-0.6,0.7-0.9,1c-0.4-0.1-0.9-0.3-1.3-0.4c-1.7-1-3.5-1.8-5.2-2.3
	C338.6,181.6,339,180.9,339.5,180.3 M351.3,181.3c1.4,1.1,2.9,2.5,4.5,4.2c0.2,0.3,0.3,0.6,0.5,0.9c0.1,0.1,0.1,0.2,0.2,0.4
	c-0.4,0.3-0.8,0.6-1.2,1c-1.4,1.2-2.8,2.6-3.9,4.1c-1.1-1.5-2.4-2.9-3.9-4.1c-0.4-0.3-0.8-0.6-1.2-1c0.2-0.4,0.4-0.8,0.6-1.2
	C348.4,183.8,349.9,182.4,351.3,181.3 M353.7,179.6c2.3-1.4,4.3-2,5.9-2c0.1,0,0.2,0,0.4,0c1,0.5,2,1.4,3,2.7c0.5,0.6,1,1.4,1.4,2.2
	c-1.7,0.5-3.5,1.3-5.2,2.3c-0.4,0.2-0.9,0.3-1.3,0.5c-0.3-0.4-0.6-0.7-0.9-1.1c-0.4-0.6-0.7-1.3-1.2-1.9
	C355.2,181.3,354.4,180.4,353.7,179.6C353.7,179.6,353.7,179.6,353.7,179.6 M365.6,185.2c0.6,1.6,1.2,3.5,1.8,5.8
	c0,0.5,0,0.9-0.1,1.4c-2.4,0.3-4.8,0.9-7,1.9c-0.3-2.3-0.9-4.7-1.8-6.9c0.4-0.3,0.7-0.5,1.1-0.7
	C361.9,185.9,363.9,185.4,365.6,185.2 M369.2,184.8c2.6,0,4.5,0.5,5.8,1.4c0.9,1.3,1.4,3.2,1.4,5.8c0,0.2,0,0.4,0,0.7
	c-1.7-0.4-3.6-0.6-5.4-0.6c-0.1,0-0.1,0-0.2,0c-0.4-0.1-0.9-0.2-1.3-0.2c-0.1-0.5-0.2-0.9-0.2-1.3c0-0.1,0-0.1,0-0.2
	c0-1.9-0.2-3.7-0.6-5.4C368.8,184.9,369,184.8,369.2,184.8 M374.9,214.8c-0.1,0.1-0.2,0.1-0.4,0.2c-0.3-0.4-0.6-0.8-1-1.2
	c-1.2-1.4-2.6-2.7-4.1-3.8c1.5-1.1,2.9-2.4,4.1-3.8c0.3-0.4,0.7-0.8,1-1.2c0.4,0.2,0.8,0.4,1.2,0.6c1.7,1.6,3.1,3,4.2,4.4
	c-1.1,1.4-2.5,2.9-4.2,4.5C375.5,214.5,375.2,214.6,374.9,214.8 M367,218.9c2.4-0.3,4.7-0.9,7-1.8c0.3,0.4,0.5,0.7,0.7,1.1
	c0.7,2.2,1.1,4.2,1.4,6c-1.6,0.6-3.6,1.2-5.8,1.7c-0.5,0-0.9,0-1.4-0.1C368.6,223.4,368,221.1,367,218.9 M357.6,214.1
	c0.2-0.1,0.3-0.2,0.4-0.3c0.1-0.2,0.1-0.3,0.1-0.5c0.6,0.1,1.3,0.2,1.9,0.2c0.2,0,0.5,0,0.7-0.1c1.3,1,2.5,2.2,3.4,3.7
	c0.1,0.1,0.1,0.2,0.2,0.3c-1.9,0-3.7-0.4-5.3-1.1C358.6,215.5,358.2,214.8,357.6,214.1 M358.5,222.6c-1.5-0.9-2.8-2.1-3.8-3.4
	c0-0.2,0.1-0.5,0.1-0.7c0-0.6-0.1-1.3-0.2-1.9c0.2,0,0.4,0,0.5-0.1c0.2-0.1,0.3-0.2,0.3-0.4c0.7,0.6,1.4,1,2.2,1.4
	c0.7,1.6,1,3.3,1.1,5.2C358.7,222.8,358.6,222.7,358.5,222.6 M354.4,221.5c0.9,1,2,1.8,3.2,2.6c0.4,0.2,0.8,0.4,1.1,0.6
	c-0.2,2.2-0.8,4.5-1.6,6.6c-0.3-0.2-0.5-0.4-0.8-0.6c-1.5-1.3-2.9-2.8-4-4.3C353.3,224.9,354,223.2,354.4,221.5 M349.6,219.8
	c0.5-0.7,0.9-1.5,1.2-2.3c0.2,0.1,0.3,0.2,0.5,0.2c0.2,0,0.4-0.1,0.5-0.2c0.3,0.8,0.7,1.6,1.2,2.3c-0.2,1.7-0.8,3.4-1.7,5.1
	C350.3,223.2,349.7,221.5,349.6,219.8 M345,224.1c1.2-0.7,2.2-1.6,3.2-2.6c0.4,1.7,1.1,3.4,2.1,4.9c-1.1,1.6-2.4,3-4,4.3
	c-0.3,0.2-0.5,0.4-0.8,0.6c-0.9-2.2-1.4-4.4-1.6-6.6C344.2,224.5,344.6,224.3,345,224.1 M344.8,217.6c0.8-0.4,1.5-0.9,2.2-1.4
	c0.1,0.2,0.2,0.3,0.3,0.4c0.2,0.1,0.3,0.1,0.5,0.1c-0.1,0.6-0.2,1.3-0.2,1.9c0,0.2,0,0.5,0.1,0.7c-1,1.3-2.2,2.4-3.8,3.4
	c-0.1,0.1-0.2,0.1-0.3,0.2C343.8,220.9,344.1,219.2,344.8,217.6 M338.2,217.3c0.1-0.1,0.1-0.2,0.2-0.3c1-1.5,2.1-2.8,3.4-3.7
	c0.2,0,0.5,0.1,0.7,0.1c0.6,0,1.3-0.1,1.9-0.2c0,0.2,0,0.4,0.1,0.5c0.1,0.2,0.2,0.3,0.4,0.3c-0.6,0.7-1,1.4-1.4,2.2
	C341.9,217,340.1,217.3,338.2,217.3 M327.8,218.2c0.2-0.4,0.5-0.8,0.7-1.1c2.2,0.9,4.6,1.6,6.9,1.8c-0.9,2.2-1.6,4.5-1.9,6.9
	c-0.5,0-0.9,0.1-1.4,0.1c-2.2-0.5-4.2-1.1-5.8-1.7C326.6,222.4,327.1,220.4,327.8,218.2 M327.6,205c0.1-0.1,0.2-0.1,0.4-0.2
	c0.3,0.4,0.6,0.8,1,1.2c1.2,1.4,2.6,2.7,4.1,3.8c-1.5,1.1-2.9,2.4-4.1,3.8c-0.3,0.4-0.7,0.8-1,1.2c-0.4-0.2-0.8-0.4-1.2-0.6
	c-1.7-1.6-3.1-3-4.2-4.4c1.1-1.4,2.5-2.9,4.2-4.5C327,205.3,327.3,205.1,327.6,205 M335.5,200.8c-2.4,0.3-4.7,0.9-7,1.8
	c-0.3-0.4-0.5-0.7-0.7-1.1c-0.7-2.2-1.1-4.2-1.4-6c1.6-0.6,3.6-1.2,5.8-1.7c0.5,0,0.9,0,1.4,0.1
	C333.9,196.3,334.5,198.7,335.5,200.8 M336.2,209.9c1.6-0.9,3.4-1.5,5.1-1.7c0.7,0.5,1.5,0.9,2.4,1.2c-0.1,0.1-0.2,0.3-0.2,0.5
	c0,0.2,0.1,0.4,0.2,0.5c-0.8,0.3-1.6,0.7-2.4,1.2C339.6,211.4,337.9,210.8,336.2,209.9 M330.2,204.9c-0.2-0.3-0.4-0.5-0.6-0.8
	c2.2-0.9,4.5-1.4,6.7-1.6c0.2,0.4,0.4,0.7,0.6,1.1c0.7,1.2,1.6,2.2,2.6,3.1c-1.7,0.4-3.4,1.1-5,2.1
	C333,207.8,331.5,206.4,330.2,204.9 M339.5,213c-1,0.9-1.9,2-2.6,3.1c-0.2,0.4-0.4,0.8-0.6,1.1c-2.2-0.2-4.5-0.8-6.7-1.6
	c0.2-0.3,0.4-0.5,0.6-0.8c1.3-1.5,2.8-2.9,4.3-3.9C336.1,211.9,337.8,212.6,339.5,213 M344.9,205.7c-0.2,0.1-0.3,0.2-0.4,0.3
	c-0.1,0.2-0.1,0.3-0.1,0.5c-0.6-0.1-1.3-0.2-1.9-0.2c-0.2,0-0.5,0-0.7,0.1c-1.3-1-2.5-2.2-3.4-3.7c-0.1-0.1-0.1-0.2-0.2-0.3
	c1.9,0,3.7,0.4,5.3,1.1C343.9,204.2,344.4,205,344.9,205.7 M344,197.1c1.5,0.9,2.8,2.1,3.8,3.4c0,0.2-0.1,0.5-0.1,0.7
	c0,0.6,0.1,1.3,0.2,1.9c-0.2,0-0.4,0-0.5,0.1c-0.2,0.1-0.3,0.2-0.3,0.4c-0.7-0.6-1.4-1-2.2-1.4c-0.7-1.6-1-3.3-1.1-5.2
	C343.8,197,343.9,197,344,197.1 M348.1,198.2c-0.9-1-2-1.8-3.2-2.6c-0.4-0.2-0.8-0.4-1.1-0.6c0.2-2.2,0.8-4.5,1.6-6.6
	c0.3,0.2,0.5,0.4,0.8,0.6c1.5,1.3,2.9,2.7,4,4.3C349.3,194.8,348.5,196.5,348.1,198.2 M353,200c-0.5,0.7-0.9,1.5-1.2,2.3
	c-0.1-0.1-0.3-0.2-0.5-0.2c-0.2,0-0.4,0.1-0.5,0.2c-0.3-0.8-0.7-1.6-1.2-2.3c0.2-1.7,0.8-3.4,1.7-5.1
	C352.2,196.6,352.8,198.3,353,200 M357.6,195.6c-1.2,0.7-2.2,1.6-3.2,2.6c-0.4-1.7-1.1-3.4-2.1-4.9c1.1-1.6,2.4-3,4-4.3
	c0.3-0.2,0.5-0.4,0.8-0.6c0.9,2.2,1.4,4.4,1.6,6.6C358.3,195.2,357.9,195.4,357.6,195.6 M356.8,209.9c0,3-2.5,5.5-5.5,5.5
	c-3.1,0-5.5-2.5-5.5-5.5c0-3,2.5-5.5,5.5-5.5C354.3,204.4,356.8,206.8,356.8,209.9 M357.7,202.1c-0.8,0.4-1.5,0.9-2.2,1.4
	c-0.1-0.2-0.2-0.3-0.3-0.4c-0.2-0.1-0.3-0.1-0.5-0.1c0.1-0.6,0.2-1.3,0.2-1.9c0-0.2,0-0.5-0.1-0.7c1-1.3,2.2-2.4,3.8-3.4
	c0.1-0.1,0.2-0.1,0.3-0.2C358.7,198.8,358.4,200.6,357.7,202.1 M364.3,202.4c-0.1,0.1-0.1,0.2-0.2,0.3c-1,1.5-2.1,2.8-3.4,3.7
	c-0.2,0-0.5-0.1-0.7-0.1c-0.6,0-1.3,0.1-1.9,0.2c0-0.1,0-0.1,0-0.2c0-0.1-0.1-0.2-0.1-0.3c-0.1-0.1-0.1-0.2-0.2-0.3
	c-0.1,0-0.1-0.1-0.2-0.1c0.6-0.7,1-1.4,1.4-2.2C360.6,202.8,362.4,202.4,364.3,202.4 M367,200.8c0.9-2.2,1.6-4.5,1.9-6.9
	c0.5,0,0.9-0.1,1.4-0.1c2.2,0.5,4.2,1.1,5.8,1.7c-0.3,1.8-0.7,3.7-1.4,6c-0.2,0.4-0.5,0.7-0.7,1.1
	C371.8,201.7,369.4,201.1,367,200.8 M363,206.7c1-0.9,1.9-2,2.6-3.1c0.2-0.4,0.4-0.8,0.6-1.1c2.2,0.2,4.5,0.8,6.7,1.6
	c-0.2,0.3-0.4,0.5-0.6,0.8c-1.3,1.5-2.8,2.9-4.3,3.9C366.4,207.9,364.7,207.2,363,206.7 M368,210.9c1.6,1.1,3,2.4,4.3,3.9
	c0.2,0.3,0.4,0.5,0.6,0.8c-2.2,0.9-4.5,1.4-6.7,1.6c-0.2-0.4-0.4-0.7-0.6-1.1c-0.7-1.2-1.6-2.2-2.6-3.1
	C364.7,212.6,366.4,211.9,368,210.9 M359,209.8c0-0.2-0.1-0.3-0.2-0.4c0.8-0.3,1.6-0.7,2.3-1.2c1.7,0.2,3.4,0.8,5.1,1.7
	c-1.6,0.9-3.4,1.5-5.1,1.7c-0.7-0.5-1.5-0.9-2.3-1.2C359,210.2,359.1,210,359,209.8 M360.5,196c2-0.9,4.3-1.6,6.6-1.9
	c-0.3,2.3-1,4.6-1.9,6.6c-0.2,0-0.4,0-0.6,0c-1.6,0-3.2,0.2-4.7,0.7c0.4-1.5,0.7-3.1,0.7-4.7C360.5,196.4,360.5,196.2,360.5,196
	 M342.6,201.3c-1.5-0.4-3.1-0.7-4.7-0.7c-0.2,0-0.4,0-0.6,0c-0.9-2-1.6-4.3-1.9-6.6c2.3,0.3,4.6,1,6.6,1.9c0,0.2,0,0.4,0,0.6
	C342,198.2,342.2,199.8,342.6,201.3 M342,223.7c-2,0.9-4.3,1.6-6.6,1.9c0.3-2.3,1-4.6,1.9-6.6c0.2,0,0.4,0,0.6,0
	c1.6,0,3.2-0.2,4.7-0.7c-0.4,1.5-0.7,3.1-0.7,4.7C342,223.3,342,223.5,342,223.7 M359.9,218.4c1.5,0.4,3.1,0.7,4.7,0.7
	c0.2,0,0.4,0,0.6,0c0.9,2,1.6,4.3,1.9,6.6c-2.3-0.3-4.6-1-6.6-1.9c0-0.2,0-0.4,0-0.6C360.5,221.5,360.3,219.9,359.9,218.4
	 M378.8,196.8c0.9,0.5,1.6,0.9,2.2,1.4c1.3,1,2.1,2,2.7,3c0,0.1,0,0.2,0,0.4c0,1.6-0.6,3.6-2,5.9c0,0,0,0,0,0
	c-1.3-1.2-2.9-2.4-4.6-3.3c-0.3-0.3-0.7-0.6-1-0.9c0.2-0.4,0.3-0.9,0.5-1.3C377.5,200.3,378.3,198.5,378.8,196.8 M383.6,211.4
	l-1-1.7l-0.1,0.1l0,0l1-1.4c0-0.1,0.1-0.1,0.1-0.2c1.5-2.4,2.3-4.7,2.3-6.8c0-0.2,0-0.3,0-0.4c0,0,0-0.1,0-0.1l0-0.3l-0.2-0.3
	c-0.7-1.3-1.7-2.5-3.2-3.6c-0.7-0.5-1.6-1.1-2.5-1.6l-1.6-0.9l0.1-1.8c0-0.1,0-0.1,0-0.2c0-0.2,0-0.3,0-0.5c0-2.8-0.6-5.1-1.7-6.8
	l-0.2-0.3l-0.3-0.2c-1.7-1.1-4-1.7-6.8-1.7c-0.2,0-0.3,0-0.5,0c-0.1,0-0.1,0-0.2,0l-1.8,0.1l-0.9-1.6c-0.5-0.9-1-1.8-1.6-2.5
	c-1.1-1.4-2.3-2.5-3.6-3.2l-0.3-0.2l-0.3,0c0,0-0.1,0-0.1,0c-0.1,0-0.3,0-0.4,0c-2.1,0-4.4,0.8-6.8,2.3c-0.1,0.1-0.2,0.1-0.2,0.1
	l-1.3,1l0,0l0.1-0.1l-1.8-1l0,0c-2.5-1.5-4.8-2.3-6.9-2.3c-0.1,0-0.3,0-0.4,0c0,0-0.1,0-0.1,0l-0.3,0l-0.3,0.2
	c-1.3,0.7-2.5,1.7-3.6,3.2c-0.5,0.7-1.1,1.5-1.6,2.5l-0.9,1.6l-1.8-0.1c-0.1,0-0.1,0-0.2,0c-0.2,0-0.3,0-0.5,0
	c-2.8,0-5.1,0.6-6.8,1.7l-0.3,0.2l-0.2,0.3c-1.1,1.7-1.7,4-1.7,6.8c0,0.1,0,0.3,0,0.5c0,0.1,0,0.1,0,0.2l0,1.9l-1.6,0.9
	c-0.9,0.5-1.8,1-2.5,1.6c-1.5,1.1-2.5,2.3-3.2,3.6l-0.2,0.3l0,0.4c0,0.1,0,0.2,0,0.4c0,2.1,0.8,4.4,2.3,6.8l0.9,2l0.3-0.3l0,0
	l-1,1.4l-0.1,0.2c-1.5,2.4-2.3,4.7-2.3,6.8c0,0.2,0,0.3,0,0.4c0,0,0,0.1,0,0.1l0,0.3l0.2,0.3c0.7,1.3,1.7,2.5,3.2,3.6
	c0.7,0.5,1.5,1.1,2.5,1.6l1.6,0.9l-0.1,1.8c0,0.1,0,0.1,0,0.2c0,0.2,0,0.3,0,0.5c0,2.8,0.6,5.1,1.7,6.8l0.2,0.3l0.3,0.2
	c1.7,1.1,4,1.7,6.8,1.7c0.2,0,0.3,0,0.5,0c0.1,0,0.1,0,0.2,0l1.8-0.1l0.9,1.6c0.5,0.9,1,1.8,1.6,2.5c1.1,1.5,2.3,2.5,3.6,3.2
	l0.3,0.2l0.4,0c0,0,0.1,0,0.1,0c0.1,0,0.2,0,0.4,0h0c2.1,0,4.4-0.8,6.9-2.3c0,0,0,0,0,0l1.8-1l-0.1-0.2l0,0l1.3,1
	c0,0,0.1,0.1,0.2,0.1c2.5,1.5,4.8,2.3,6.9,2.3c0.2,0,0.3,0,0.4,0c0,0,0.1,0,0.1,0l0.4,0l0.3-0.2c1.3-0.7,2.5-1.7,3.6-3.2
	c0.5-0.7,1.1-1.6,1.6-2.5l0.9-1.6l1.8,0.1c0.1,0,0.1,0,0.2,0c0.2,0,0.3,0,0.5,0h0c2.8,0,5.1-0.6,6.8-1.7l0.3-0.2l0.2-0.3
	c1.1-1.7,1.7-4,1.7-6.8c0-0.1,0-0.3,0-0.5c0-0.1,0-0.1,0-0.2l-0.1-1.8l1.6-0.9c0.9-0.5,1.8-1,2.5-1.6c1.4-1.1,2.5-2.3,3.2-3.6
	l0.2-0.3l0-0.3c0,0,0-0.1,0-0.1c0-0.1,0-0.2,0-0.4C385.9,216.2,385.1,213.9,383.6,211.4C383.6,211.5,383.6,211.4,383.6,211.4"/>
<text transform="matrix(1 0 0 1 220.3831 314.2834)"><tspan x="0" y="0" class="st2 st3 st4 st5">VE</tspan><tspan x="92.9" y="0" class="st2 st3 st4">L</tspan><tspan x="128.5" y="0" class="st2 st3 st4 st5">VE</tspan><tspan x="221.4" y="0" class="st2 st3 st4">T</tspan></text>
</svg>
