<?xml version="1.0" encoding="utf-8"?>
<!-- Generator: Adobe Illustrator 24.1.0, SVG Export Plug-In . SVG Version: 6.00 Build 0)  -->
<svg version="1.1" id="Layer_1" xmlns="http://www.w3.org/2000/svg" xmlns:xlink="http://www.w3.org/1999/xlink" x="0px" y="0px"
	 viewBox="0 0 768.2 561.4" style="enable-background:new 0 0 768.2 561.4;" xml:space="preserve">
<style type="text/css">
	.st0{fill:#C09D5D;}
	.st1{fill:#FFFFFF;}
</style>
<path class="st0" d="M215,536.3v1.8c0,0.4-0.2,0.6-0.6,0.6h-26.4c-0.4,0-0.6-0.3-0.6-0.7v-44.3c0-1-0.1-1.6-0.2-2.4
	c0-0.4,0.1-0.7,0.5-0.7h1.8c0.8,0,1.1,0.3,1.1,1v43.9h23.8C214.8,535.7,215,535.8,215,536.3"/>
<path class="st0" d="M281.9,536c11.8,0,21.6-9.4,21.6-21.3c0-11.9-9.7-21.3-21.6-21.3c-11.9,0-21.7,9.4-21.7,21.3
	C260.2,526.6,270,536,281.9,536 M281.9,539.1c-13.8,0-24.9-10.7-24.9-24.4c0-13.6,11.1-24.4,24.9-24.4c13.6,0,24.7,10.8,24.7,24.4
	C306.6,528.5,295.5,539.1,281.9,539.1"/>
<path class="st0" d="M380.9,490.7c0.5,0,0.6,0.1,0.6,0.6V521c-0.1,9.4-7.2,18.2-19.1,18.2c-11.8,0-18.8-8.8-18.8-18.2v-29.6
	c0-0.5,0.2-0.6,0.7-0.6h1.9c0.5,0,0.7,0.1,0.7,0.6v28.8c0,11.5,8.8,15.9,15.6,15.9c6.8,0,15.9-4.4,15.9-15.9v-28.8
	c0-0.5,0.1-0.6,0.6-0.6H380.9z"/>
<path class="st0" d="M463.8,491.2v47c0,0.3-0.2,0.5-0.5,0.5h-1c-0.6,0-1.1-0.4-1.9-1.2l-34.6-41.1v41.7c0,0.4-0.2,0.6-0.5,0.6h-2
	c-0.4,0-0.6-0.2-0.6-0.6v-46.8c0-0.3,0.2-0.5,0.5-0.5h1.4c0.4,0,0.6,0.2,0.9,0.6l35.1,41.8v-41.9c0-0.3,0.1-0.5,0.4-0.5h2.2
	C463.6,490.7,463.8,490.9,463.8,491.2"/>
<path class="st0" d="M545.2,531.2c0.1,0.3-0.2,0.7-0.5,1.1c-4.5,4.3-10.1,6.9-17.3,6.9c-13.6,0-24.7-10.7-24.7-24.3
	c0-13.6,11.1-24.5,24.7-24.5c6.8,0,12.9,2.5,17.3,6.8c0.5,0.5,0.7,0.9,0.4,1.1l-1.6,1.3c-0.3,0.3-0.5,0.3-1-0.1
	c-2.6-2.6-7.9-6.1-14.6-6.1c-14.7,0-22.1,11.8-22.1,21.3c0,9.8,7.4,21.2,22.1,21.2c6.5,0,11.3-3.1,14.1-5.7v-6.4h-14
	c-0.4,0-0.7-0.1-0.7-0.5v-1.8c0-0.5,0.2-0.7,0.7-0.7h16.5c0.5,0,0.7,0.1,0.7,0.7V531.2z"/>
<path class="st0" d="M592,493.8v19.7h17.9c0.5,0,0.7,0.2,0.7,0.7v1.7c0,0.5-0.2,0.7-0.7,0.7H592v19.1h27.9c0.5,0,0.7,0.2,0.7,0.7
	v1.7c0,0.5-0.2,0.7-0.7,0.7h-30.5c-0.4,0-0.6-0.2-0.6-0.6v-46.8c0-0.4,0.2-0.6,0.7-0.6h30.5c0.5,0,0.7,0.2,0.7,0.6v1.9
	c0,0.4-0.2,0.6-0.7,0.6H592z"/>
<path class="st0" d="M481.3,139.6c-1.5,2.9-3.9,5.7-7.5,8.5c-1.8,1.4-3.9,2.7-6.3,4c-1.5-4.9-3.7-9.9-6.6-14.6
	c-0.4-1.2-0.9-2.4-1.3-3.7c1-0.9,2-1.7,3-2.5c1.8-1,3.6-2.1,5.3-3.3c2.8-1.9,5.4-3.9,7.7-6.1c0,0,0,0.1,0.1,0.1
	c4.1,6.5,5.7,12.1,5.7,16.6C481.4,138.9,481.4,139.3,481.3,139.6 M456.8,181.8c-3.8,2.4-9.1,4-16.5,4c-0.6,0-1.3-0.1-1.8-0.1
	c1.1-4.8,1.7-10,1.7-15.3c0-0.2,0-0.4,0-0.6c0.2-1.2,0.4-2.5,0.7-3.8c1.3-0.3,2.5-0.5,3.8-0.7c0.2,0,0.4,0,0.7,0
	c5.3,0,10.5-0.6,15.4-1.7c0,0.6,0.1,1.2,0.1,1.8C460.8,172.8,459.2,178.1,456.8,181.8 M430.3,184.9c-5-0.7-10.7-2-17-3.9
	c-1.1-0.7-2.1-1.4-3.2-2.1c2.6-6.3,4.5-12.9,5.3-19.5c6.1,2.6,12.9,4.4,19.6,5.2c0.1,1.3,0.2,2.7,0.2,4
	C433.7,174.9,432.1,180.3,430.3,184.9 M422.8,198.8c-2.8,3.6-5.7,6-8.5,7.5c-0.4,0-0.7,0.1-1.1,0.1c-4.6,0-10.2-1.6-16.7-5.7
	c0,0-0.1,0-0.1-0.1c3.5-3.8,6.7-8.1,9.5-13c0.8-1,1.6-1.9,2.5-2.9c1.3,0.4,2.5,0.8,3.7,1.3c4.8,2.8,9.8,5,14.7,6.5
	C425.5,194.9,424.2,197,422.8,198.8 M389.7,195.7c-3.9-3.1-8.2-7-12.7-11.8c-0.4-0.8-0.9-1.6-1.3-2.4c-0.2-0.3-0.3-0.7-0.4-1
	c1.2-0.9,2.3-1.8,3.4-2.7c4.1-3.5,7.8-7.4,10.9-11.6c3.2,4.2,6.8,8.1,10.9,11.6c1.1,0.9,2.3,1.8,3.4,2.7c-0.6,1.2-1.2,2.3-1.8,3.5
	C397.8,188.7,393.6,192.6,389.7,195.7 M382.8,200.6c-6.6,4-12.1,5.7-16.7,5.7c-0.4,0-0.7-0.1-1-0.1c-2.9-1.5-5.7-3.9-8.6-7.5
	c-1.4-1.8-2.7-3.9-4-6.3c4.9-1.5,9.9-3.7,14.7-6.5c1.2-0.4,2.4-0.9,3.7-1.3c0.9,1,1.7,2,2.5,3c1,1.8,2.1,3.6,3.3,5.3
	C378.6,195.7,380.7,198.3,382.8,200.6C382.9,200.6,382.8,200.6,382.8,200.6 M349,184.9c-1.8-4.6-3.5-10-5-16.3c0-1.3,0.1-2.6,0.2-4
	c6.8-0.9,13.5-2.6,19.7-5.3c0.8,6.6,2.6,13.2,5.2,19.5c-1,0.7-2.1,1.4-3.2,2.1C359.7,182.9,354,184.2,349,184.9 M339,185.8
	c-7.4,0-12.7-1.5-16.4-4c-2.5-3.7-4-9-4-16.4c0-0.6,0.1-1.2,0.1-1.8c4.8,1.1,10,1.7,15.4,1.7c0.2,0,0.4,0,0.6,0
	c1.2,0.2,2.5,0.4,3.8,0.7c0.3,1.3,0.5,2.5,0.7,3.7c0,0.2,0,0.5,0,0.7c0,5.3,0.6,10.5,1.7,15.3C340.2,185.7,339.5,185.8,339,185.8
	 M311.8,152.1c-2.4-1.3-4.5-2.6-6.3-4c-3.7-2.8-6.1-5.6-7.5-8.5c0-0.4-0.1-0.7-0.1-1.1c0-4.6,1.6-10.1,5.7-16.6c0,0,0-0.1,0.1-0.1
	c3.8,3.5,8.2,6.7,13.1,9.4c1,0.8,1.9,1.6,2.9,2.5c-0.4,1.3-0.9,2.5-1.3,3.7C315.6,142.2,313.3,147.2,311.8,152.1 M297.9,91.7
	c0-0.4,0-0.7,0.1-1c1.5-2.9,3.9-5.7,7.5-8.5c1.8-1.4,3.9-2.7,6.3-4c1.5,4.9,3.7,9.8,6.6,14.6c0.4,1.2,0.9,2.4,1.3,3.7
	c-1,0.9-2,1.7-3,2.5c-1.8,1-3.6,2.1-5.3,3.3c-2.8,1.9-5.4,3.9-7.7,6.1c0,0,0-0.1-0.1-0.1C299.5,101.8,297.9,96.3,297.9,91.7
	 M322.5,48.5c3.8-2.4,9.1-4,16.5-4c0.6,0,1.3,0.1,1.9,0.1c-1.1,4.8-1.7,10-1.7,15.3c0,0.2,0,0.5,0,0.7c-0.2,1.2-0.4,2.4-0.7,3.7
	c-1.3,0.3-2.5,0.5-3.8,0.7c-0.2,0-0.4,0-0.7,0c-5.3,0-10.5,0.6-15.4,1.7c0-0.6-0.1-1.2-0.1-1.8C318.5,57.4,320.1,52.2,322.5,48.5
	 M349,45.4c5,0.7,10.7,2,17,3.9c1.1,0.6,2.1,1.3,3.1,2.1c-2.6,6.3-4.5,12.9-5.3,19.5c-6.1-2.6-12.9-4.4-19.6-5.2
	c-0.1-1.3-0.2-2.6-0.2-4C345.6,55.4,347.2,50,349,45.4 M356.5,31.5c2.8-3.6,5.7-6,8.5-7.5c0.4,0,0.7-0.1,1.1-0.1
	c4.6,0,10.2,1.6,16.7,5.7c0,0,0.1,0,0.1,0.1c-3.5,3.8-6.7,8.2-9.5,13c-0.8,1-1.6,1.9-2.5,2.9c-1.3-0.4-2.5-0.8-3.7-1.3
	c-4.8-2.8-9.8-5-14.7-6.5C353.8,35.4,355.1,33.3,356.5,31.5 M389.7,34.6c3.9,3.1,8.2,7,12.6,11.8c0.4,0.8,0.9,1.6,1.3,2.4
	c0.2,0.3,0.3,0.7,0.4,1c-1.2,0.9-2.3,1.8-3.4,2.7c-4.1,3.5-7.8,7.4-10.9,11.6c-3.2-4.2-6.9-8.1-10.9-11.6c-1.1-0.9-2.3-1.8-3.4-2.7
	c0.6-1.2,1.2-2.3,1.8-3.5C381.5,41.6,385.7,37.7,389.7,34.6 M396.5,29.7c6.6-4,12.1-5.7,16.7-5.7c0.4,0,0.7,0.1,1,0.1
	c2.9,1.5,5.7,3.8,8.6,7.5c1.4,1.8,2.7,3.9,4,6.3c-4.9,1.5-9.9,3.7-14.7,6.5c-1.2,0.4-2.4,0.9-3.7,1.3c-0.9-1-1.7-2-2.6-3
	c-1-1.8-2.1-3.6-3.3-5.3C400.7,34.6,398.6,32,396.5,29.7C396.4,29.7,396.5,29.7,396.5,29.7 M430.3,45.4c1.8,4.6,3.5,10,4.9,16.3
	c0,1.3-0.1,2.7-0.2,4c-6.8,0.9-13.5,2.6-19.7,5.3c-0.8-6.6-2.6-13.2-5.2-19.5c1-0.7,2.1-1.4,3.2-2.1
	C419.6,47.4,425.3,46.1,430.3,45.4 M440.3,44.5c7.4,0,12.7,1.5,16.5,4c2.4,3.7,4,9,4,16.3c0,0.6-0.1,1.2-0.1,1.8
	c-4.8-1.1-10-1.7-15.4-1.7c-0.2,0-0.4,0-0.6,0c-1.2-0.2-2.5-0.4-3.8-0.7c-0.3-1.3-0.5-2.5-0.7-3.8c0-0.2,0-0.4,0-0.6
	c0-5.3-0.6-10.5-1.7-15.3C439.1,44.6,439.8,44.5,440.3,44.5 M456.5,129c-0.3,0.2-0.7,0.3-1,0.4c-0.9-1.1-1.8-2.3-2.7-3.4
	c-3.5-4-7.4-7.7-11.7-10.9c4.2-3.1,8.2-6.8,11.7-10.9c0.9-1.1,1.8-2.3,2.7-3.4c1.2,0.6,2.3,1.2,3.5,1.8c4.8,4.4,8.7,8.6,11.8,12.5
	c-3.1,3.9-7.1,8.1-11.9,12.6C458.1,128.2,457.3,128.6,456.5,129 M434.2,140.7c6.6-0.8,13.3-2.6,19.6-5.2c0.7,1,1.4,2.1,2.1,3.1
	c1.9,6.3,3.2,11.9,4,16.9c-4.6,1.8-10.1,3.5-16.4,4.9c-1.3,0-2.7-0.1-4-0.2C438.6,153.5,436.9,146.8,434.2,140.7 M407.6,127
	c0.4-0.2,0.9-0.5,1.1-1c0.3-0.5,0.3-1,0.3-1.5c1.8,0.3,3.6,0.5,5.4,0.5c0.7,0,1.3-0.1,2-0.2c3.7,2.7,7,6.3,9.6,10.5
	c0.2,0.3,0.3,0.6,0.5,0.8c-5.3-0.1-10.4-1-14.8-3C410.5,131.1,409.2,129,407.6,127 M410.1,151.2c-4.3-2.7-7.8-5.9-10.6-9.6
	c0-0.7,0.2-1.3,0.2-2c0-1.8-0.2-3.5-0.5-5.3c0.5,0,1,0,1.5-0.3c0.5-0.3,0.8-0.7,1-1.1c2,1.6,4.1,2.9,6.3,4c1.9,4.5,2.9,9.4,3,14.7
	C410.6,151.5,410.3,151.4,410.1,151.2 M398.5,148.1c2.6,2.8,5.6,5.2,8.9,7.3c1,0.7,2.1,1.2,3.2,1.8c-0.6,6.2-2.2,12.6-4.7,18.7
	c-0.8-0.6-1.5-1.2-2.3-1.8c-4.3-3.7-8.1-7.8-11.2-12.1C395.3,157.6,397.4,152.9,398.5,148.1 M384.8,143.1c1.4-2,2.5-4.3,3.4-6.6
	c0.4,0.3,0.9,0.5,1.5,0.5s1-0.2,1.5-0.5c0.9,2.3,2,4.5,3.4,6.6c-0.5,4.8-2.2,9.6-4.8,14.3C387.1,152.7,385.4,147.9,384.8,143.1
	 M371.8,155.4c3.3-2.1,6.3-4.5,8.9-7.3c1.2,4.8,3.2,9.5,5.9,13.9c-3.1,4.4-6.9,8.5-11.2,12.1c-0.7,0.6-1.5,1.2-2.3,1.8
	c-2.4-6.1-4-12.5-4.6-18.8C369.8,156.6,370.8,156,371.8,155.4 M371.4,137c2.2-1.1,4.3-2.4,6.3-4c0.2,0.4,0.5,0.9,1,1.1
	c0.5,0.3,1,0.3,1.5,0.3c-0.3,1.8-0.5,3.6-0.5,5.3c0,0.7,0.1,1.3,0.2,2c-2.8,3.7-6.3,6.9-10.6,9.6c-0.3,0.2-0.6,0.3-0.8,0.5
	C368.5,146.4,369.5,141.4,371.4,137 M352.9,136.3c0.2-0.3,0.3-0.5,0.5-0.8c2.7-4.2,5.9-7.8,9.6-10.5c0.7,0,1.3,0.2,2,0.2
	c1.8,0,3.6-0.2,5.4-0.5c0,0.5,0,1,0.3,1.5c0.3,0.5,0.7,0.8,1.1,1c-1.6,2-2.9,4.1-4.1,6.3C363.2,135.2,358.2,136.2,352.9,136.3
	 M323.4,138.7c0.7-1.1,1.4-2.1,2.1-3.2c6.3,2.6,13,4.4,19.6,5.2c-2.6,6.1-4.4,12.8-5.3,19.5c-1.3,0.1-2.7,0.2-4,0.2
	c-6.3-1.5-11.8-3.1-16.4-4.9C320.2,150.5,321.4,144.9,323.4,138.7 M322.8,101.3c0.3-0.2,0.7-0.3,1-0.4c0.9,1.2,1.8,2.3,2.7,3.4
	c3.5,4.1,7.4,7.7,11.6,10.9c-4.2,3.1-8.2,6.8-11.6,10.9c-1,1.1-1.8,2.3-2.7,3.4c-1.2-0.6-2.3-1.2-3.5-1.8
	c-4.8-4.4-8.7-8.6-11.8-12.5c3.1-3.9,7.1-8.1,11.9-12.6C321.2,102.1,322,101.7,322.8,101.3 M345.1,89.6c-6.7,0.8-13.3,2.6-19.6,5.2
	c-0.7-1-1.4-2.1-2.1-3.1c-1.9-6.3-3.2-11.9-4-16.9c4.6-1.8,10.1-3.5,16.4-4.9c1.3,0,2.7,0.1,4,0.2C340.7,76.8,342.4,83.5,345.1,89.6
	 M347.2,115.2c4.6-2.6,9.5-4.2,14.4-4.8c2.1,1.3,4.3,2.4,6.6,3.3c-0.3,0.4-0.5,0.9-0.5,1.4c0,0.5,0.2,1,0.5,1.5
	c-2.3,0.9-4.6,2-6.6,3.3C356.7,119.4,351.8,117.7,347.2,115.2 M330.3,101.1c-0.6-0.7-1.2-1.5-1.8-2.2c6.2-2.4,12.6-4,18.9-4.5
	c0.6,1.1,1.1,2.1,1.8,3.1c2.1,3.3,4.5,6.3,7.3,8.9c-4.9,1.1-9.6,3.2-14,5.9C338.1,109.2,334,105.4,330.3,101.1 M356.5,124
	c-2.8,2.6-5.3,5.6-7.3,8.9c-0.6,1-1.2,2.1-1.8,3.2c-6.3-0.5-12.7-2.2-18.9-4.6c0.6-0.8,1.2-1.5,1.8-2.3c3.7-4.3,7.8-8.1,12.2-11.1
	C346.9,120.8,351.6,122.8,356.5,124 M371.8,103.3c-0.5,0.2-0.9,0.5-1.1,1c-0.3,0.4-0.3,1-0.3,1.5c-1.8-0.3-3.6-0.5-5.4-0.5
	c-0.7,0-1.3,0.1-2,0.2c-3.7-2.7-7-6.3-9.6-10.5c-0.2-0.3-0.3-0.5-0.5-0.8c5.3,0.1,10.4,1,14.8,3C368.8,99.2,370.1,101.3,371.8,103.3
	 M369.2,79.1c4.3,2.7,7.8,5.9,10.6,9.6c0,0.7-0.2,1.3-0.2,2c0,1.8,0.2,3.6,0.5,5.3c-0.5,0-1,0-1.5,0.3c-0.4,0.3-0.8,0.7-1,1.1
	c-2-1.6-4.1-2.9-6.3-4c-1.9-4.5-2.9-9.4-3-14.7C368.7,78.8,369,78.9,369.2,79.1 M380.8,82.2c-2.6-2.8-5.6-5.2-8.9-7.3
	c-1-0.6-2.1-1.2-3.2-1.8c0.6-6.2,2.2-12.6,4.7-18.7c0.8,0.6,1.5,1.2,2.3,1.8c4.3,3.7,8.1,7.8,11.2,12.1
	C384,72.7,381.9,77.4,380.8,82.2 M394.5,87.2c-1.4,2.1-2.5,4.3-3.4,6.6c-0.4-0.3-0.9-0.5-1.5-0.5c-0.5,0-1,0.2-1.5,0.5
	c-0.9-2.3-2-4.6-3.4-6.6c0.6-4.8,2.2-9.6,4.8-14.3C392.2,77.6,393.9,82.4,394.5,87.2 M407.5,74.9c-3.3,2.1-6.3,4.5-8.9,7.3
	c-1.1-4.8-3.2-9.5-5.9-13.9c3.1-4.4,6.9-8.5,11.2-12.1c0.7-0.6,1.5-1.2,2.3-1.8c2.4,6.1,4,12.5,4.6,18.8
	C409.5,73.7,408.5,74.3,407.5,74.9 M405.3,115.2c0,8.6-7,15.5-15.6,15.5s-15.6-7-15.6-15.5c0-8.6,7-15.5,15.6-15.5
	S405.3,106.6,405.3,115.2 M407.9,93.3c-2.2,1.1-4.3,2.4-6.3,4c-0.2-0.5-0.5-0.9-1-1.1c-0.4-0.3-1-0.3-1.5-0.3
	c0.3-1.8,0.5-3.6,0.5-5.3c0-0.7-0.1-1.3-0.2-2c2.8-3.7,6.3-6.9,10.6-9.6c0.3-0.2,0.6-0.3,0.8-0.5C410.8,83.9,409.8,88.9,407.9,93.3
	 M426.4,94c-0.2,0.3-0.3,0.6-0.5,0.8c-2.7,4.2-5.9,7.8-9.6,10.5c-0.7,0-1.3-0.2-2-0.2c-1.8,0-3.6,0.2-5.4,0.5c0-0.2,0.1-0.4,0-0.6
	c0-0.3-0.1-0.6-0.3-0.9c-0.2-0.3-0.4-0.5-0.6-0.7c-0.2-0.1-0.3-0.2-0.5-0.3c1.6-2,2.9-4,4.1-6.3C416.1,95.1,421.1,94.1,426.4,94
	 M434.2,89.6c2.6-6.1,4.4-12.8,5.3-19.5c1.3-0.1,2.7-0.2,4-0.2c6.3,1.5,11.7,3.1,16.4,4.9c-0.7,5-2,10.6-4,16.8
	c-0.7,1.1-1.4,2.1-2.1,3.2C447.5,92.2,440.9,90.4,434.2,89.6 M422.8,106.3c2.8-2.6,5.3-5.6,7.3-8.9c0.7-1,1.2-2.1,1.8-3.2
	c6.3,0.6,12.7,2.2,18.9,4.6c-0.6,0.8-1.2,1.5-1.8,2.3c-3.7,4.3-7.8,8.1-12.2,11.1C432.4,109.5,427.7,107.5,422.8,106.3 M436.8,118.1
	c4.4,3.1,8.6,6.9,12.2,11.1c0.6,0.7,1.2,1.5,1.8,2.2c-6.2,2.4-12.6,4-18.9,4.5c-0.6-1.1-1.1-2.1-1.8-3.1c-2.1-3.3-4.5-6.3-7.3-8.9
	C427.7,122.8,432.4,120.8,436.8,118.1 M411.6,114.9c-0.1-0.4-0.3-0.8-0.5-1.2c2.4-0.9,4.6-2,6.6-3.3c4.9,0.5,9.7,2.2,14.4,4.8
	c-4.7,2.6-9.5,4.2-14.4,4.8c-2-1.3-4.3-2.4-6.6-3.3C411.5,116.1,411.7,115.5,411.6,114.9 M415.8,76.1c5.7-2.6,12.1-4.5,18.7-5.4
	c-1,6.5-2.8,12.9-5.4,18.5c-0.6,0-1.2-0.1-1.8-0.1c-4.6,0-9,0.6-13.3,1.9c1.3-4.2,1.9-8.6,1.9-13.2
	C415.8,77.2,415.8,76.6,415.8,76.1 M365.3,91c-4.2-1.2-8.7-1.9-13.3-1.9c-0.6,0-1.2,0.1-1.8,0.1c-2.7-5.7-4.5-12.1-5.5-18.6
	c6.5,1,13,2.8,18.7,5.4c0,0.6-0.1,1.2-0.1,1.8C363.5,82.3,364.1,86.8,365.3,91 M363.5,154.2c-5.7,2.7-12.1,4.5-18.7,5.4
	c1-6.5,2.8-12.9,5.4-18.5c0.6,0,1.2,0.1,1.8,0.1c4.6,0,9-0.6,13.3-1.9c-1.2,4.2-1.9,8.6-1.9,13.2
	C363.5,153.1,363.5,153.7,363.5,154.2 M414,139.3c4.2,1.2,8.7,1.9,13.3,1.9c0.6,0,1.2-0.1,1.8-0.1c2.7,5.7,4.5,12.1,5.5,18.6
	c-6.5-0.9-12.9-2.8-18.7-5.4c0-0.6,0.1-1.2,0.1-1.8C415.8,148,415.2,143.5,414,139.3 M467.5,78.2c2.4,1.3,4.5,2.6,6.3,4
	c3.7,2.8,6.1,5.6,7.5,8.5c0,0.4,0.1,0.7,0.1,1.1c0,4.6-1.7,10.1-5.7,16.6c0,0,0,0.1-0.1,0.1c-3.8-3.5-8.2-6.7-13.1-9.4
	c-1-0.8-1.9-1.6-2.9-2.5c0.4-1.3,0.9-2.5,1.3-3.7C463.7,88.1,466,83.1,467.5,78.2 M480.9,119.5l-2.9-4.8l-0.2,0.2l0-0.1l2.9-3.8
	c0.1-0.2,0.3-0.4,0.4-0.6c4.3-6.9,6.4-13.3,6.4-19.2c0-0.4,0-0.8-0.1-1.1c0-0.1,0-0.2,0-0.2l-0.1-1l-0.4-0.9c-1.9-3.7-4.8-7-9-10.2
	c-2-1.5-4.4-3-7.1-4.4l-4.6-2.4l0.2-5.2c0-0.2,0-0.4,0-0.6c0-0.5,0.1-0.9,0.1-1.4c0-7.8-1.6-14.3-4.8-19.1l-0.5-0.8l-0.8-0.5
	c-4.9-3.2-11.4-4.8-19.2-4.8c-0.5,0-1,0-1.4,0.1c-0.2,0-0.4,0-0.6,0l-5.2,0.2l-2.5-4.6c-1.4-2.6-2.9-5-4.5-7c-3.1-4-6.6-7-10.3-8.9
	l-0.9-0.4l-1-0.1c-0.1,0-0.2,0-0.2,0c-0.4,0-0.7-0.1-1.1-0.1c-5.9,0-12.4,2.2-19.3,6.4c-0.3,0.2-0.5,0.4-0.6,0.4l-3.7,2.9l-0.1-0.1
	l0.4-0.4l-5.1-2.7l0,0c-7-4.3-13.5-6.4-19.4-6.4c-0.4,0-0.7,0-1.1,0.1c-0.1,0-0.2,0-0.2,0l-1,0.1l-0.9,0.4
	c-3.7,1.9-7.1,4.9-10.2,8.9c-1.5,2-3,4.4-4.5,7l-2.5,4.6l-5.1-0.2c-0.2,0-0.4,0-0.6,0c-0.4,0-0.9-0.1-1.4-0.1
	c-7.9,0-14.4,1.6-19.2,4.8l-0.8,0.5l-0.5,0.8c-3.2,4.8-4.8,11.3-4.8,19.1c0,0.4,0,0.9,0.1,1.3c0,0.2,0,0.4,0,0.6l0.1,5.2l-4.6,2.4
	c-2.7,1.4-5,2.9-7,4.4c-4.1,3.1-7.1,6.5-9,10.2l-0.4,0.8l-0.1,1.2c0,0.3-0.1,0.7-0.1,1.1c0,5.8,2.1,12.3,6.4,19.2l2.5,5.6l0.8-0.7
	l0,0l-2.9,3.9l-0.3,0.4c-4.3,6.9-6.5,13.4-6.5,19.3c0,0.5,0,0.8,0.1,1.1c0,0.1,0,0.2,0,0.2l0.1,1l0.4,0.9c1.9,3.7,4.8,7,9,10.2
	c2,1.5,4.4,3,7.1,4.4l4.6,2.5l-0.2,5.1c0,0.2,0,0.4,0,0.6c0,0.4-0.1,0.9-0.1,1.4c0,7.8,1.6,14.3,4.8,19.1l0.5,0.8l0.8,0.5
	c4.9,3.2,11.3,4.8,19.2,4.8c0.5,0,1,0,1.4-0.1c0.2,0,0.4,0,0.6,0l5.2-0.2l2.5,4.6c1.4,2.6,2.9,5,4.5,7c3.2,4.1,6.5,7,10.3,8.9
	l0.9,0.4l1,0c0.1,0,0.1,0,0.2,0c0.3,0,0.7,0.1,1.1,0.1h0c5.9,0,12.4-2.2,19.4-6.4c0,0,0,0,0,0l5.1-2.7l-0.4-0.4l0.1-0.1l3.6,2.9
	c0.1,0.1,0.3,0.3,0.6,0.4c7,4.3,13.5,6.5,19.4,6.5c0.4,0,0.8,0,1.1-0.1c0.1,0,0.1,0,0.2,0l1-0.1l0.9-0.4c3.7-1.9,7.1-4.8,10.2-8.9
	c1.5-2,3-4.4,4.4-7l2.5-4.6l5.2,0.1c0.2,0,0.4,0,0.6,0c0.5,0,0.9,0.1,1.4,0.1h0c7.9,0,14.4-1.6,19.2-4.8l0.8-0.5l0.5-0.8
	c3.2-4.8,4.8-11.3,4.8-19.1c0-0.4,0-0.9-0.1-1.4c0-0.2,0-0.4,0-0.6l-0.2-5.2l4.6-2.4c2.7-1.4,5-2.9,7.1-4.4c4.1-3.1,7.1-6.5,9-10.2
	l0.4-0.9l0.1-1c0-0.1,0-0.2,0-0.2c0-0.3,0.1-0.7,0.1-1.1c0-5.9-2.2-12.3-6.4-19.2C481,119.7,480.9,119.6,480.9,119.5"/>
<g>
	<path class="st1" d="M32.2,285.1l47.5,113.7l47.5-113.7h9.5L84,410h-8.3l-53-124.9H32.2z"/>
	<path class="st1" d="M256.8,401.9v8.1h-83.2V285.1h81.6v8.1h-72.7v49.1H246v7.7h-63.5v51.9H256.8z"/>
	<path class="st1" d="M298.8,410V285.1h9v116.8h74.6v8.1H298.8z"/>
	<path class="st1" d="M395,285.1l47.5,113.7l47.5-113.7h9.5L446.8,410h-8.3l-53-124.9H395z"/>
	<path class="st1" d="M619.6,401.9v8.1h-83.2V285.1H618v8.1h-72.7v49.1h63.5v7.7h-63.5v51.9H619.6z"/>
	<path class="st1" d="M748.9,293.2h-45.7V410h-9V293.2h-45.7v-8.1h100.5V293.2z"/>
</g>
</svg>
